{
.appVersion = "3097";
.formatVersion = 3;
DisplayStrings = (
"TUESDAYG ALT
THURSDAY
SATURDAY
SUNDAY",
"ABCDEFGHIJKLMN
OPQRSTUVWXYZ/O.ss01/O.ss02/O.ss03 
HOONLH MORNING
WEDNESDAY
WHO KNOWS
gLOVE THOU
WOW QUEN",
"ABCDEFGHIJKLM
NOPQRSTUVWXYZ/O.ss01/O.ss02/O.ss03 
cabcdefghijklm
nopqrstnuvwxyz
adhesion hendai
que jajajaja yay
Thx",

glyphs = (
{
glyphname = A;
lastChange = "2021-08-24 12:49:06 +0000";
layers = (
{
anchors = (
{
name = bottom;
pos = (298,0);
},
{
name = ogonek;
pos = (536,10);
},
{
name = top;
pos = (328,730);
}
);
background = {
shapes = (
{
closed = 1;
nodes = (
(211,-7,o),
(248,38,o),
(265,126,cs),
(275,177,o),
(285,241,o),
(284,307,c),
(186,241,l),
(252,219,o),
(344,218,o),
(393,234,c),
(320,309,l),
(315,249,o),
(314,183,o),
(320,123,cs),
(329,29,o),
(372,-7,o),
(444,-7,cs),
(530,-7,o),
(580,45,o),
(580,163,cs),
(580,312,o),
(548,473,o),
(510,575,cs),
(464,696,o),
(396,739,o),
(316,739,cs),
(238,739,o),
(172,703,o),
(114,570,cs),
(56,438,o),
(15,245,o),
(15,147,cs),
(15,31,o),
(54,-7,o),
(127,-7,cs)
);
},
{
closed = 1;
nodes = (
(267,369,o),
(239,393,o),
(239,430,cs),
(239,477,o),
(268,527,o),
(312,527,cs),
(356,527,o),
(383,480,o),
(383,437,cs),
(383,395,o),
(355,369,o),
(310,369,cs)
);
}
);
};
layerId = m01;
shapes = (
{
closed = 1;
nodes = (
(124,-7,o),
(138,40,o),
(155,126,cs),
(165,177,o),
(175,241,o),
(174,307,c),
(136,251,l),
(234,219,o),
(370,218,o),
(443,244,c),
(440,309,l),
(435,249,o),
(434,183,o),
(440,123,cs),
(449,30,o),
(467,-7,o),
(504,-7,cs),
(539,-7,o),
(560,24,o),
(560,93,cs),
(560,237,o),
(523,435,o),
(470,575,cs),
(426,692,o),
(375,739,o),
(316,739,cs),
(257,739,o),
(209,697,o),
(154,570,cs),
(85,413,o),
(35,191,o),
(35,77,cs),
(35,14,o),
(50,-7,o),
(77,-7,cs)
);
},
{
closed = 1;
nodes = (
(233,319,o),
(199,339,o),
(199,380,cs),
(199,458,o),
(254,637,o),
(312,637,cs),
(371,637,o),
(423,460,o),
(423,387,cs),
(423,341,o),
(390,319,o),
(310,319,cs)
);
}
);
width = 595;
},
{
anchors = (
{
name = bottom;
pos = (298,0);
},
{
name = ogonek;
pos = (536,10);
},
{
name = top;
pos = (328,730);
}
);
layerId = m003;
shapes = (
{
closed = 1;
nodes = (
(211,-7,o),
(248,38,o),
(265,126,cs),
(275,177,o),
(285,241,o),
(284,307,c),
(186,241,l),
(252,219,o),
(344,218,o),
(393,234,c),
(320,309,l),
(315,249,o),
(314,183,o),
(320,123,cs),
(329,29,o),
(372,-7,o),
(444,-7,cs),
(530,-7,o),
(580,45,o),
(580,163,cs),
(580,312,o),
(548,473,o),
(510,575,cs),
(464,696,o),
(396,739,o),
(316,739,cs),
(238,739,o),
(172,703,o),
(114,570,cs),
(56,438,o),
(15,245,o),
(15,147,cs),
(15,31,o),
(54,-7,o),
(127,-7,cs)
);
},
{
closed = 1;
nodes = (
(267,369,o),
(239,393,o),
(239,430,cs),
(239,477,o),
(268,527,o),
(312,527,cs),
(356,527,o),
(383,480,o),
(383,437,cs),
(383,395,o),
(355,369,o),
(310,369,cs)
);
}
);
width = 595;
},
{
anchors = (
{
name = bottom;
pos = (268,0);
},
{
name = ogonek;
pos = (506,10);
},
{
name = top;
pos = (298,730);
}
);
layerId = m004;
shapes = (
{
closed = 1;
nodes = (
(195,-7,o),
(218,38,o),
(245,126,cs),
(255,177,o),
(265,241,o),
(264,307,c),
(166,241,l),
(226,219,o),
(309,218,o),
(353,234,c),
(280,309,l),
(275,249,o),
(274,183,o),
(280,123,cs),
(289,29,o),
(328,-7,o),
(394,-7,cs),
(474,-7,o),
(520,45,o),
(520,163,cs),
(520,312,o),
(488,473,o),
(450,575,cs),
(405,694,o),
(354,739,o),
(286,739,cs),
(220,739,o),
(171,700,o),
(114,570,cs),
(56,438,o),
(15,245,o),
(15,147,cs),
(15,31,o),
(51,-7,o),
(117,-7,cs)
);
},
{
closed = 1;
nodes = (
(249,359,o),
(229,387,o),
(229,440,cs),
(229,502,o),
(250,557,o),
(282,557,cs),
(314,557,o),
(333,505,o),
(333,447,cs),
(333,389,o),
(313,359,o),
(280,359,cs)
);
}
);
width = 535;
},
{
anchors = (
{
name = bottom;
pos = (238,0);
},
{
name = ogonek;
pos = (476,10);
},
{
name = top;
pos = (268,730);
}
);
background = {
shapes = (
{
closed = 1;
nodes = (
(151,-7,o),
(188,38,o),
(205,126,cs),
(215,177,o),
(225,241,o),
(224,307,c),
(126,241,l),
(192,219,o),
(284,218,o),
(333,234,c),
(260,309,l),
(255,249,o),
(254,183,o),
(260,123,cs),
(269,29,o),
(312,-7,o),
(384,-7,cs),
(470,-7,o),
(520,45,o),
(520,163,cs),
(520,312,o),
(488,473,o),
(450,575,cs),
(404,696,o),
(336,739,o),
(256,739,cs),
(178,739,o),
(112,703,o),
(54,570,cs),
(-4,438,o),
(-45,245,o),
(-45,147,cs),
(-45,31,o),
(-6,-7,o),
(67,-7,cs)
);
},
{
closed = 1;
nodes = (
(207,369,o),
(179,393,o),
(179,430,cs),
(179,477,o),
(208,527,o),
(252,527,cs),
(296,527,o),
(323,480,o),
(323,437,cs),
(323,395,o),
(295,369,o),
(250,369,cs)
);
}
);
};
layerId = m005;
shapes = (
{
closed = 1;
nodes = (
(124,-7,o),
(139,36,o),
(155,116,cs),
(166,170,o),
(175,237,o),
(174,307,c),
(136,251,l),
(202,219,o),
(294,218,o),
(343,244,c),
(330,309,l),
(325,246,o),
(324,176,o),
(330,113,cs),
(338,27,o),
(357,-7,o),
(394,-7,cs),
(429,-7,o),
(450,24,o),
(450,93,cs),
(450,237,o),
(429,441,o),
(390,575,cs),
(356,693,o),
(309,739,o),
(258,739,cs),
(210,739,o),
(166,696,o),
(122,570,cs),
(69,419,o),
(35,191,o),
(35,77,cs),
(35,14,o),
(50,-7,o),
(77,-7,cs)
);
},
{
closed = 1;
nodes = (
(197,319,o),
(174,339,o),
(174,380,cs),
(174,458,o),
(212,637,o),
(252,637,cs),
(292,637,o),
(328,460,o),
(328,387,cs),
(328,341,o),
(305,319,o),
(250,319,cs)
);
}
);
width = 485;
},
{
anchors = (
{
name = bottom;
pos = (328,0);
},
{
name = ogonek;
pos = (566,10);
},
{
name = top;
pos = (358,730);
}
);
layerId = "20287304-65DA-4A3E-87C7-7BCC59C17C0B";
shapes = (
{
closed = 1;
nodes = (
(124,-7,o),
(138,42,o),
(155,131,cs),
(165,181,o),
(175,243,o),
(174,307,c),
(136,251,l),
(250,219,o),
(408,218,o),
(493,244,c),
(495,309,l),
(490,251,o),
(489,187,o),
(495,128,cs),
(505,32,o),
(522,-7,o),
(559,-7,cs),
(594,-7,o),
(615,24,o),
(615,93,cs),
(615,237,o),
(570,432,o),
(510,575,cs),
(461,692,o),
(408,739,o),
(345,739,cs),
(281,739,o),
(231,698,o),
(170,570,cs),
(93,410,o),
(35,191,o),
(35,77,cs),
(35,14,o),
(50,-7,o),
(77,-7,cs)
);
},
{
closed = 1;
nodes = (
(251,319,o),
(212,339,o),
(212,380,cs),
(212,458,o),
(275,637,o),
(342,637,cs),
(411,637,o),
(471,460,o),
(471,387,cs),
(471,341,o),
(433,319,o),
(340,319,cs)
);
}
);
width = 650;
},
{
anchors = (
{
name = bottom;
pos = (313,0);
},
{
name = ogonek;
pos = (551,10);
},
{
name = top;
pos = (343,730);
}
);
layerId = "4BA625B0-8927-4B2E-B2D8-0167ED5E0445";
shapes = (
{
closed = 1;
nodes = (
(219,-7,o),
(263,38,o),
(275,126,cs),
(285,177,o),
(295,241,o),
(294,307,c),
(196,241,l),
(265,219,o),
(362,218,o),
(413,234,c),
(340,309,l),
(335,249,o),
(334,183,o),
(340,123,cs),
(349,29,o),
(394,-7,o),
(469,-7,cs),
(558,-7,o),
(610,45,o),
(610,163,cs),
(610,312,o),
(578,473,o),
(540,575,cs),
(494,697,o),
(417,739,o),
(331,739,cs),
(247,739,o),
(173,705,o),
(114,570,cs),
(56,438,o),
(15,245,o),
(15,147,cs),
(15,31,o),
(56,-7,o),
(132,-7,cs)
);
},
{
closed = 1;
nodes = (
(273,379,o),
(239,407,o),
(239,444,cs),
(239,487,o),
(274,537,o),
(327,537,cs),
(380,537,o),
(413,490,o),
(413,452,cs),
(413,409,o),
(379,379,o),
(325,379,cs)
);
}
);
width = 625;
}
);
metricRight = "=|";
unicode = 65;
},
{
glyphname = B;
lastChange = "2021-08-24 12:44:27 +0000";
layers = (
{
anchors = (
{
name = bottom;
pos = (292,0);
},
{
name = center;
pos = (292,365);
},
{
name = top;
pos = (292,730);
}
);
background = {
shapes = (
{
closed = 1;
nodes = (
(396,-5,o),
(564,99,o),
(564,245,cs),
(564,356,o),
(496,407,o),
(385,407,c),
(313,384,l),
(452,409,o),
(559,464,o),
(559,583,cs),
(559,672,o),
(499,739,o),
(342,739,cs),
(199,739,o),
(120,708,o),
(83,652,cs),
(47,597,o),
(25,503,o),
(25,285,cs),
(25,197,o),
(32,130,o),
(52,83,cs),
(77,21,o),
(139,-5,o),
(231,-5,cs)
);
},
{
closed = 1;
nodes = (
(257,163,o),
(238,186,o),
(238,230,cs),
(238,282,o),
(272,310,o),
(314,310,cs),
(365,310,o),
(388,280,o),
(388,241,cs),
(388,194,o),
(350,163,o),
(296,163,cs)
);
},
{
closed = 1;
nodes = (
(267,453,o),
(245,474,o),
(245,516,cs),
(245,562,o),
(275,587,o),
(317,587,cs),
(361,587,o),
(385,563,o),
(385,528,cs),
(385,482,o),
(351,453,o),
(302,453,cs)
);
}
);
};
layerId = m01;
shapes = (
{
closed = 1;
nodes = (
(381,-5,o),
(524,99,o),
(524,245,cs),
(524,349,o),
(456,397,o),
(345,397,c),
(273,364,l),
(412,391,o),
(519,452,o),
(519,583,cs),
(519,667,o),
(470,739,o),
(342,739,cs),
(226,739,o),
(168,705,o),
(133,652,cs),
(97,597,o),
(75,503,o),
(75,285,cs),
(75,197,o),
(82,130,o),
(102,83,cs),
(126,23,o),
(170,-5,o),
(241,-5,cs)
);
},
{
closed = 1;
nodes = (
(197,96,o),
(168,126,o),
(168,213,cs),
(168,301,o),
(208,333,o),
(274,333,cs),
(373,333,o),
(418,290,o),
(418,234,cs),
(418,155,o),
(350,96,o),
(256,96,cs)
);
},
{
closed = 1;
nodes = (
(209,423,o),
(175,445,o),
(175,516,cs),
(175,605,o),
(230,637,o),
(307,637,cs),
(377,637,o),
(415,601,o),
(415,548,cs),
(415,475,o),
(349,423,o),
(262,423,cs)
);
}
);
width = 584;
},
{
anchors = (
{
name = bottom;
pos = (292,0);
},
{
name = center;
pos = (292,365);
},
{
name = top;
pos = (292,730);
}
);
layerId = m003;
shapes = (
{
closed = 1;
nodes = (
(396,-5,o),
(564,99,o),
(564,245,cs),
(564,356,o),
(496,407,o),
(385,407,c),
(313,384,l),
(452,409,o),
(559,464,o),
(559,583,cs),
(559,672,o),
(499,739,o),
(342,739,cs),
(199,739,o),
(120,708,o),
(83,652,cs),
(47,597,o),
(25,503,o),
(25,285,cs),
(25,197,o),
(32,130,o),
(52,83,cs),
(77,21,o),
(139,-5,o),
(231,-5,cs)
);
},
{
closed = 1;
nodes = (
(257,163,o),
(238,186,o),
(238,230,cs),
(238,282,o),
(272,310,o),
(314,310,cs),
(365,310,o),
(388,280,o),
(388,241,cs),
(388,194,o),
(350,163,o),
(296,163,cs)
);
},
{
closed = 1;
nodes = (
(267,453,o),
(245,474,o),
(245,516,cs),
(245,562,o),
(275,587,o),
(317,587,cs),
(361,587,o),
(385,563,o),
(385,528,cs),
(385,482,o),
(351,453,o),
(302,453,cs)
);
}
);
width = 584;
},
{
anchors = (
{
name = bottom;
pos = (242,0);
},
{
name = center;
pos = (242,365);
},
{
name = top;
pos = (242,730);
}
);
layerId = m004;
shapes = (
{
closed = 1;
nodes = (
(336,-5,o),
(464,99,o),
(464,245,cs),
(464,356,o),
(404,407,o),
(305,407,c),
(233,384,l),
(361,409,o),
(459,464,o),
(459,583,cs),
(459,672,o),
(407,739,o),
(272,739,cs),
(168,739,o),
(117,703,o),
(83,652,cs),
(47,597,o),
(25,503,o),
(25,285,cs),
(25,197,o),
(32,130,o),
(52,83,cs),
(77,22,o),
(129,-5,o),
(211,-5,cs)
);
},
{
closed = 1;
nodes = (
(223,143,o),
(213,168,o),
(213,215,cs),
(213,283,o),
(237,320,o),
(265,320,cs),
(291,320,o),
(303,288,o),
(303,246,cs),
(303,184,o),
(279,143,o),
(245,143,cs)
);
},
{
closed = 1;
nodes = (
(231,443,o),
(220,466,o),
(220,511,cs),
(220,573,o),
(239,607,o),
(268,607,cs),
(289,607,o),
(300,581,o),
(300,544,cs),
(300,482,o),
(279,443,o),
(251,443,cs)
);
}
);
width = 484;
},
{
anchors = (
{
name = bottom;
pos = (252,0);
},
{
name = center;
pos = (252,365);
},
{
name = top;
pos = (252,730);
}
);
background = {
shapes = (
{
closed = 1;
nodes = (
(356,-5,o),
(524,99,o),
(524,245,cs),
(524,356,o),
(456,407,o),
(345,407,c),
(273,384,l),
(412,409,o),
(519,464,o),
(519,583,cs),
(519,672,o),
(459,739,o),
(302,739,cs),
(159,739,o),
(80,708,o),
(43,652,cs),
(7,597,o),
(-15,503,o),
(-15,285,cs),
(-15,197,o),
(-8,130,o),
(12,83,cs),
(37,21,o),
(99,-5,o),
(191,-5,cs)
);
},
{
closed = 1;
nodes = (
(217,163,o),
(198,186,o),
(198,230,cs),
(198,282,o),
(232,310,o),
(274,310,cs),
(325,310,o),
(348,280,o),
(348,241,cs),
(348,194,o),
(310,163,o),
(256,163,cs)
);
},
{
closed = 1;
nodes = (
(227,453,o),
(205,474,o),
(205,516,cs),
(205,562,o),
(235,587,o),
(277,587,cs),
(321,587,o),
(345,563,o),
(345,528,cs),
(345,482,o),
(311,453,o),
(262,453,cs)
);
}
);
};
layerId = m005;
shapes = (
{
closed = 1;
nodes = (
(316,-5,o),
(434,99,o),
(434,245,cs),
(434,349,o),
(381,397,o),
(295,397,c),
(223,364,l),
(339,391,o),
(429,452,o),
(429,583,cs),
(429,667,o),
(386,739,o),
(272,739,cs),
(200,739,o),
(159,717,o),
(123,662,cs),
(86,606,o),
(65,509,o),
(65,285,cs),
(65,188,o),
(70,114,o),
(92,63,cs),
(111,16,o),
(145,-5,o),
(201,-5,cs)
);
},
{
closed = 1;
nodes = (
(177,96,o),
(158,126,o),
(158,213,cs),
(158,301,o),
(187,333,o),
(234,333,cs),
(299,333,o),
(328,290,o),
(328,234,cs),
(328,155,o),
(281,96,o),
(216,96,cs)
);
},
{
closed = 1;
nodes = (
(187,423,o),
(165,445,o),
(165,516,cs),
(165,605,o),
(199,637,o),
(247,637,cs),
(298,637,o),
(325,601,o),
(325,548,cs),
(325,475,o),
(281,423,o),
(222,423,cs)
);
}
);
width = 484;
},
{
anchors = (
{
name = bottom;
pos = (312,0);
},
{
name = center;
pos = (312,365);
},
{
name = top;
pos = (312,730);
}
);
layerId = "20287304-65DA-4A3E-87C7-7BCC59C17C0B";
shapes = (
{
closed = 1;
nodes = (
(414,-5,o),
(569,99,o),
(569,245,cs),
(569,349,o),
(494,397,o),
(370,397,c),
(298,364,l),
(449,391,o),
(564,452,o),
(564,583,cs),
(564,667,o),
(512,739,o),
(377,739,cs),
(239,739,o),
(173,699,o),
(138,647,cs),
(103,593,o),
(80,500,o),
(80,285,cs),
(80,202,o),
(88,138,o),
(107,93,cs),
(134,27,o),
(183,-5,o),
(261,-5,cs)
);
},
{
closed = 1;
nodes = (
(207,96,o),
(173,126,o),
(173,213,cs),
(173,301,o),
(219,333,o),
(294,333,cs),
(410,333,o),
(463,290,o),
(463,234,cs),
(463,155,o),
(385,96,o),
(276,96,cs)
);
},
{
closed = 1;
nodes = (
(220,423,o),
(180,445,o),
(180,516,cs),
(180,605,o),
(246,637,o),
(337,637,cs),
(417,637,o),
(460,601,o),
(460,548,cs),
(460,475,o),
(383,423,o),
(282,423,cs)
);
}
);
width = 634;
},
{
anchors = (
{
name = bottom;
pos = (317,0);
},
{
name = center;
pos = (317,365);
},
{
name = top;
pos = (317,730);
}
);
layerId = "4BA625B0-8927-4B2E-B2D8-0167ED5E0445";
shapes = (
{
closed = 1;
nodes = (
(426,-5,o),
(614,99,o),
(614,245,cs),
(614,356,o),
(542,407,o),
(425,407,c),
(353,384,l),
(498,409,o),
(609,464,o),
(609,583,cs),
(609,672,o),
(545,739,o),
(377,739,cs),
(215,739,o),
(122,711,o),
(83,652,cs),
(47,597,o),
(25,503,o),
(25,285,cs),
(25,197,o),
(32,130,o),
(52,83,cs),
(77,21,o),
(144,-5,o),
(241,-5,cs)
);
},
{
closed = 1;
nodes = (
(266,173,o),
(241,192,o),
(241,233,cs),
(241,279,o),
(280,305,o),
(329,305,cs),
(392,305,o),
(421,278,o),
(421,244,cs),
(421,201,o),
(378,173,o),
(318,173,cs)
);
},
{
closed = 1;
nodes = (
(275,458,o),
(248,476,o),
(248,514,cs),
(248,555,o),
(283,577,o),
(332,577,cs),
(387,577,o),
(418,556,o),
(418,525,cs),
(418,484,o),
(377,458,o),
(318,458,cs)
);
}
);
width = 634;
}
);
metricLeft = H;
unicode = 66;
},
{
glyphname = C;
lastChange = "2021-08-24 12:41:41 +0000";
layers = (
{
anchors = (
{
name = bottom;
pos = (299,0);
},
{
name = top;
pos = (299,730);
}
);
background = {
shapes = (
{
closed = 1;
nodes = (
(509,-11,o),
(577,51,o),
(577,149,cs),
(577,227,o),
(532,267,o),
(461,267,cs),
(429,267,o),
(372,257,o),
(337,257,cs),
(280,257,o),
(243,282,o),
(243,349,cs),
(243,423,o),
(287,448,o),
(339,448,cs),
(391,448,o),
(417,423,o),
(471,423,cs),
(550,423,o),
(593,470,o),
(593,546,cs),
(593,648,o),
(516,710,o),
(376,710,cs),
(148,710,o),
(15,559,o),
(15,331,cs),
(15,124,o),
(127,-11,o),
(361,-11,cs)
);
}
);
};
layerId = m01;
shapes = (
{
closed = 1;
nodes = (
(485,-11,o),
(557,25,o),
(557,69,cs),
(557,101,o),
(535,117,o),
(501,117,cs),
(474,117,o),
(408,97,o),
(357,97,cs),
(239,97,o),
(163,165,o),
(163,349,cs),
(163,528,o),
(253,588,o),
(359,588,cs),
(429,588,o),
(469,553,o),
(511,553,cs),
(551,553,o),
(573,573,o),
(573,606,cs),
(573,663,o),
(493,710,o),
(376,710,cs),
(173,710,o),
(55,559,o),
(55,331,cs),
(55,124,o),
(154,-11,o),
(361,-11,cs)
);
}
);
width = 598;
},
{
anchors = (
{
name = bottom;
pos = (299,0);
},
{
name = top;
pos = (299,730);
}
);
layerId = m003;
shapes = (
{
closed = 1;
nodes = (
(509,-11,o),
(577,51,o),
(577,149,cs),
(577,227,o),
(532,267,o),
(461,267,cs),
(429,267,o),
(372,257,o),
(337,257,cs),
(280,257,o),
(243,282,o),
(243,349,cs),
(243,423,o),
(287,448,o),
(339,448,cs),
(391,448,o),
(417,423,o),
(471,423,cs),
(550,423,o),
(593,470,o),
(593,546,cs),
(593,648,o),
(516,710,o),
(376,710,cs),
(148,710,o),
(15,559,o),
(15,331,cs),
(15,124,o),
(127,-11,o),
(361,-11,cs)
);
}
);
width = 598;
},
{
anchors = (
{
name = bottom;
pos = (249,0);
},
{
name = top;
pos = (259,730);
}
);
layerId = m004;
shapes = (
{
closed = 1;
nodes = (
(405,-11,o),
(457,45,o),
(457,133,cs),
(457,211,o),
(412,251,o),
(341,251,cs),
(330,251,o),
(309,247,o),
(297,247,cs),
(252,247,o),
(223,275,o),
(223,349,cs),
(223,430,o),
(258,458,o),
(299,458,cs),
(323,458,o),
(336,453,o),
(361,453,cs),
(434,453,o),
(473,496,o),
(473,566,cs),
(473,656,o),
(414,710,o),
(306,710,cs),
(122,710,o),
(15,559,o),
(15,331,cs),
(15,124,o),
(104,-11,o),
(291,-11,cs)
);
}
);
width = 478;
},
{
anchors = (
{
name = bottom;
pos = (249,0);
},
{
name = top;
pos = (249,730);
}
);
background = {
shapes = (
{
closed = 1;
nodes = (
(499,-11,o),
(567,51,o),
(567,149,cs),
(567,227,o),
(522,267,o),
(451,267,cs),
(419,267,o),
(362,257,o),
(327,257,cs),
(270,257,o),
(233,282,o),
(233,349,cs),
(233,423,o),
(277,448,o),
(329,448,cs),
(381,448,o),
(407,423,o),
(461,423,cs),
(540,423,o),
(583,470,o),
(583,546,cs),
(583,648,o),
(506,710,o),
(366,710,cs),
(138,710,o),
(5,559,o),
(5,331,cs),
(5,124,o),
(117,-11,o),
(351,-11,cs)
);
}
);
};
layerId = m005;
shapes = (
{
closed = 1;
nodes = (
(364,-11,o),
(407,21,o),
(407,59,cs),
(407,91,o),
(389,107,o),
(361,107,cs),
(347,107,o),
(313,97,o),
(287,97,cs),
(205,97,o),
(153,165,o),
(153,349,cs),
(153,528,o),
(215,588,o),
(289,588,cs),
(327,588,o),
(348,573,o),
(371,573,cs),
(405,573,o),
(423,593,o),
(423,626,cs),
(423,672,o),
(375,710,o),
(306,710,cs),
(141,710,o),
(45,559,o),
(45,331,cs),
(45,124,o),
(125,-11,o),
(291,-11,cs)
);
}
);
width = 448;
},
{
anchors = (
{
name = bottom;
pos = (324,0);
},
{
name = top;
pos = (324,730);
}
);
layerId = "20287304-65DA-4A3E-87C7-7BCC59C17C0B";
shapes = (
{
closed = 1;
nodes = (
(546,-11,o),
(632,27,o),
(632,74,cs),
(632,106,o),
(608,122,o),
(571,122,cs),
(538,122,o),
(456,97,o),
(392,97,cs),
(256,97,o),
(168,165,o),
(168,349,cs),
(168,528,o),
(272,588,o),
(394,588,cs),
(480,588,o),
(530,543,o),
(581,543,cs),
(624,543,o),
(648,563,o),
(648,596,cs),
(648,659,o),
(552,710,o),
(411,710,cs),
(189,710,o),
(60,559,o),
(60,331,cs),
(60,124,o),
(169,-11,o),
(396,-11,cs)
);
}
);
width = 673;
},
{
anchors = (
{
name = bottom;
pos = (324,0);
},
{
name = top;
pos = (319,730);
}
);
layerId = "4BA625B0-8927-4B2E-B2D8-0167ED5E0445";
shapes = (
{
closed = 1;
nodes = (
(561,-11,o),
(637,54,o),
(637,157,cs),
(637,235,o),
(592,275,o),
(521,275,cs),
(479,275,o),
(404,262,o),
(357,262,cs),
(294,262,o),
(253,286,o),
(253,349,cs),
(253,420,o),
(302,443,o),
(359,443,cs),
(425,443,o),
(458,408,o),
(526,408,cs),
(608,408,o),
(653,457,o),
(653,536,cs),
(653,644,o),
(567,710,o),
(411,710,cs),
(161,710,o),
(15,559,o),
(15,331,cs),
(15,124,o),
(139,-11,o),
(396,-11,cs)
);
}
);
width = 658;
}
);
metricLeft = O;
unicode = 67;
},
{
glyphname = D;
lastChange = "2021-08-24 12:41:41 +0000";
layers = (
{
anchors = (
{
name = bottom;
pos = (321,0);
},
{
name = center;
pos = (321,365);
},
{
name = top;
pos = (321,730);
}
);
background = {
shapes = (
{
closed = 1;
nodes = (
(447,-23,o),
(626,151,o),
(626,390,cs),
(626,595,o),
(483,735,o),
(220,735,cs),
(77,735,o),
(10,686,o),
(10,606,cs),
(10,548,o),
(47,515,o),
(131,515,cs),
(175,515,o),
(222,525,o),
(250,537,c),
(126,547,l),
(103,448,o),
(100,248,o),
(122,142,c),
(160,183,l),
(57,172,o),
(25,129,o),
(26,69,cs),
(27,14,o),
(57,-23,o),
(177,-23,cs)
);
},
{
closed = 1;
nodes = (
(294,226,o),
(285,274,o),
(285,385,cs),
(285,489,o),
(292,516,o),
(317,516,cs),
(358,516,o),
(395,453,o),
(395,363,cs),
(395,279,o),
(364,226,o),
(328,226,cs)
);
}
);
};
layerId = m01;
shapes = (
{
closed = 1;
nodes = (
(423,-23,o),
(586,151,o),
(586,390,cs),
(586,595,o),
(457,735,o),
(220,735,cs),
(91,735,o),
(30,705,o),
(30,656,cs),
(30,630,o),
(61,615,o),
(131,615,cs),
(175,615,o),
(222,625,o),
(250,637,c),
(176,627,l),
(143,492,o),
(140,218,o),
(172,72,c),
(180,83,l),
(77,78,o),
(46,57,o),
(46,29,cs),
(47,-2,o),
(73,-23,o),
(177,-23,cs)
);
},
{
closed = 1;
nodes = (
(262,96,o),
(250,194,o),
(250,369,cs),
(250,539,o),
(262,636,o),
(304,636,cs),
(371,636,o),
(475,553,o),
(475,375,cs),
(475,190,o),
(373,96,o),
(306,96,cs)
);
}
);
width = 641;
},
{
anchors = (
{
name = bottom;
pos = (321,0);
},
{
name = center;
pos = (321,365);
},
{
name = top;
pos = (321,730);
}
);
layerId = m003;
shapes = (
{
closed = 1;
nodes = (
(447,-23,o),
(626,151,o),
(626,390,cs),
(626,595,o),
(483,735,o),
(220,735,cs),
(77,735,o),
(10,686,o),
(10,606,cs),
(10,548,o),
(47,515,o),
(131,515,cs),
(175,515,o),
(222,525,o),
(250,537,c),
(126,547,l),
(103,448,o),
(100,248,o),
(122,142,c),
(160,183,l),
(57,172,o),
(25,129,o),
(26,69,cs),
(27,14,o),
(57,-23,o),
(177,-23,cs)
);
},
{
closed = 1;
nodes = (
(294,226,o),
(285,274,o),
(285,385,cs),
(285,489,o),
(292,516,o),
(317,516,cs),
(358,516,o),
(395,453,o),
(395,363,cs),
(395,279,o),
(364,226,o),
(328,226,cs)
);
}
);
width = 641;
},
{
anchors = (
{
name = bottom;
pos = (291,0);
},
{
name = center;
pos = (291,365);
},
{
name = top;
pos = (291,730);
}
);
layerId = m004;
shapes = (
{
closed = 1;
nodes = (
(375,-23,o),
(526,151,o),
(526,390,cs),
(526,595,o),
(408,735,o),
(190,735,cs),
(67,735,o),
(10,690,o),
(10,616,cs),
(10,558,o),
(38,525,o),
(101,525,cs),
(145,525,o),
(192,535,o),
(220,547,c),
(96,567,l),
(73,458,o),
(70,238,o),
(92,122,c),
(130,163,l),
(50,153,o),
(25,114,o),
(26,59,cs),
(27,10,o),
(51,-23,o),
(147,-23,cs)
);
},
{
closed = 1;
nodes = (
(242,206,o),
(235,260,o),
(235,385,cs),
(235,505,o),
(240,536,o),
(257,536,cs),
(287,536,o),
(315,465,o),
(315,363,cs),
(315,267,o),
(293,206,o),
(268,206,cs)
);
}
);
width = 541;
},
{
anchors = (
{
name = bottom;
pos = (266,0);
},
{
name = center;
pos = (266,365);
},
{
name = top;
pos = (266,730);
}
);
background = {
shapes = (
{
closed = 1;
nodes = (
(392,-23,o),
(571,151,o),
(571,390,cs),
(571,595,o),
(428,735,o),
(165,735,cs),
(22,735,o),
(-45,686,o),
(-45,606,cs),
(-45,548,o),
(-8,515,o),
(76,515,cs),
(120,515,o),
(167,525,o),
(195,537,c),
(71,547,l),
(48,448,o),
(45,248,o),
(67,142,c),
(105,183,l),
(2,172,o),
(-30,129,o),
(-29,69,cs),
(-28,14,o),
(2,-23,o),
(122,-23,cs)
);
},
{
closed = 1;
nodes = (
(239,226,o),
(230,274,o),
(230,385,cs),
(230,489,o),
(237,516,o),
(262,516,cs),
(303,516,o),
(340,453,o),
(340,363,cs),
(340,279,o),
(309,226,o),
(273,226,cs)
);
}
);
};
layerId = m005;
shapes = (
{
closed = 1;
nodes = (
(332,-23,o),
(471,151,o),
(471,390,cs),
(471,595,o),
(363,735,o),
(165,735,cs),
(70,735,o),
(25,705,o),
(25,656,cs),
(25,630,o),
(44,615,o),
(86,615,cs),
(126,615,o),
(169,625,o),
(195,637,c),
(121,627,l),
(88,492,o),
(85,218,o),
(117,72,c),
(125,83,l),
(60,78,o),
(41,57,o),
(41,29,cs),
(42,-2,o),
(58,-23,o),
(122,-23,cs)
);
},
{
closed = 1;
nodes = (
(205,96,o),
(195,194,o),
(195,369,cs),
(195,539,o),
(205,636,o),
(239,636,cs),
(286,636,o),
(360,553,o),
(360,375,cs),
(360,190,o),
(288,96,o),
(241,96,cs)
);
}
);
width = 516;
},
{
anchors = (
{
name = bottom;
pos = (349,0);
},
{
name = center;
pos = (349,365);
},
{
name = top;
pos = (349,730);
}
);
layerId = "20287304-65DA-4A3E-87C7-7BCC59C17C0B";
shapes = (
{
closed = 1;
nodes = (
(469,-23,o),
(644,151,o),
(644,390,cs),
(644,595,o),
(504,735,o),
(248,735,cs),
(102,735,o),
(33,705,o),
(33,656,cs),
(33,630,o),
(70,615,o),
(154,615,cs),
(200,615,o),
(249,625,o),
(278,637,c),
(204,627,l),
(171,492,o),
(168,218,o),
(200,72,c),
(208,83,l),
(86,78,o),
(49,57,o),
(49,29,cs),
(50,-2,o),
(81,-23,o),
(205,-23,cs)
);
},
{
closed = 1;
nodes = (
(291,96,o),
(278,194,o),
(278,369,cs),
(278,539,o),
(291,636,o),
(337,636,cs),
(414,636,o),
(533,553,o),
(533,375,cs),
(533,190,o),
(416,96,o),
(339,96,cs)
);
}
);
width = 703.5;
},
{
anchors = (
{
name = bottom;
pos = (336,0);
},
{
name = center;
pos = (336,365);
},
{
name = top;
pos = (336,730);
}
);
layerId = "4BA625B0-8927-4B2E-B2D8-0167ED5E0445";
shapes = (
{
closed = 1;
nodes = (
(483,-23,o),
(676,151,o),
(676,390,cs),
(676,595,o),
(521,735,o),
(235,735,cs),
(82,735,o),
(10,684,o),
(10,601,cs),
(10,543,o),
(52,510,o),
(146,510,cs),
(190,510,o),
(237,520,o),
(265,532,c),
(141,537,l),
(118,443,o),
(115,253,o),
(137,152,c),
(175,193,l),
(61,182,o),
(25,137,o),
(26,74,cs),
(27,16,o),
(60,-23,o),
(192,-23,cs)
);
},
{
closed = 1;
nodes = (
(320,236,o),
(310,281,o),
(310,385,cs),
(310,481,o),
(318,506,o),
(347,506,cs),
(394,506,o),
(435,447,o),
(435,363,cs),
(435,285,o),
(400,236,o),
(358,236,cs)
);
}
);
width = 691;
}
);
metricLeft = "=|E";
metricRight = O;
unicode = 68;
},
{
glyphname = E;
lastChange = "2021-08-24 12:41:41 +0000";
layers = (
{
anchors = (
{
name = bottom;
pos = (254,0);
},
{
name = ogonek;
pos = (465,10);
},
{
name = top;
pos = (254,730);
},
{
name = topleft;
pos = (10,730);
}
);
background = {
shapes = (
{
closed = 1;
nodes = (
(234,736,o),
(121,712,o),
(72,645,cs),
(38,599,o),
(15,514,o),
(15,323,cs),
(15,188,o),
(26,118,o),
(54,70,cs),
(83,20,o),
(149,-6,o),
(249,-6,cs),
(320,-6,o),
(401,7,o),
(446,29,cs),
(489,50,o),
(506,81,o),
(506,127,cs),
(506,199,o),
(465,229,o),
(380,229,cs),
(325,229,o),
(254,219,o),
(208,204,c),
(213,189,l),
(235,223,o),
(235,279,o),
(218,313,c),
(202,301,l),
(254,291,o),
(306,286,o),
(349,286,cs),
(447,286,o),
(483,325,o),
(483,374,cs),
(483,419,o),
(452,454,o),
(366,454,cs),
(315,454,o),
(244,444,o),
(205,433,c),
(221,426,l),
(232,460,o),
(232,499,o),
(219,531,c),
(209,518,l),
(258,513,o),
(305,511,o),
(341,511,cs),
(455,511,o),
(508,549,o),
(508,626,cs),
(508,697,o),
(468,736,o),
(358,736,cs)
);
}
);
};
layerId = m01;
shapes = (
{
closed = 1;
nodes = (
(266,736,o),
(176,710,o),
(129,646,cs),
(98,599,o),
(75,514,o),
(75,323,cs),
(75,183,o),
(89,109,o),
(114,59,cs),
(137,15,o),
(190,-6,o),
(269,-6,cs),
(326,-6,o),
(388,9,o),
(426,22,cs),
(469,37,o),
(486,53,o),
(486,77,cs),
(486,107,o),
(458,119,o),
(400,119,cs),
(323,119,o),
(223,101,o),
(158,74,c),
(173,69,l),
(186,144,o),
(177,268,o),
(153,343,c),
(142,331,l),
(204,321,o),
(274,316,o),
(349,316,cs),
(432,316,o),
(463,342,o),
(463,374,cs),
(463,402,o),
(437,424,o),
(366,424,cs),
(299,424,o),
(207,414,o),
(155,403,c),
(156,396,l),
(184,472,o),
(191,560,o),
(179,631,c),
(159,618,l),
(230,613,o),
(298,611,o),
(351,611,cs),
(445,611,o),
(488,633,o),
(488,676,cs),
(488,715,o),
(456,736,o),
(368,736,cs)
);
}
);
width = 518;
},
{
anchors = (
{
name = bottom;
pos = (264,0);
},
{
name = ogonek;
pos = (475,10);
},
{
name = top;
pos = (264,730);
},
{
name = topleft;
pos = (20,730);
}
);
layerId = m003;
shapes = (
{
closed = 1;
nodes = (
(244,736,o),
(131,712,o),
(82,645,cs),
(48,599,o),
(25,514,o),
(25,323,cs),
(25,188,o),
(36,118,o),
(64,70,cs),
(93,20,o),
(159,-6,o),
(259,-6,cs),
(330,-6,o),
(411,7,o),
(456,29,cs),
(499,50,o),
(516,81,o),
(516,127,cs),
(516,199,o),
(475,229,o),
(390,229,cs),
(335,229,o),
(264,219,o),
(218,204,c),
(223,189,l),
(245,223,o),
(245,279,o),
(228,313,c),
(212,301,l),
(264,291,o),
(316,286,o),
(359,286,cs),
(457,286,o),
(493,325,o),
(493,374,cs),
(493,419,o),
(462,454,o),
(376,454,cs),
(325,454,o),
(254,444,o),
(215,433,c),
(231,426,l),
(242,460,o),
(242,499,o),
(229,531,c),
(219,518,l),
(268,513,o),
(315,511,o),
(351,511,cs),
(465,511,o),
(518,549,o),
(518,626,cs),
(518,697,o),
(478,736,o),
(368,736,cs)
);
}
);
width = 528;
},
{
anchors = (
{
name = bottom;
pos = (244,0);
},
{
name = ogonek;
pos = (455,10);
},
{
name = top;
pos = (244,730);
},
{
name = topleft;
pos = (0,730);
}
);
layerId = m004;
shapes = (
{
closed = 1;
nodes = (
(210,736,o),
(127,707,o),
(82,645,cs),
(48,599,o),
(25,514,o),
(25,323,cs),
(25,188,o),
(36,118,o),
(64,70,cs),
(92,21,o),
(149,-6,o),
(239,-6,cs),
(281,-6,o),
(328,5,o),
(356,19,cs),
(397,39,o),
(416,74,o),
(416,117,cs),
(416,189,o),
(385,219,o),
(320,219,cs),
(278,219,o),
(223,209,o),
(188,194,c),
(203,169,l),
(225,208,o),
(225,274,o),
(208,313,c),
(192,301,l),
(230,291,o),
(268,286,o),
(299,286,cs),
(368,286,o),
(393,325,o),
(393,374,cs),
(393,419,o),
(373,454,o),
(316,454,cs),
(278,454,o),
(224,444,o),
(195,433,c),
(211,426,l),
(222,466,o),
(222,513,o),
(209,551,c),
(189,528,l),
(223,523,o),
(256,521,o),
(281,521,cs),
(375,521,o),
(418,559,o),
(418,636,cs),
(418,701,o),
(389,736,o),
(308,736,cs)
);
}
);
width = 428;
},
{
anchors = (
{
name = bottom;
pos = (244,0);
},
{
name = ogonek;
pos = (455,10);
},
{
name = top;
pos = (244,730);
},
{
name = topleft;
pos = (0,730);
}
);
background = {
shapes = (
{
closed = 1;
nodes = (
(224,736,o),
(111,712,o),
(62,645,cs),
(28,599,o),
(5,514,o),
(5,323,cs),
(5,188,o),
(16,118,o),
(44,70,cs),
(73,20,o),
(139,-6,o),
(239,-6,cs),
(310,-6,o),
(391,7,o),
(436,29,cs),
(479,50,o),
(496,81,o),
(496,127,cs),
(496,199,o),
(455,229,o),
(370,229,cs),
(315,229,o),
(244,219,o),
(198,204,c),
(203,189,l),
(225,223,o),
(225,279,o),
(208,313,c),
(192,301,l),
(244,291,o),
(296,286,o),
(339,286,cs),
(437,286,o),
(473,325,o),
(473,374,cs),
(473,419,o),
(442,454,o),
(356,454,cs),
(305,454,o),
(234,444,o),
(195,433,c),
(211,426,l),
(222,460,o),
(222,499,o),
(209,531,c),
(199,518,l),
(248,513,o),
(295,511,o),
(331,511,cs),
(445,511,o),
(498,549,o),
(498,626,cs),
(498,697,o),
(458,736,o),
(348,736,cs)
);
}
);
};
layerId = m005;
shapes = (
{
closed = 1;
nodes = (
(233,736,o),
(163,706,o),
(119,646,cs),
(88,599,o),
(65,514,o),
(65,323,cs),
(65,183,o),
(79,109,o),
(104,59,cs),
(127,15,o),
(180,-6,o),
(259,-6,cs),
(291,-6,o),
(324,0,o),
(346,9,cs),
(376,21,o),
(386,43,o),
(386,67,cs),
(386,104,o),
(368,119,o),
(330,119,cs),
(272,119,o),
(197,101,o),
(148,74,c),
(163,69,l),
(176,144,o),
(167,268,o),
(143,343,c),
(132,331,l),
(176,321,o),
(226,316,o),
(279,316,cs),
(340,316,o),
(363,342,o),
(363,374,cs),
(363,402,o),
(345,424,o),
(296,424,cs),
(248,424,o),
(182,414,o),
(145,403,c),
(146,396,l),
(174,472,o),
(181,560,o),
(169,631,c),
(149,618,l),
(198,613,o),
(245,611,o),
(281,611,cs),
(354,611,o),
(388,633,o),
(388,676,cs),
(388,715,o),
(360,736,o),
(318,736,cs)
);
}
);
width = 413;
},
{
anchors = (
{
name = bottom;
pos = (259,0);
},
{
name = ogonek;
pos = (470,10);
},
{
name = top;
pos = (259,730);
},
{
name = topleft;
pos = (15,730);
}
);
layerId = "20287304-65DA-4A3E-87C7-7BCC59C17C0B";
shapes = (
{
closed = 1;
nodes = (
(283,736,o),
(183,712,o),
(134,646,cs),
(103,599,o),
(80,514,o),
(80,323,cs),
(80,183,o),
(94,109,o),
(119,59,cs),
(142,15,o),
(195,-6,o),
(274,-6,cs),
(344,-6,o),
(420,14,o),
(466,29,cs),
(516,45,o),
(536,58,o),
(536,82,cs),
(536,109,o),
(503,119,o),
(435,119,cs),
(349,119,o),
(236,101,o),
(163,74,c),
(178,69,l),
(191,144,o),
(182,268,o),
(158,343,c),
(147,331,l),
(218,321,o),
(298,316,o),
(384,316,cs),
(478,316,o),
(513,342,o),
(513,374,cs),
(513,402,o),
(483,424,o),
(401,424,cs),
(325,424,o),
(220,414,o),
(160,403,c),
(161,396,l),
(189,472,o),
(196,560,o),
(184,631,c),
(164,618,l),
(246,613,o),
(325,611,o),
(386,611,cs),
(491,611,o),
(538,633,o),
(538,676,cs),
(538,715,o),
(504,736,o),
(393,736,cs)
);
}
);
width = 570.5;
},
{
anchors = (
{
name = bottom;
pos = (274,0);
},
{
name = ogonek;
pos = (485,10);
},
{
name = top;
pos = (274,730);
},
{
name = topleft;
pos = (30,730);
}
);
layerId = "4BA625B0-8927-4B2E-B2D8-0167ED5E0445";
shapes = (
{
closed = 1;
nodes = (
(261,736,o),
(133,715,o),
(82,645,cs),
(48,599,o),
(25,514,o),
(25,323,cs),
(25,188,o),
(36,118,o),
(64,70,cs),
(94,20,o),
(164,-6,o),
(269,-6,cs),
(355,-6,o),
(453,8,o),
(506,34,cs),
(550,56,o),
(566,85,o),
(566,132,cs),
(566,204,o),
(520,234,o),
(425,234,cs),
(364,234,o),
(285,224,o),
(233,209,c),
(233,199,l),
(255,231,o),
(255,282,o),
(238,313,c),
(222,301,l),
(281,291,o),
(340,286,o),
(389,286,cs),
(502,286,o),
(543,325,o),
(543,374,cs),
(543,419,o),
(507,454,o),
(406,454,cs),
(349,454,o),
(269,444,o),
(225,433,c),
(241,426,l),
(252,457,o),
(252,492,o),
(239,521,c),
(234,513,l),
(291,508,o),
(345,506,o),
(386,506,cs),
(510,506,o),
(568,544,o),
(568,621,cs),
(568,695,o),
(523,736,o),
(398,736,cs)
);
}
);
width = 578;
}
);
metricLeft = H;
unicode = 69;
},
{
glyphname = F;
lastChange = "2021-08-24 12:42:36 +0000";
layers = (
{
anchors = (
{
name = bottom;
pos = (242,0);
},
{
name = top;
pos = (242,730);
}
);
background = {
shapes = (
{
closed = 1;
nodes = (
(237,716,o),
(129,689,o),
(82,625,cs),
(48,579,o),
(25,475,o),
(25,293,cs),
(25,157,o),
(34,79,o),
(51,39,cs),
(68,-5,o),
(107,-26,o),
(159,-26,cs),
(231,-26,o),
(276,16,o),
(276,107,cs),
(276,175,o),
(258,251,o),
(241,283,c),
(192,291,l),
(248,248,o),
(303,226,o),
(359,226,cs),
(429,226,o),
(463,264,o),
(463,314,cs),
(463,401,o),
(402,433,o),
(215,443,c),
(231,426,l),
(238,458,o),
(238,489,o),
(229,511,c),
(219,485,l),
(242,482,o),
(264,481,o),
(281,481,cs),
(415,481,o),
(478,519,o),
(478,604,cs),
(478,673,o),
(436,716,o),
(328,716,cs)
);
}
);
};
layerId = m01;
shapes = (
{
closed = 1;
nodes = (
(264,716,o),
(168,694,o),
(132,645,cs),
(97,597,o),
(75,486,o),
(75,293,cs),
(75,166,o),
(86,65,o),
(101,19,cs),
(111,-10,o),
(125,-26,o),
(149,-26,cs),
(184,-26,o),
(206,3,o),
(206,67,cs),
(206,154,o),
(186,283,o),
(168,343,c),
(159,341,l),
(246,278,o),
(332,246,o),
(389,246,cs),
(425,246,o),
(443,267,o),
(443,294,cs),
(443,344,o),
(375,394,o),
(165,413,c),
(173,396,l),
(187,467,o),
(188,555,o),
(179,611,c),
(169,598,l),
(229,593,o),
(287,591,o),
(331,591,cs),
(417,591,o),
(458,610,o),
(458,654,cs),
(458,692,o),
(430,716,o),
(358,716,cs)
);
}
);
width = 483;
},
{
anchors = (
{
name = bottom;
pos = (242,0);
},
{
name = top;
pos = (242,730);
}
);
background = {
shapes = (
{
closed = 1;
nodes = (
(228,736,o),
(130,711,o),
(82,645,cs),
(48,599,o),
(25,514,o),
(25,323,cs),
(25,177,o),
(38,102,o),
(64,50,cs),
(86,7,o),
(118,-6,o),
(159,-6,cs),
(225,-6,o),
(266,21,o),
(266,107,cs),
(266,164,o),
(248,226,o),
(231,253,c),
(192,251,l),
(244,241,o),
(296,236,o),
(339,236,cs),
(437,236,o),
(473,279,o),
(473,334,cs),
(473,385,o),
(442,424,o),
(356,424,cs),
(311,424,o),
(249,414,o),
(215,403,c),
(231,396,l),
(238,446,o),
(238,496,o),
(229,531,c),
(219,508,l),
(261,503,o),
(300,501,o),
(331,501,cs),
(445,501,o),
(498,539,o),
(498,624,cs),
(498,693,o),
(466,736,o),
(348,736,cs)
);
}
);
};
layerId = m003;
shapes = (
{
closed = 1;
nodes = (
(237,716,o),
(129,689,o),
(82,625,cs),
(48,579,o),
(25,475,o),
(25,293,cs),
(25,157,o),
(34,79,o),
(51,39,cs),
(68,-5,o),
(107,-26,o),
(159,-26,cs),
(231,-26,o),
(276,16,o),
(276,107,cs),
(276,175,o),
(258,251,o),
(241,283,c),
(192,291,l),
(248,248,o),
(303,226,o),
(359,226,cs),
(429,226,o),
(463,264,o),
(463,314,cs),
(463,401,o),
(402,433,o),
(215,443,c),
(231,426,l),
(238,458,o),
(238,489,o),
(229,511,c),
(219,485,l),
(242,482,o),
(264,481,o),
(281,481,cs),
(415,481,o),
(478,519,o),
(478,604,cs),
(478,673,o),
(436,716,o),
(328,716,cs)
);
}
);
width = 483;
},
{
anchors = (
{
name = bottom;
pos = (222,0);
},
{
name = top;
pos = (222,730);
}
);
background = {
shapes = (
{
closed = 1;
nodes = (
(208,736,o),
(110,711,o),
(62,645,cs),
(28,599,o),
(5,514,o),
(5,323,cs),
(5,177,o),
(18,102,o),
(44,50,cs),
(66,7,o),
(98,-6,o),
(139,-6,cs),
(205,-6,o),
(246,21,o),
(246,107,cs),
(246,164,o),
(228,226,o),
(211,253,c),
(172,251,l),
(224,241,o),
(276,236,o),
(319,236,cs),
(417,236,o),
(453,279,o),
(453,334,cs),
(453,385,o),
(422,424,o),
(336,424,cs),
(291,424,o),
(229,414,o),
(195,403,c),
(211,396,l),
(218,446,o),
(218,496,o),
(209,531,c),
(199,508,l),
(241,503,o),
(280,501,o),
(311,501,cs),
(425,501,o),
(478,539,o),
(478,624,cs),
(478,693,o),
(446,736,o),
(328,736,cs)
);
}
);
};
layerId = m004;
shapes = (
{
closed = 1;
nodes = (
(212,716,o),
(126,685,o),
(82,625,cs),
(48,579,o),
(25,475,o),
(25,293,cs),
(25,157,o),
(34,79,o),
(51,39,cs),
(68,-4,o),
(102,-26,o),
(149,-26,cs),
(215,-26,o),
(256,16,o),
(256,107,cs),
(256,175,o),
(238,251,o),
(221,283,c),
(192,291,l),
(231,248,o),
(270,226,o),
(309,226,cs),
(366,226,o),
(393,264,o),
(393,314,cs),
(393,394,o),
(344,424,o),
(195,433,c),
(211,426,l),
(218,458,o),
(218,489,o),
(209,511,c),
(199,505,l),
(218,502,o),
(237,501,o),
(251,501,cs),
(358,501,o),
(408,536,o),
(408,614,cs),
(408,677,o),
(374,716,o),
(288,716,cs)
);
}
);
width = 413;
},
{
anchors = (
{
name = bottom;
pos = (232,0);
},
{
name = top;
pos = (232,730);
}
);
background = {
shapes = (
{
closed = 1;
nodes = (
(227,716,o),
(119,689,o),
(72,625,cs),
(38,579,o),
(15,475,o),
(15,293,cs),
(15,157,o),
(24,79,o),
(41,39,cs),
(58,-5,o),
(97,-26,o),
(149,-26,cs),
(221,-26,o),
(266,16,o),
(266,107,cs),
(266,175,o),
(248,251,o),
(231,283,c),
(182,291,l),
(238,248,o),
(293,226,o),
(349,226,cs),
(419,226,o),
(453,264,o),
(453,314,cs),
(453,401,o),
(392,433,o),
(205,443,c),
(221,426,l),
(228,458,o),
(228,489,o),
(219,511,c),
(209,485,l),
(232,482,o),
(254,481,o),
(271,481,cs),
(405,481,o),
(468,519,o),
(468,604,cs),
(468,673,o),
(426,716,o),
(318,716,cs)
);
}
);
};
layerId = m005;
shapes = (
{
closed = 1;
nodes = (
(219,716,o),
(154,689,o),
(122,645,cs),
(87,597,o),
(65,486,o),
(65,293,cs),
(65,166,o),
(76,65,o),
(91,19,cs),
(101,-10,o),
(115,-26,o),
(139,-26,cs),
(174,-26,o),
(196,3,o),
(196,67,cs),
(196,154,o),
(176,283,o),
(158,343,c),
(149,341,l),
(206,291,o),
(262,266,o),
(299,266,cs),
(335,266,o),
(353,287,o),
(353,314,cs),
(353,356,o),
(305,397,o),
(155,413,c),
(163,396,l),
(177,467,o),
(178,555,o),
(169,611,c),
(159,598,l),
(197,593,o),
(233,591,o),
(261,591,cs),
(333,591,o),
(368,610,o),
(368,654,cs),
(368,692,o),
(346,716,o),
(288,716,cs)
);
}
);
width = 388;
},
{
anchors = (
{
name = bottom;
pos = (247,0);
},
{
name = top;
pos = (247,730);
}
);
layerId = "20287304-65DA-4A3E-87C7-7BCC59C17C0B";
shapes = (
{
closed = 1;
nodes = (
(287,716,o),
(175,697,o),
(137,645,cs),
(102,597,o),
(80,486,o),
(80,293,cs),
(80,166,o),
(91,65,o),
(106,19,cs),
(116,-10,o),
(130,-26,o),
(154,-26,cs),
(189,-26,o),
(211,3,o),
(211,67,cs),
(211,154,o),
(191,283,o),
(173,343,c),
(164,341,l),
(266,272,o),
(367,236,o),
(434,236,cs),
(470,236,o),
(488,257,o),
(488,284,cs),
(488,338,o),
(410,393,o),
(170,413,c),
(178,396,l),
(192,467,o),
(193,555,o),
(184,611,c),
(174,598,l),
(245,593,o),
(314,591,o),
(366,591,cs),
(459,591,o),
(503,610,o),
(503,654,cs),
(503,692,o),
(472,716,o),
(393,716,cs)
);
}
);
width = 530.5;
},
{
anchors = (
{
name = bottom;
pos = (252,0);
},
{
name = top;
pos = (252,730);
}
);
layerId = "4BA625B0-8927-4B2E-B2D8-0167ED5E0445";
shapes = (
{
closed = 1;
nodes = (
(250,716,o),
(131,691,o),
(82,625,cs),
(48,579,o),
(25,475,o),
(25,293,cs),
(25,157,o),
(34,79,o),
(51,39,cs),
(68,-6,o),
(110,-26,o),
(164,-26,cs),
(239,-26,o),
(286,16,o),
(286,107,cs),
(286,175,o),
(268,251,o),
(251,283,c),
(192,281,l),
(257,238,o),
(320,216,o),
(384,216,cs),
(461,216,o),
(498,254,o),
(498,304,cs),
(498,395,o),
(431,428,o),
(225,438,c),
(241,426,l),
(248,458,o),
(248,489,o),
(239,511,c),
(229,475,l),
(254,472,o),
(278,471,o),
(296,471,cs),
(444,471,o),
(513,511,o),
(513,599,cs),
(513,671,o),
(467,716,o),
(348,716,cs)
);
}
);
width = 518;
}
);
metricLeft = H;
metricRight = T;
unicode = 70;
},
{
glyphname = G;
lastChange = "2021-08-24 12:41:41 +0000";
layers = (
{
anchors = (
{
name = bottom;
pos = (324,0);
},
{
name = top;
pos = (324,730);
}
);
background = {
shapes = (
{
closed = 1;
nodes = (
(551,270,l),
(618,279,o),
(646,308,o),
(646,349,cs),
(646,398,o),
(595,427,o),
(495,427,cs),
(359,427,o),
(281,382,o),
(281,321,cs),
(281,267,o),
(322,251,o),
(473,260,c)
);
},
{
closed = 1;
nodes = (
(442,294,l),
(444,215,o),
(432,177,o),
(352,177,cs),
(276,177,o),
(223,222,o),
(223,329,cs),
(223,445,o),
(290,488,o),
(369,488,cs),
(403,488,o),
(445,483,o),
(481,483,cs),
(560,483,o),
(603,522,o),
(603,586,cs),
(603,681,o),
(533,730,o),
(406,730,cs),
(169,730,o),
(15,565,o),
(15,331,cs),
(15,124,o),
(120,-11,o),
(341,-11,cs),
(535,-11,o),
(617,87,o),
(617,185,cs),
(617,229,o),
(601,261,o),
(561,284,c)
);
}
);
};
layerId = m01;
shapes = (
{
closed = 1;
nodes = (
(541,290,l),
(601,297,o),
(626,318,o),
(626,349,cs),
(626,388,o),
(576,397,o),
(495,397,cs),
(430,397,o),
(355,384,o),
(320,368,cs),
(294,356,o),
(281,340,o),
(281,321,cs),
(281,290,o),
(300,278,o),
(364,278,cs),
(396,278,o),
(431,280,o),
(473,286,c)
);
},
{
closed = 1;
nodes = (
(462,294,l),
(477,254,o),
(485,210,o),
(485,183,cs),
(485,125,o),
(453,97,o),
(372,97,cs),
(243,97,o),
(153,166,o),
(153,329,cs),
(153,540,o),
(261,618,o),
(389,618,cs),
(458,618,o),
(494,593,o),
(531,593,cs),
(565,593,o),
(583,609,o),
(583,636,cs),
(583,680,o),
(520,730,o),
(406,730,cs),
(193,730,o),
(55,565,o),
(55,331,cs),
(55,124,o),
(154,-11,o),
(361,-11,cs),
(520,-11,o),
(587,77,o),
(587,165,cs),
(587,199,o),
(574,253,o),
(541,304,c)
);
}
);
width = 648;
},
{
anchors = (
{
name = bottom;
pos = (324,0);
},
{
name = top;
pos = (324,730);
}
);
layerId = m003;
shapes = (
{
closed = 1;
nodes = (
(551,270,l),
(618,279,o),
(646,308,o),
(646,349,cs),
(646,400,o),
(594,427,o),
(495,427,cs),
(429,427,o),
(376,416,o),
(340,398,cs),
(301,379,o),
(281,352,o),
(281,321,cs),
(281,276,o),
(309,258,o),
(404,258,cs),
(424,258,o),
(447,258,o),
(473,260,c)
);
},
{
closed = 1;
nodes = (
(439,314,l),
(441,302,o),
(442,291,o),
(442,279,cs),
(442,210,o),
(427,177,o),
(352,177,cs),
(276,177,o),
(223,222,o),
(223,329,cs),
(223,445,o),
(290,488,o),
(369,488,cs),
(403,488,o),
(445,483,o),
(481,483,cs),
(560,483,o),
(603,522,o),
(603,586,cs),
(603,681,o),
(533,730,o),
(406,730,cs),
(169,730,o),
(15,565,o),
(15,331,cs),
(15,124,o),
(120,-11,o),
(341,-11,cs),
(535,-11,o),
(617,87,o),
(617,185,cs),
(617,229,o),
(601,261,o),
(561,284,c)
);
}
);
width = 648;
},
{
anchors = (
{
name = bottom;
pos = (284,0);
},
{
name = top;
pos = (284,730);
}
);
background = {
shapes = (
{
closed = 1;
nodes = (
(431,280,l),
(491,289,o),
(516,318,o),
(516,359,cs),
(516,392,o),
(497,418,o),
(458,428,cs),
(438,433,o),
(414,437,o),
(385,437,cs),
(340,437,o),
(306,426,o),
(280,413,cs),
(246,397,o),
(231,367,o),
(231,336,cs),
(231,291,o),
(250,268,o),
(314,268,cs),
(325,268,o),
(339,268,o),
(353,270,c)
);
},
{
closed = 1;
nodes = (
(319,284,l),
(321,272,o),
(322,261,o),
(322,249,cs),
(322,187,o),
(315,157,o),
(282,157,cs),
(235,157,o),
(203,208,o),
(203,329,cs),
(203,460,o),
(256,508,o),
(319,508,cs),
(341,508,o),
(368,503,o),
(391,503,cs),
(457,503,o),
(493,538,o),
(493,596,cs),
(493,684,o),
(437,730,o),
(336,730,cs),
(141,730,o),
(15,565,o),
(15,331,cs),
(15,124,o),
(101,-11,o),
(281,-11,cs),
(426,-11,o),
(487,87,o),
(487,185,cs),
(487,233,o),
(471,269,o),
(431,294,c)
);
}
);
};
layerId = m004;
shapes = (
{
closed = 1;
nodes = (
(431,280,l),
(491,289,o),
(516,318,o),
(516,359,cs),
(516,419,o),
(464,437,o),
(395,437,cs),
(356,437,o),
(312,428,o),
(280,413,cs),
(246,397,o),
(231,367,o),
(231,336,cs),
(231,291,o),
(250,268,o),
(314,268,cs),
(325,268,o),
(339,268,o),
(353,270,c)
);
},
{
closed = 1;
nodes = (
(319,284,l),
(321,272,o),
(322,261,o),
(322,249,cs),
(322,187,o),
(315,157,o),
(282,157,cs),
(235,157,o),
(203,208,o),
(203,329,cs),
(203,460,o),
(256,508,o),
(319,508,cs),
(341,508,o),
(368,503,o),
(391,503,cs),
(457,503,o),
(493,538,o),
(493,596,cs),
(493,684,o),
(437,730,o),
(336,730,cs),
(141,730,o),
(15,565,o),
(15,331,cs),
(15,124,o),
(101,-11,o),
(281,-11,cs),
(426,-11,o),
(487,87,o),
(487,185,cs),
(487,233,o),
(471,269,o),
(431,294,c)
);
}
);
width = 518;
},
{
anchors = (
{
name = bottom;
pos = (194,0);
},
{
name = top;
pos = (194,730);
}
);
background = {
shapes = (
{
closed = 1;
nodes = (
(421,270,l),
(488,279,o),
(516,308,o),
(516,349,cs),
(516,398,o),
(465,427,o),
(365,427,cs),
(229,427,o),
(151,382,o),
(151,321,cs),
(151,267,o),
(192,251,o),
(343,260,c)
);
},
{
closed = 1;
nodes = (
(312,294,l),
(314,215,o),
(302,177,o),
(222,177,cs),
(146,177,o),
(93,222,o),
(93,329,cs),
(93,445,o),
(160,488,o),
(239,488,cs),
(273,488,o),
(315,483,o),
(351,483,cs),
(430,483,o),
(473,522,o),
(473,586,cs),
(473,681,o),
(403,730,o),
(276,730,cs),
(39,730,o),
(-115,565,o),
(-115,331,cs),
(-115,124,o),
(-10,-11,o),
(211,-11,cs),
(405,-11,o),
(487,87,o),
(487,185,cs),
(487,229,o),
(471,261,o),
(431,284,c)
);
}
);
};
layerId = m005;
shapes = (
{
closed = 1;
nodes = (
(401,290,l),
(447,297,o),
(466,316,o),
(466,347,cs),
(466,383,o),
(439,395,o),
(381,395,cs),
(336,395,o),
(286,386,o),
(250,369,cs),
(224,357,o),
(211,340,o),
(211,321,cs),
(211,292,o),
(224,278,o),
(254,278,cs),
(277,278,o),
(303,280,o),
(333,286,c)
);
},
{
closed = 1;
nodes = (
(322,294,l),
(337,254,o),
(345,210,o),
(345,183,cs),
(345,125,o),
(327,97,o),
(282,97,cs),
(200,97,o),
(143,166,o),
(143,329,cs),
(143,540,o),
(214,618,o),
(299,618,cs),
(334,618,o),
(352,613,o),
(371,613,cs),
(405,613,o),
(423,629,o),
(423,656,cs),
(423,691,o),
(385,730,o),
(316,730,cs),
(152,730,o),
(45,565,o),
(45,331,cs),
(45,124,o),
(118,-11,o),
(271,-11,cs),
(395,-11,o),
(447,77,o),
(447,165,cs),
(447,199,o),
(434,253,o),
(401,304,c)
);
}
);
width = 488;
},
{
anchors = (
{
name = bottom;
pos = (389,0);
},
{
name = top;
pos = (389,730);
}
);
layerId = "20287304-65DA-4A3E-87C7-7BCC59C17C0B";
shapes = (
{
closed = 1;
nodes = (
(611,290,l),
(678,297,o),
(706,319,o),
(706,350,cs),
(706,391,o),
(645,398,o),
(552,398,cs),
(477,398,o),
(390,383,o),
(355,368,cs),
(329,356,o),
(316,340,o),
(316,321,cs),
(316,289,o),
(338,278,o),
(419,278,cs),
(456,278,o),
(495,280,o),
(543,286,c)
);
},
{
closed = 1;
nodes = (
(532,294,l),
(547,254,o),
(555,210,o),
(555,183,cs),
(555,125,o),
(516,97,o),
(417,97,cs),
(265,97,o),
(158,166,o),
(158,329,cs),
(158,540,o),
(285,618,o),
(434,618,cs),
(520,618,o),
(565,583,o),
(611,583,cs),
(645,583,o),
(663,599,o),
(663,626,cs),
(663,675,o),
(588,730,o),
(451,730,cs),
(214,730,o),
(60,565,o),
(60,331,cs),
(60,124,o),
(172,-11,o),
(406,-11,cs),
(583,-11,o),
(657,77,o),
(657,165,cs),
(657,199,o),
(644,253,o),
(611,304,c)
);
}
);
width = 728;
},
{
anchors = (
{
name = bottom;
pos = (344,0);
},
{
name = top;
pos = (344,730);
}
);
layerId = "4BA625B0-8927-4B2E-B2D8-0167ED5E0445";
shapes = (
{
closed = 1;
nodes = (
(611,265,l),
(682,274,o),
(711,303,o),
(711,344,cs),
(711,391,o),
(659,422,o),
(545,422,cs),
(466,422,o),
(408,410,o),
(370,391,cs),
(329,370,o),
(306,345,o),
(306,314,cs),
(306,269,o),
(339,253,o),
(449,253,cs),
(474,253,o),
(501,253,o),
(533,255,c)
);
},
{
closed = 1;
nodes = (
(499,329,l),
(501,317,o),
(502,306,o),
(502,294,cs),
(502,222,o),
(483,187,o),
(387,187,cs),
(297,187,o),
(233,229,o),
(233,329,cs),
(233,438,o),
(307,478,o),
(394,478,cs),
(434,478,o),
(484,473,o),
(526,473,cs),
(612,473,o),
(658,514,o),
(658,581,cs),
(658,680,o),
(581,730,o),
(441,730,cs),
(183,730,o),
(15,565,o),
(15,331,cs),
(15,124,o),
(130,-11,o),
(371,-11,cs),
(590,-11,o),
(682,87,o),
(682,185,cs),
(682,227,o),
(666,257,o),
(626,279,c)
);
}
);
width = 713;
}
);
metricLeft = O;
unicode = 71;
},
{
glyphname = H;
lastChange = "2021-08-24 12:41:41 +0000";
layers = (
{
anchors = (
{
name = bottom;
pos = (324,0);
},
{
name = center;
pos = (324,365);
},
{
name = top;
pos = (324,730);
},
{
name = topleft;
pos = (32,730);
}
);
background = {
shapes = (
{
closed = 1;
nodes = (
(118,735,o),
(81,689,o),
(64,614,cs),
(47,541,o),
(37,435,o),
(37,327,cs),
(37,239,o),
(42,155,o),
(52,102,cs),
(68,20,o),
(107,-8,o),
(171,-8,cs),
(246,-8,o),
(294,32,o),
(294,122,cs),
(294,196,o),
(273,271,o),
(240,341,c),
(223,315,l),
(287,295,o),
(356,294,o),
(417,315,c),
(381,338,l),
(359,270,o),
(346,198,o),
(346,134,cs),
(346,36,o),
(379,-5,o),
(461,-5,cs),
(541,-5,o),
(576,34,o),
(591,123,cs),
(604,201,o),
(610,295,o),
(610,383,cs),
(610,471,o),
(602,565,o),
(589,625,cs),
(573,702,o),
(537,741,o),
(465,741,cs),
(392,741,o),
(355,701,o),
(355,624,cs),
(355,570,o),
(363,497,o),
(380,426,c),
(413,428,l),
(356,453,o),
(282,455,o),
(216,432,c),
(247,419,l),
(276,485,o),
(292,564,o),
(292,622,cs),
(292,697,o),
(255,735,o),
(190,735,cs)
);
}
);
};
layerId = m01;
shapes = (
{
closed = 1;
nodes = (
(135,735,o),
(116,713,o),
(104,654,cs),
(87,571,o),
(75,450,o),
(75,327,cs),
(75,223,o),
(82,124,o),
(93,62,cs),
(103,8,o),
(119,-8,o),
(151,-8,cs),
(187,-8,o),
(204,14,o),
(204,82,cs),
(204,180,o),
(173,279,o),
(150,371,c),
(153,335,l),
(262,315,o),
(379,314,o),
(485,335,c),
(469,368,l),
(447,277,o),
(434,180,o),
(434,94,cs),
(434,15,o),
(448,-5,o),
(482,-5,cs),
(517,-5,o),
(538,19,o),
(549,83,cs),
(565,173,o),
(568,281,o),
(568,383,cs),
(568,486,o),
(558,586,o),
(543,655,cs),
(530,715,o),
(513,741,o),
(483,741,cs),
(454,741,o),
(443,721,o),
(443,664,cs),
(443,591,o),
(451,492,o),
(468,396,c),
(481,408,l),
(383,433,o),
(258,435,o),
(146,412,c),
(157,389,l),
(190,478,o),
(208,584,o),
(208,662,cs),
(208,714,o),
(193,735,o),
(166,735,cs)
);
}
);
width = 643;
},
{
anchors = (
{
name = bottom;
pos = (312,0);
},
{
name = center;
pos = (312,365);
},
{
name = top;
pos = (312,730);
},
{
name = topleft;
pos = (20,730);
}
);
layerId = m003;
shapes = (
{
closed = 1;
nodes = (
(106,735,o),
(69,689,o),
(52,614,cs),
(35,541,o),
(25,435,o),
(25,327,cs),
(25,239,o),
(30,155,o),
(40,102,cs),
(56,20,o),
(95,-8,o),
(159,-8,cs),
(234,-8,o),
(282,32,o),
(282,122,cs),
(282,196,o),
(261,271,o),
(228,341,c),
(211,315,l),
(275,295,o),
(344,294,o),
(405,315,c),
(369,338,l),
(347,270,o),
(334,198,o),
(334,134,cs),
(334,36,o),
(367,-5,o),
(449,-5,cs),
(529,-5,o),
(564,34,o),
(579,123,cs),
(592,201,o),
(598,295,o),
(598,383,cs),
(598,471,o),
(590,565,o),
(577,625,cs),
(561,702,o),
(525,741,o),
(453,741,cs),
(380,741,o),
(343,701,o),
(343,624,cs),
(343,570,o),
(351,497,o),
(368,426,c),
(401,428,l),
(344,453,o),
(270,455,o),
(204,432,c),
(235,419,l),
(264,485,o),
(280,564,o),
(280,622,cs),
(280,697,o),
(243,735,o),
(178,735,cs)
);
}
);
width = 623;
},
{
anchors = (
{
name = bottom;
pos = (292,0);
},
{
name = center;
pos = (292,365);
},
{
name = top;
pos = (292,730);
},
{
name = topleft;
pos = (0,730);
}
);
layerId = m004;
shapes = (
{
closed = 1;
nodes = (
(102,735,o),
(69,689,o),
(52,614,cs),
(35,541,o),
(25,435,o),
(25,327,cs),
(25,239,o),
(30,155,o),
(40,102,cs),
(56,20,o),
(90,-8,o),
(149,-8,cs),
(214,-8,o),
(256,32,o),
(256,122,cs),
(256,196,o),
(237,271,o),
(208,341,c),
(191,315,l),
(245,295,o),
(303,294,o),
(355,315,c),
(319,338,l),
(301,270,o),
(290,198,o),
(290,134,cs),
(290,36,o),
(318,-5,o),
(389,-5,cs),
(463,-5,o),
(494,34,o),
(509,123,cs),
(522,201,o),
(528,295,o),
(528,383,cs),
(528,471,o),
(520,565,o),
(507,625,cs),
(491,702,o),
(459,741,o),
(393,741,cs),
(331,741,o),
(299,701,o),
(299,624,cs),
(299,570,o),
(305,497,o),
(318,426,c),
(351,428,l),
(303,453,o),
(240,455,o),
(184,432,c),
(215,419,l),
(240,485,o),
(254,564,o),
(254,622,cs),
(254,697,o),
(223,735,o),
(168,735,cs)
);
}
);
width = 553;
},
{
anchors = (
{
name = bottom;
pos = (264,0);
},
{
name = center;
pos = (264,365);
},
{
name = top;
pos = (264,730);
},
{
name = topleft;
pos = (-28,730);
}
);
background = {
shapes = (
{
closed = 1;
nodes = (
(58,735,o),
(21,689,o),
(4,614,cs),
(-13,541,o),
(-23,435,o),
(-23,327,cs),
(-23,239,o),
(-18,155,o),
(-8,102,cs),
(8,20,o),
(47,-8,o),
(111,-8,cs),
(186,-8,o),
(234,32,o),
(234,122,cs),
(234,196,o),
(213,271,o),
(180,341,c),
(163,315,l),
(227,295,o),
(296,294,o),
(357,315,c),
(321,338,l),
(299,270,o),
(286,198,o),
(286,134,cs),
(286,36,o),
(319,-5,o),
(401,-5,cs),
(481,-5,o),
(516,34,o),
(531,123,cs),
(544,201,o),
(550,295,o),
(550,383,cs),
(550,471,o),
(542,565,o),
(529,625,cs),
(513,702,o),
(477,741,o),
(405,741,cs),
(332,741,o),
(295,701,o),
(295,624,cs),
(295,570,o),
(303,497,o),
(320,426,c),
(353,428,l),
(296,453,o),
(222,455,o),
(156,432,c),
(187,419,l),
(216,485,o),
(232,564,o),
(232,622,cs),
(232,697,o),
(195,735,o),
(130,735,cs)
);
}
);
};
layerId = m005;
shapes = (
{
closed = 1;
nodes = (
(125,735,o),
(106,713,o),
(94,654,cs),
(77,571,o),
(65,450,o),
(65,327,cs),
(65,223,o),
(72,124,o),
(83,62,cs),
(93,8,o),
(109,-8,o),
(141,-8,cs),
(177,-8,o),
(194,14,o),
(194,82,cs),
(194,180,o),
(163,279,o),
(140,371,c),
(143,335,l),
(220,315,o),
(301,314,o),
(375,335,c),
(359,368,l),
(337,277,o),
(324,180,o),
(324,94,cs),
(324,15,o),
(338,-5,o),
(372,-5,cs),
(407,-5,o),
(428,19,o),
(439,83,cs),
(455,173,o),
(458,281,o),
(458,383,cs),
(458,486,o),
(448,586,o),
(433,655,cs),
(420,715,o),
(403,741,o),
(373,741,cs),
(344,741,o),
(333,721,o),
(333,664,cs),
(333,591,o),
(341,492,o),
(358,396,c),
(371,408,l),
(302,433,o),
(216,435,o),
(136,412,c),
(147,389,l),
(180,478,o),
(198,584,o),
(198,662,cs),
(198,714,o),
(183,735,o),
(156,735,cs)
);
}
);
width = 523;
},
{
anchors = (
{
name = bottom;
pos = (354,0);
},
{
name = center;
pos = (354,365);
},
{
name = top;
pos = (354,730);
},
{
name = topleft;
pos = (62,730);
}
);
layerId = "20287304-65DA-4A3E-87C7-7BCC59C17C0B";
shapes = (
{
closed = 1;
nodes = (
(140,735,o),
(121,713,o),
(109,654,cs),
(92,571,o),
(80,450,o),
(80,327,cs),
(80,223,o),
(87,124,o),
(98,62,cs),
(108,8,o),
(124,-8,o),
(156,-8,cs),
(192,-8,o),
(209,14,o),
(209,82,cs),
(209,180,o),
(178,279,o),
(155,371,c),
(158,335,l),
(283,315,o),
(418,314,o),
(540,335,c),
(524,368,l),
(502,277,o),
(489,180,o),
(489,94,cs),
(489,15,o),
(503,-5,o),
(537,-5,cs),
(572,-5,o),
(593,19,o),
(604,83,cs),
(620,173,o),
(623,281,o),
(623,383,cs),
(623,486,o),
(613,586,o),
(598,655,cs),
(585,715,o),
(568,741,o),
(538,741,cs),
(509,741,o),
(498,721,o),
(498,664,cs),
(498,591,o),
(506,492,o),
(523,396,c),
(536,408,l),
(424,433,o),
(279,435,o),
(151,412,c),
(162,389,l),
(195,478,o),
(213,584,o),
(213,662,cs),
(213,714,o),
(198,735,o),
(171,735,cs)
);
}
);
width = 703;
},
{
anchors = (
{
name = bottom;
pos = (322,0);
},
{
name = center;
pos = (322,365);
},
{
name = top;
pos = (322,730);
},
{
name = topleft;
pos = (30,730);
}
);
layerId = "4BA625B0-8927-4B2E-B2D8-0167ED5E0445";
shapes = (
{
closed = 1;
nodes = (
(108,735,o),
(69,689,o),
(52,614,cs),
(35,541,o),
(25,435,o),
(25,327,cs),
(25,239,o),
(30,155,o),
(40,102,cs),
(56,20,o),
(98,-8,o),
(164,-8,cs),
(244,-8,o),
(295,32,o),
(295,122,cs),
(295,196,o),
(273,271,o),
(238,341,c),
(221,315,l),
(290,295,o),
(365,294,o),
(430,315,c),
(394,338,l),
(370,270,o),
(356,198,o),
(356,134,cs),
(356,36,o),
(392,-5,o),
(479,-5,cs),
(562,-5,o),
(599,34,o),
(614,123,cs),
(627,201,o),
(633,295,o),
(633,383,cs),
(633,471,o),
(625,565,o),
(612,625,cs),
(596,702,o),
(558,741,o),
(483,741,cs),
(405,741,o),
(365,701,o),
(365,624,cs),
(365,570,o),
(374,497,o),
(393,426,c),
(426,428,l),
(365,453,o),
(285,455,o),
(214,432,c),
(245,419,l),
(276,485,o),
(293,564,o),
(293,622,cs),
(293,697,o),
(253,735,o),
(183,735,cs)
);
}
);
width = 658;
}
);
metricRight = "=|";
unicode = 72;
},
{
glyphname = I;
lastChange = "2021-08-24 12:41:41 +0000";
layers = (
{
anchors = (
{
name = bottom;
pos = (139,0);
},
{
name = ogonek;
pos = (266,10);
},
{
name = top;
pos = (139,716);
},
{
name = topleft;
pos = (0,730);
}
);
layerId = m01;
shapes = (
{
closed = 1;
nodes = (
(116,725,o),
(107,701,o),
(97,650,cs),
(83,577,o),
(75,465,o),
(75,327,cs),
(75,227,o),
(80,133,o),
(88,76,cs),
(94,31,o),
(103,12,o),
(134,12,cs),
(163,12,o),
(177,33,o),
(186,101,cs),
(197,182,o),
(203,276,o),
(203,377,cs),
(203,495,o),
(197,596,o),
(187,655,cs),
(179,700,o),
(169,725,o),
(143,725,cs)
);
}
);
width = 278;
},
{
anchors = (
{
name = bottom;
pos = (159,0);
},
{
name = ogonek;
pos = (286,10);
},
{
name = top;
pos = (159,716);
},
{
name = topleft;
pos = (20,730);
}
);
layerId = m003;
shapes = (
{
closed = 1;
nodes = (
(102,725,o),
(64,689,o),
(46,600,cs),
(33,537,o),
(25,435,o),
(25,327,cs),
(25,247,o),
(30,174,o),
(36,136,cs),
(52,44,o),
(95,12,o),
(154,12,cs),
(217,12,o),
(260,53,o),
(278,161,cs),
(288,223,o),
(293,296,o),
(293,377,cs),
(293,465,o),
(287,555,o),
(278,605,cs),
(261,695,o),
(223,725,o),
(163,725,cs)
);
}
);
width = 318;
},
{
anchors = (
{
name = bottom;
pos = (149,0);
},
{
name = ogonek;
pos = (276,10);
},
{
name = top;
pos = (149,716);
},
{
name = topleft;
pos = (10,730);
}
);
layerId = m004;
shapes = (
{
closed = 1;
nodes = (
(97,725,o),
(64,689,o),
(46,600,cs),
(33,537,o),
(25,435,o),
(25,327,cs),
(25,247,o),
(30,174,o),
(36,136,cs),
(52,44,o),
(90,12,o),
(144,12,cs),
(202,12,o),
(240,53,o),
(258,161,cs),
(268,223,o),
(273,296,o),
(273,377,cs),
(273,465,o),
(267,555,o),
(258,605,cs),
(241,695,o),
(208,725,o),
(153,725,cs)
);
}
);
width = 298;
},
{
anchors = (
{
name = bottom;
pos = (129,0);
},
{
name = ogonek;
pos = (256,10);
},
{
name = top;
pos = (129,716);
},
{
name = topleft;
pos = (-10,730);
}
);
layerId = m005;
shapes = (
{
closed = 1;
nodes = (
(106,725,o),
(97,701,o),
(87,650,cs),
(73,577,o),
(65,465,o),
(65,327,cs),
(65,227,o),
(70,133,o),
(78,76,cs),
(84,31,o),
(93,12,o),
(124,12,cs),
(153,12,o),
(167,33,o),
(176,101,cs),
(187,182,o),
(193,276,o),
(193,377,cs),
(193,495,o),
(187,596,o),
(177,655,cs),
(169,700,o),
(159,725,o),
(133,725,cs)
);
}
);
width = 258;
},
{
anchors = (
{
name = bottom;
pos = (144,0);
},
{
name = ogonek;
pos = (271,10);
},
{
name = top;
pos = (144,716);
},
{
name = topleft;
pos = (5,730);
}
);
layerId = "20287304-65DA-4A3E-87C7-7BCC59C17C0B";
shapes = (
{
closed = 1;
nodes = (
(121,725,o),
(112,701,o),
(102,650,cs),
(88,577,o),
(80,465,o),
(80,327,cs),
(80,227,o),
(85,133,o),
(93,76,cs),
(99,31,o),
(108,12,o),
(139,12,cs),
(168,12,o),
(182,33,o),
(191,101,cs),
(202,182,o),
(208,276,o),
(208,377,cs),
(208,495,o),
(202,596,o),
(192,655,cs),
(184,700,o),
(174,725,o),
(148,725,cs)
);
}
);
width = 288;
},
{
anchors = (
{
name = bottom;
pos = (164,0);
},
{
name = ogonek;
pos = (291,10);
},
{
name = top;
pos = (164,716);
},
{
name = topleft;
pos = (25,730);
}
);
layerId = "4BA625B0-8927-4B2E-B2D8-0167ED5E0445";
shapes = (
{
closed = 1;
nodes = (
(105,725,o),
(64,689,o),
(46,600,cs),
(33,537,o),
(25,435,o),
(25,327,cs),
(25,247,o),
(30,174,o),
(36,136,cs),
(52,44,o),
(98,12,o),
(159,12,cs),
(225,12,o),
(270,53,o),
(288,161,cs),
(298,223,o),
(303,296,o),
(303,377,cs),
(303,465,o),
(297,555,o),
(288,605,cs),
(271,695,o),
(231,725,o),
(168,725,cs)
);
}
);
width = 328;
}
);
metricLeft = H;
metricRight = "=|H";
unicode = 73;
},
{
glyphname = J;
lastChange = "2021-08-24 12:41:41 +0000";
layers = (
{
anchors = (
{
name = bottom;
pos = (286,0);
},
{
name = top;
pos = (286,730);
}
);
background = {
shapes = (
{
closed = 1;
nodes = (
(430,523,l),
(526,513,o),
(566,549,o),
(566,613,cs),
(566,691,o),
(499,737,o),
(370,737,cs),
(195,737,o),
(95,665,o),
(95,581,cs),
(95,495,o),
(174,473,o),
(306,511,c)
);
},
{
closed = 1;
nodes = (
(281,520,l),
(309,447,o),
(321,379,o),
(321,306,cs),
(321,232,o),
(307,187,o),
(270,187,cs),
(236,187,o),
(222,221,o),
(233,299,cs),
(242,365,o),
(212,411,o),
(146,411,cs),
(70,411,o),
(5,364,o),
(5,241,cs),
(5,92,o),
(87,-11,o),
(251,-11,cs),
(441,-11,o),
(527,124,o),
(527,275,cs),
(527,381,o),
(495,485,o),
(441,559,c)
);
}
);
};
layerId = m01;
shapes = (
{
closed = 1;
nodes = (
(380,637,l),
(416,630,o),
(450,626,o),
(482,626,cs),
(527,626,o),
(546,644,o),
(546,670,cs),
(546,691,o),
(534,707,o),
(498,720,cs),
(472,729,o),
(429,737,o),
(370,737,cs),
(279,737,o),
(211,721,o),
(169,701,cs),
(130,682,o),
(115,659,o),
(115,635,cs),
(115,610,o),
(134,597,o),
(168,597,cs),
(210,597,o),
(259,607,o),
(316,625,c)
);
},
{
closed = 1;
nodes = (
(301,640,l),
(350,529,o),
(371,427,o),
(371,316,cs),
(371,180,o),
(335,97,o),
(240,97,cs),
(167,97,o),
(137,137,o),
(137,230,cs),
(137,274,o),
(155,322,o),
(155,362,cs),
(155,394,o),
(141,411,o),
(116,411,cs),
(67,411,o),
(25,344,o),
(25,231,cs),
(25,82,o),
(97,-11,o),
(241,-11,cs),
(414,-11,o),
(477,123,o),
(477,315,cs),
(477,451,o),
(434,584,o),
(361,679,c)
);
}
);
width = 571;
},
{
anchors = (
{
name = bottom;
pos = (286,0);
},
{
name = top;
pos = (286,730);
}
);
layerId = m003;
shapes = (
{
closed = 1;
nodes = (
(430,523,l),
(441,522,o),
(451,521,o),
(460,521,cs),
(534,521,o),
(566,556,o),
(566,613,cs),
(566,654,o),
(548,686,o),
(511,707,cs),
(479,727,o),
(431,737,o),
(370,737,cs),
(286,737,o),
(219,720,o),
(172,694,cs),
(122,665,o),
(95,624,o),
(95,581,cs),
(95,522,o),
(132,493,o),
(198,493,cs),
(228,493,o),
(265,499,o),
(306,511,c)
);
},
{
closed = 1;
nodes = (
(281,520,l),
(309,447,o),
(321,379,o),
(321,306,cs),
(321,232,o),
(307,187,o),
(270,187,cs),
(244,187,o),
(229,207,o),
(229,253,cs),
(229,274,o),
(235,300,o),
(235,321,cs),
(235,375,o),
(204,411,o),
(146,411,cs),
(70,411,o),
(5,344,o),
(5,221,cs),
(5,72,o),
(87,-11,o),
(251,-11,cs),
(441,-11,o),
(527,124,o),
(527,275,cs),
(527,381,o),
(495,485,o),
(441,559,c)
);
}
);
width = 571;
},
{
anchors = (
{
name = bottom;
pos = (206,0);
},
{
name = top;
pos = (206,730);
}
);
layerId = m004;
shapes = (
{
closed = 1;
nodes = (
(350,543,l),
(361,542,o),
(371,541,o),
(380,541,cs),
(447,541,o),
(476,572,o),
(476,623,cs),
(476,663,o),
(457,690,o),
(421,710,cs),
(391,727,o),
(347,737,o),
(290,737,cs),
(219,737,o),
(163,720,o),
(122,697,cs),
(78,672,o),
(55,633,o),
(55,591,cs),
(55,539,o),
(85,513,o),
(138,513,cs),
(165,513,o),
(199,519,o),
(236,531,c)
);
},
{
closed = 1;
nodes = (
(221,530,l),
(249,447,o),
(261,369,o),
(261,286,cs),
(261,224,o),
(252,187,o),
(230,187,cs),
(217,187,o),
(209,204,o),
(209,243,cs),
(209,267,o),
(215,297,o),
(215,321,cs),
(215,375,o),
(187,411,o),
(136,411,cs),
(65,411,o),
(5,344,o),
(5,221,cs),
(5,72,o),
(77,-11,o),
(221,-11,cs),
(377,-11,o),
(447,115,o),
(447,255,cs),
(447,372,o),
(415,487,o),
(361,569,c)
);
}
);
width = 481;
},
{
anchors = (
{
name = bottom;
pos = (171,0);
},
{
name = top;
pos = (171,730);
}
);
background = {
shapes = (
{
closed = 1;
nodes = (
(315,523,l),
(411,513,o),
(451,549,o),
(451,613,cs),
(451,691,o),
(384,737,o),
(255,737,cs),
(80,737,o),
(-20,665,o),
(-20,581,cs),
(-20,495,o),
(59,473,o),
(191,511,c)
);
},
{
closed = 1;
nodes = (
(166,520,l),
(194,447,o),
(206,379,o),
(206,306,cs),
(206,232,o),
(192,187,o),
(155,187,cs),
(121,187,o),
(107,221,o),
(118,299,cs),
(127,365,o),
(97,411,o),
(31,411,cs),
(-45,411,o),
(-110,364,o),
(-110,241,cs),
(-110,92,o),
(-28,-11,o),
(136,-11,cs),
(326,-11,o),
(412,124,o),
(412,275,cs),
(412,381,o),
(380,485,o),
(326,559,c)
);
}
);
};
layerId = m005;
shapes = (
{
closed = 1;
nodes = (
(265,637,l),
(283,634,o),
(301,633,o),
(317,633,cs),
(362,633,o),
(381,651,o),
(381,677,cs),
(381,698,o),
(369,714,o),
(339,725,cs),
(317,733,o),
(291,737,o),
(255,737,cs),
(191,737,o),
(144,726,o),
(114,712,cs),
(75,693,o),
(60,670,o),
(60,646,cs),
(60,621,o),
(79,608,o),
(113,608,cs),
(138,608,o),
(167,613,o),
(201,625,c)
);
},
{
closed = 1;
nodes = (
(186,640,l),
(235,515,o),
(256,401,o),
(256,276,cs),
(256,165,o),
(236,97,o),
(185,97,cs),
(147,97,o),
(132,128,o),
(132,200,cs),
(132,254,o),
(150,313,o),
(150,362,cs),
(150,394,o),
(136,411,o),
(111,411,cs),
(62,411,o),
(20,337,o),
(20,211,cs),
(20,74,o),
(75,-11,o),
(186,-11,cs),
(315,-11,o),
(362,107,o),
(362,275,cs),
(362,426,o),
(319,574,o),
(246,679,c)
);
}
);
width = 401;
},
{
anchors = (
{
name = bottom;
pos = (344,0);
},
{
name = top;
pos = (344,730);
}
);
layerId = "20287304-65DA-4A3E-87C7-7BCC59C17C0B";
shapes = (
{
closed = 1;
nodes = (
(438,637,l),
(483,628,o),
(525,623,o),
(565,623,cs),
(610,623,o),
(629,641,o),
(629,667,cs),
(629,688,o),
(617,704,o),
(578,718,cs),
(550,727,o),
(498,737,o),
(428,737,cs),
(323,737,o),
(245,719,o),
(197,696,cs),
(158,677,o),
(143,654,o),
(143,630,cs),
(143,605,o),
(162,592,o),
(196,592,cs),
(246,592,o),
(305,604,o),
(374,625,c)
);
},
{
closed = 1;
nodes = (
(359,640,l),
(408,536,o),
(429,440,o),
(429,336,cs),
(429,188,o),
(385,97,o),
(268,97,cs),
(177,97,o),
(140,142,o),
(140,245,cs),
(140,284,o),
(158,327,o),
(158,362,cs),
(158,394,o),
(144,411,o),
(119,411,cs),
(70,411,o),
(28,348,o),
(28,241,cs),
(28,86,o),
(108,-11,o),
(269,-11,cs),
(464,-11,o),
(535,131,o),
(535,335,cs),
(535,464,o),
(492,589,o),
(419,679,c)
);
}
);
width = 656;
},
{
anchors = (
{
name = bottom;
pos = (326,0);
},
{
name = top;
pos = (326,730);
}
);
layerId = "4BA625B0-8927-4B2E-B2D8-0167ED5E0445";
shapes = (
{
closed = 1;
nodes = (
(470,513,l),
(481,512,o),
(491,511,o),
(500,511,cs),
(578,511,o),
(611,548,o),
(611,608,cs),
(611,650,o),
(594,684,o),
(556,706,cs),
(523,727,o),
(473,737,o),
(410,737,cs),
(320,737,o),
(247,720,o),
(197,693,cs),
(144,662,o),
(115,620,o),
(115,576,cs),
(115,514,o),
(156,483,o),
(228,483,cs),
(260,483,o),
(298,489,o),
(341,501,c)
);
},
{
closed = 1;
nodes = (
(311,515,l),
(339,447,o),
(351,384,o),
(351,316,cs),
(351,236,o),
(335,187,o),
(290,187,cs),
(258,187,o),
(239,209,o),
(239,258,cs),
(239,278,o),
(245,302,o),
(245,321,cs),
(245,375,o),
(213,411,o),
(151,411,cs),
(73,411,o),
(5,344,o),
(5,221,cs),
(5,72,o),
(92,-11,o),
(266,-11,cs),
(473,-11,o),
(567,129,o),
(567,285,cs),
(567,386,o),
(535,484,o),
(481,554,c)
);
}
);
width = 616;
}
);
metricLeft = T;
metricRight = T;
unicode = 74;
},
{
glyphname = K;
lastChange = "2021-08-24 12:41:41 +0000";
layers = (
{
anchors = (
{
name = bottom;
pos = (289,0);
},
{
name = top;
pos = (289,730);
}
);
background = {
shapes = (
{
closed = 1;
nodes = (
(88,718,o),
(60,683,o),
(46,608,cs),
(30,525,o),
(25,411,o),
(25,297,cs),
(25,190,o),
(34,90,o),
(46,50,cs),
(58,10,o),
(83,-10,o),
(127,-10,cs),
(187,-10,o),
(219,23,o),
(232,77,cs),
(241,114,o),
(250,209,o),
(242,291,c),
(235,294,l),
(304,71,o),
(368,1,o),
(456,1,cs),
(524,1,o),
(564,42,o),
(564,104,cs),
(564,205,o),
(498,292,o),
(357,395,c),
(349,369,l),
(513,461,o),
(584,536,o),
(584,626,cs),
(584,686,o),
(550,732,o),
(491,732,cs),
(416,732,o),
(338,672,o),
(233,453,c),
(253,474,l),
(273,655,o),
(236,718,o),
(150,718,cs)
);
}
);
};
layerId = m01;
shapes = (
{
closed = 1;
nodes = (
(121,718,o),
(106,692,o),
(97,638,cs),
(82,547,o),
(75,422,o),
(75,297,cs),
(75,181,o),
(83,83,o),
(93,40,cs),
(101,4,o),
(110,-10,o),
(127,-10,cs),
(153,-10,o),
(165,8,o),
(172,37,cs),
(186,96,o),
(190,216,o),
(177,325,c),
(172,326,l),
(314,79,o),
(400,1,o),
(466,1,cs),
(497,1,o),
(514,18,o),
(514,44,cs),
(514,115,o),
(408,221,o),
(214,364,c),
(206,348,l),
(435,509,o),
(534,618,o),
(534,686,cs),
(534,712,o),
(519,732,o),
(491,732,cs),
(429,732,o),
(334,640,o),
(173,393,c),
(178,374,l),
(213,665,o),
(186,718,o),
(150,718,cs)
);
}
);
width = 564;
},
{
anchors = (
{
name = bottom;
pos = (289,0);
},
{
name = top;
pos = (289,730);
}
);
layerId = m003;
shapes = (
{
closed = 1;
nodes = (
(88,718,o),
(60,683,o),
(46,608,cs),
(30,525,o),
(25,411,o),
(25,297,cs),
(25,190,o),
(34,90,o),
(46,50,cs),
(58,10,o),
(83,-10,o),
(127,-10,cs),
(187,-10,o),
(219,23,o),
(232,77,cs),
(241,114,o),
(250,209,o),
(242,291,c),
(235,294,l),
(304,71,o),
(368,1,o),
(456,1,cs),
(524,1,o),
(564,42,o),
(564,104,cs),
(564,205,o),
(498,292,o),
(357,395,c),
(349,369,l),
(513,461,o),
(584,536,o),
(584,626,cs),
(584,686,o),
(550,732,o),
(491,732,cs),
(416,732,o),
(338,672,o),
(233,453,c),
(253,474,l),
(273,655,o),
(236,718,o),
(150,718,cs)
);
}
);
width = 589;
},
{
anchors = (
{
name = bottom;
pos = (269,0);
},
{
name = top;
pos = (269,730);
}
);
layerId = m004;
shapes = (
{
closed = 1;
nodes = (
(84,718,o),
(60,683,o),
(46,608,cs),
(30,525,o),
(25,411,o),
(25,297,cs),
(25,190,o),
(34,90,o),
(46,50,cs),
(58,10,o),
(78,-10,o),
(117,-10,cs),
(171,-10,o),
(199,23,o),
(212,77,cs),
(221,114,o),
(230,209,o),
(212,291,c),
(205,294,l),
(262,71,o),
(314,1,o),
(386,1,cs),
(441,1,o),
(474,38,o),
(474,94,cs),
(474,198,o),
(411,288,o),
(287,395,c),
(279,369,l),
(426,465,o),
(494,542,o),
(494,636,cs),
(494,690,o),
(464,732,o),
(411,732,cs),
(351,732,o),
(288,672,o),
(213,453,c),
(223,464,l),
(253,655,o),
(219,718,o),
(140,718,cs)
);
}
);
width = 499;
},
{
anchors = (
{
name = bottom;
pos = (279,0);
},
{
name = top;
pos = (279,730);
}
);
background = {
shapes = (
{
closed = 1;
nodes = (
(78,718,o),
(50,683,o),
(36,608,cs),
(20,525,o),
(15,411,o),
(15,297,cs),
(15,190,o),
(24,90,o),
(36,50,cs),
(48,10,o),
(73,-10,o),
(117,-10,cs),
(177,-10,o),
(209,23,o),
(222,77,cs),
(231,114,o),
(240,209,o),
(232,291,c),
(225,294,l),
(294,71,o),
(358,1,o),
(446,1,cs),
(514,1,o),
(554,42,o),
(554,104,cs),
(554,205,o),
(488,292,o),
(347,395,c),
(339,369,l),
(503,461,o),
(574,536,o),
(574,626,cs),
(574,686,o),
(540,732,o),
(481,732,cs),
(406,732,o),
(328,672,o),
(223,453,c),
(243,474,l),
(263,655,o),
(226,718,o),
(140,718,cs)
);
}
);
};
layerId = m005;
shapes = (
{
closed = 1;
nodes = (
(111,718,o),
(96,692,o),
(87,638,cs),
(72,547,o),
(65,422,o),
(65,297,cs),
(65,181,o),
(73,83,o),
(83,40,cs),
(91,4,o),
(100,-10,o),
(117,-10,cs),
(143,-10,o),
(155,8,o),
(162,37,cs),
(176,96,o),
(180,216,o),
(167,325,c),
(162,326,l),
(256,79,o),
(312,1,o),
(356,1,cs),
(387,1,o),
(404,18,o),
(404,44,cs),
(404,115,o),
(337,221,o),
(214,364,c),
(206,348,l),
(358,509,o),
(424,618,o),
(424,686,cs),
(424,712,o),
(409,732,o),
(381,732,cs),
(338,732,o),
(273,640,o),
(163,393,c),
(168,374,l),
(203,665,o),
(176,718,o),
(140,718,cs)
);
}
);
width = 454;
},
{
anchors = (
{
name = bottom;
pos = (294,0);
},
{
name = top;
pos = (294,730);
}
);
layerId = "20287304-65DA-4A3E-87C7-7BCC59C17C0B";
shapes = (
{
closed = 1;
nodes = (
(126,718,o),
(111,692,o),
(102,638,cs),
(87,547,o),
(80,422,o),
(80,297,cs),
(80,181,o),
(88,83,o),
(98,40,cs),
(106,4,o),
(115,-10,o),
(132,-10,cs),
(158,-10,o),
(170,8,o),
(177,37,cs),
(191,96,o),
(195,216,o),
(182,325,c),
(177,326,l),
(343,79,o),
(444,1,o),
(521,1,cs),
(552,1,o),
(569,18,o),
(569,44,cs),
(569,115,o),
(444,221,o),
(214,364,c),
(206,348,l),
(474,509,o),
(589,618,o),
(589,686,cs),
(589,712,o),
(574,732,o),
(546,732,cs),
(475,732,o),
(365,640,o),
(178,393,c),
(183,374,l),
(218,665,o),
(191,718,o),
(155,718,cs)
);
}
);
width = 619;
},
{
anchors = (
{
name = bottom;
pos = (299,0);
},
{
name = top;
pos = (299,730);
}
);
layerId = "4BA625B0-8927-4B2E-B2D8-0167ED5E0445";
shapes = (
{
closed = 1;
nodes = (
(90,718,o),
(60,683,o),
(46,608,cs),
(30,525,o),
(25,411,o),
(25,297,cs),
(25,190,o),
(34,90,o),
(46,50,cs),
(58,10,o),
(86,-10,o),
(132,-10,cs),
(195,-10,o),
(229,23,o),
(242,77,cs),
(251,114,o),
(260,209,o),
(257,291,c),
(250,294,l),
(325,71,o),
(395,1,o),
(491,1,cs),
(566,1,o),
(609,44,o),
(609,109,cs),
(609,209,o),
(542,294,o),
(392,395,c),
(384,369,l),
(557,459,o),
(629,533,o),
(629,621,cs),
(629,684,o),
(593,732,o),
(531,732,cs),
(449,732,o),
(363,672,o),
(243,453,c),
(268,479,l),
(283,655,o),
(245,718,o),
(155,718,cs)
);
}
);
width = 634;
}
);
metricLeft = H;
unicode = 75;
},
{
glyphname = L;
lastChange = "2021-08-24 12:41:41 +0000";
layers = (
{
anchors = (
{
name = bottom;
pos = (251,0);
},
{
name = center;
pos = (251,365);
},
{
name = top;
pos = (251,730);
},
{
name = topright;
pos = (481,730);
}
);
background = {
shapes = (
{
closed = 1;
nodes = (
(294,-6,o),
(360,9,o),
(403,32,cs),
(460,62,o),
(496,118,o),
(496,184,cs),
(496,254,o),
(455,295,o),
(382,295,cs),
(318,295,o),
(251,264,o),
(208,204,c),
(225,209,l),
(262,299,o),
(288,412,o),
(288,517,cs),
(288,631,o),
(258,725,o),
(163,725,cs),
(102,725,o),
(64,689,o),
(46,600,cs),
(35,544,o),
(25,434,o),
(25,323,cs),
(25,188,o),
(36,118,o),
(64,70,cs),
(93,19,o),
(143,-6,o),
(234,-6,cs)
);
}
);
};
layerId = m01;
shapes = (
{
closed = 1;
nodes = (
(276,-6,o),
(350,11,o),
(394,31,cs),
(448,56,o),
(476,86,o),
(476,114,cs),
(476,140,o),
(460,155,o),
(424,155,cs),
(358,155,o),
(241,118,o),
(151,64,c),
(163,39,l),
(179,197,o),
(188,393,o),
(188,577,cs),
(188,658,o),
(177,725,o),
(143,725,cs),
(113,725,o),
(95,701,o),
(86,640,cs),
(77,586,o),
(75,480,o),
(75,373,cs),
(75,212,o),
(88,113,o),
(106,67,cs),
(128,12,o),
(154,-6,o),
(224,-6,cs)
);
}
);
width = 501;
},
{
anchors = (
{
name = bottom;
pos = (251,0);
},
{
name = center;
pos = (251,365);
},
{
name = top;
pos = (251,730);
},
{
name = topright;
pos = (481,730);
}
);
background = {
shapes = (
{
closed = 1;
nodes = (
(234,736,o),
(131,712,o),
(82,645,cs),
(48,599,o),
(25,514,o),
(25,323,cs),
(25,188,o),
(36,118,o),
(64,70,cs),
(93,20,o),
(139,-6,o),
(239,-6,cs),
(310,-6,o),
(391,7,o),
(436,29,cs),
(479,50,o),
(496,84,o),
(496,132,cs),
(496,208,o),
(455,239,o),
(370,239,cs),
(315,239,o),
(244,229,o),
(198,214,c),
(203,199,l),
(225,233,o),
(225,289,o),
(208,323,c),
(192,293,l),
(244,285,o),
(296,283,o),
(349,286,cs),
(437,291,o),
(473,324,o),
(473,376,cs),
(473,424,o),
(442,461,o),
(356,461,cs),
(305,461,o),
(234,454,o),
(195,445,c),
(211,436,l),
(218,475,o),
(218,514,o),
(209,541,c),
(199,508,l),
(248,503,o),
(295,501,o),
(331,501,cs),
(445,501,o),
(498,541,o),
(498,629,cs),
(498,695,o),
(468,736,o),
(358,736,cs)
);
}
);
};
layerId = m003;
shapes = (
{
closed = 1;
nodes = (
(294,-6,o),
(360,9,o),
(403,32,cs),
(460,62,o),
(496,118,o),
(496,184,cs),
(496,254,o),
(455,295,o),
(382,295,cs),
(318,295,o),
(251,264,o),
(208,204,c),
(225,209,l),
(262,299,o),
(288,412,o),
(288,517,cs),
(288,631,o),
(258,725,o),
(163,725,cs),
(102,725,o),
(64,689,o),
(46,600,cs),
(35,544,o),
(25,434,o),
(25,323,cs),
(25,188,o),
(36,118,o),
(64,70,cs),
(93,19,o),
(143,-6,o),
(234,-6,cs)
);
}
);
width = 501;
},
{
anchors = (
{
name = bottom;
pos = (231,0);
},
{
name = center;
pos = (231,365);
},
{
name = top;
pos = (231,730);
},
{
name = topright;
pos = (461,730);
}
);
background = {
shapes = (
{
closed = 1;
nodes = (
(214,736,o),
(111,712,o),
(62,645,cs),
(28,599,o),
(5,514,o),
(5,323,cs),
(5,188,o),
(16,118,o),
(44,70,cs),
(73,20,o),
(119,-6,o),
(219,-6,cs),
(290,-6,o),
(371,7,o),
(416,29,cs),
(459,50,o),
(476,84,o),
(476,132,cs),
(476,208,o),
(435,239,o),
(350,239,cs),
(295,239,o),
(224,229,o),
(178,214,c),
(183,199,l),
(205,233,o),
(205,289,o),
(188,323,c),
(172,293,l),
(224,285,o),
(276,283,o),
(329,286,cs),
(417,291,o),
(453,324,o),
(453,376,cs),
(453,424,o),
(422,461,o),
(336,461,cs),
(285,461,o),
(214,454,o),
(175,445,c),
(191,436,l),
(198,475,o),
(198,514,o),
(189,541,c),
(179,508,l),
(228,503,o),
(275,501,o),
(311,501,cs),
(425,501,o),
(478,541,o),
(478,629,cs),
(478,695,o),
(448,736,o),
(338,736,cs)
);
}
);
};
layerId = m004;
shapes = (
{
closed = 1;
nodes = (
(253,-6,o),
(294,5,o),
(323,20,cs),
(376,48,o),
(406,93,o),
(406,154,cs),
(406,218,o),
(372,255,o),
(312,255,cs),
(270,255,o),
(226,231,o),
(198,184,c),
(205,189,l),
(242,288,o),
(268,412,o),
(268,527,cs),
(268,636,o),
(240,725,o),
(153,725,cs),
(97,725,o),
(64,689,o),
(46,600,cs),
(35,544,o),
(25,434,o),
(25,323,cs),
(25,188,o),
(36,118,o),
(64,70,cs),
(92,21,o),
(134,-6,o),
(214,-6,cs)
);
}
);
width = 411;
},
{
anchors = (
{
name = bottom;
pos = (241,0);
},
{
name = center;
pos = (241,365);
},
{
name = top;
pos = (241,730);
},
{
name = topright;
pos = (471,730);
}
);
background = {
shapes = (
{
closed = 1;
nodes = (
(284,-6,o),
(350,9,o),
(393,32,cs),
(450,62,o),
(486,118,o),
(486,184,cs),
(486,254,o),
(445,295,o),
(372,295,cs),
(308,295,o),
(241,264,o),
(198,204,c),
(215,209,l),
(252,299,o),
(278,412,o),
(278,517,cs),
(278,631,o),
(248,725,o),
(153,725,cs),
(92,725,o),
(54,689,o),
(36,600,cs),
(25,544,o),
(15,434,o),
(15,323,cs),
(15,188,o),
(26,118,o),
(54,70,cs),
(83,19,o),
(133,-6,o),
(224,-6,cs)
);
}
);
};
layerId = m005;
shapes = (
{
closed = 1;
nodes = (
(231,-6,o),
(282,7,o),
(314,22,cs),
(356,41,o),
(376,67,o),
(376,94,cs),
(376,123,o),
(361,140,o),
(329,140,cs),
(281,140,o),
(196,109,o),
(131,64,c),
(148,39,l),
(167,197,o),
(178,393,o),
(178,577,cs),
(178,658,o),
(167,725,o),
(133,725,cs),
(103,725,o),
(85,701,o),
(76,640,cs),
(67,586,o),
(65,480,o),
(65,373,cs),
(65,212,o),
(76,123,o),
(96,68,cs),
(115,16,o),
(141,-6,o),
(194,-6,cs)
);
}
);
width = 396;
},
{
anchors = (
{
name = bottom;
pos = (256,0);
},
{
name = center;
pos = (256,365);
},
{
name = top;
pos = (256,730);
},
{
name = topright;
pos = (486,730);
}
);
layerId = "20287304-65DA-4A3E-87C7-7BCC59C17C0B";
shapes = (
{
closed = 1;
nodes = (
(299,-6,o),
(384,13,o),
(434,36,cs),
(494,64,o),
(526,96,o),
(526,124,cs),
(526,149,o),
(510,163,o),
(472,163,cs),
(397,163,o),
(264,123,o),
(161,64,c),
(171,39,l),
(185,197,o),
(193,393,o),
(193,577,cs),
(193,658,o),
(182,725,o),
(148,725,cs),
(118,725,o),
(100,701,o),
(91,640,cs),
(82,586,o),
(80,480,o),
(80,373,cs),
(80,212,o),
(94,108,o),
(111,67,cs),
(135,10,o),
(161,-6,o),
(239,-6,cs)
);
}
);
width = 553.5;
},
{
anchors = (
{
name = bottom;
pos = (261,0);
},
{
name = center;
pos = (261,365);
},
{
name = top;
pos = (261,730);
},
{
name = topright;
pos = (491,730);
}
);
layerId = "4BA625B0-8927-4B2E-B2D8-0167ED5E0445";
shapes = (
{
closed = 1;
nodes = (
(315,-6,o),
(393,11,o),
(443,38,cs),
(502,69,o),
(541,131,o),
(541,199,cs),
(541,272,o),
(497,315,o),
(417,315,cs),
(342,315,o),
(264,281,o),
(213,214,c),
(235,219,l),
(272,305,o),
(298,412,o),
(298,512,cs),
(298,629,o),
(267,725,o),
(168,725,cs),
(105,725,o),
(64,689,o),
(46,600,cs),
(35,544,o),
(25,434,o),
(25,323,cs),
(25,188,o),
(36,118,o),
(64,70,cs),
(94,18,o),
(148,-6,o),
(244,-6,cs)
);
}
);
width = 546;
}
);
metricLeft = H;
unicode = 76;
},
{
glyphname = M;
lastChange = "2021-08-24 12:41:41 +0000";
layers = (
{
anchors = (
{
name = bottom;
pos = (348,0);
},
{
name = top;
pos = (348,730);
}
);
background = {
shapes = (
{
closed = 1;
nodes = (
(25,66,o),
(63,19,o),
(145,19,cs),
(237,19,o),
(264,92,o),
(264,184,cs),
(264,249,o),
(248,359,o),
(229,439,c),
(231,439,l),
(267,297,o),
(297,265,o),
(341,265,cs),
(389,265,o),
(428,311,o),
(461,427,c),
(463,427,l),
(440,336,o),
(421,231,o),
(421,148,cs),
(421,25,o),
(466,-8,o),
(536,-8,cs),
(618,-8,o),
(671,42,o),
(671,179,cs),
(671,310,o),
(655,485,o),
(629,595,cs),
(608,686,o),
(576,738,o),
(512,738,cs),
(453,738,o),
(391,669,o),
(340,481,c),
(353,486,l),
(298,664,o),
(245,719,o),
(172,719,cs),
(110,719,o),
(76,676,o),
(57,564,cs),
(40,464,o),
(25,284,o),
(25,185,cs)
);
}
);
};
layerId = m01;
shapes = (
{
closed = 1;
nodes = (
(75,55,o),
(94,19,o),
(135,19,cs),
(181,19,o),
(194,74,o),
(194,144,cs),
(194,268,o),
(192,477,o),
(186,629,c),
(188,629,l),
(240,398,o),
(281,315,o),
(341,315,cs),
(405,315,o),
(457,426,o),
(501,627,c),
(503,627,l),
(496,458,o),
(491,262,o),
(491,108,cs),
(491,17,o),
(513,-8,o),
(546,-8,cs),
(592,-8,o),
(621,31,o),
(621,139,cs),
(621,295,o),
(609,505,o),
(579,635,cs),
(564,700,o),
(549,738,o),
(512,738,cs),
(463,738,o),
(411,642,o),
(340,381,c),
(353,386,l),
(278,640,o),
(225,719,o),
(172,719,cs),
(137,719,o),
(121,687,o),
(107,604,cs),
(87,484,o),
(75,265,o),
(75,145,cs)
);
}
);
width = 696;
},
{
anchors = (
{
name = bottom;
pos = (348,0);
},
{
name = top;
pos = (348,730);
}
);
layerId = m003;
shapes = (
{
closed = 1;
nodes = (
(25,66,o),
(63,19,o),
(145,19,cs),
(237,19,o),
(264,92,o),
(264,184,cs),
(264,259,o),
(241,386,o),
(229,479,c),
(231,479,l),
(267,304,o),
(297,265,o),
(341,265,cs),
(389,265,o),
(428,322,o),
(461,467,c),
(463,467,l),
(445,363,o),
(421,243,o),
(421,148,cs),
(421,25,o),
(466,-8,o),
(536,-8,cs),
(618,-8,o),
(671,42,o),
(671,179,cs),
(671,310,o),
(655,485,o),
(629,595,cs),
(608,686,o),
(576,738,o),
(512,738,cs),
(453,738,o),
(391,669,o),
(340,481,c),
(353,486,l),
(298,664,o),
(245,719,o),
(172,719,cs),
(110,719,o),
(76,676,o),
(57,564,cs),
(40,464,o),
(25,284,o),
(25,185,cs)
);
}
);
width = 696;
},
{
anchors = (
{
name = bottom;
pos = (308,0);
},
{
name = top;
pos = (308,730);
}
);
layerId = m004;
shapes = (
{
closed = 1;
nodes = (
(25,66,o),
(60,19,o),
(135,19,cs),
(219,19,o),
(244,92,o),
(244,184,cs),
(244,259,o),
(218,386,o),
(209,479,c),
(211,479,l),
(240,304,o),
(265,265,o),
(301,265,cs),
(341,265,o),
(374,322,o),
(401,467,c),
(403,467,l),
(387,363,o),
(361,243,o),
(361,148,cs),
(361,25,o),
(402,-8,o),
(466,-8,cs),
(542,-8,o),
(591,42,o),
(591,179,cs),
(591,310,o),
(575,485,o),
(549,595,cs),
(528,686,o),
(501,738,o),
(442,738,cs),
(383,738,o),
(342,658,o),
(300,441,c),
(313,446,l),
(267,655,o),
(223,719,o),
(162,719,cs),
(105,719,o),
(76,676,o),
(57,564,cs),
(40,464,o),
(25,284,o),
(25,185,cs)
);
}
);
width = 616;
},
{
anchors = (
{
name = bottom;
pos = (308,0);
},
{
name = top;
pos = (308,730);
}
);
background = {
shapes = (
{
closed = 1;
nodes = (
(-15,66,o),
(23,19,o),
(105,19,cs),
(197,19,o),
(224,92,o),
(224,184,cs),
(224,249,o),
(208,359,o),
(189,439,c),
(191,439,l),
(227,297,o),
(257,265,o),
(301,265,cs),
(349,265,o),
(388,311,o),
(421,427,c),
(423,427,l),
(400,336,o),
(381,231,o),
(381,148,cs),
(381,25,o),
(426,-8,o),
(496,-8,cs),
(578,-8,o),
(631,42,o),
(631,179,cs),
(631,310,o),
(615,485,o),
(589,595,cs),
(568,686,o),
(536,738,o),
(472,738,cs),
(413,738,o),
(351,669,o),
(300,481,c),
(313,486,l),
(258,664,o),
(205,719,o),
(132,719,cs),
(70,719,o),
(36,676,o),
(17,564,cs),
(0,464,o),
(-15,284,o),
(-15,185,cs)
);
}
);
};
layerId = m005;
shapes = (
{
closed = 1;
nodes = (
(65,55,o),
(84,19,o),
(125,19,cs),
(171,19,o),
(184,74,o),
(184,144,cs),
(184,268,o),
(182,477,o),
(176,629,c),
(178,629,l),
(213,398,o),
(249,315,o),
(301,315,cs),
(357,315,o),
(403,426,o),
(431,627,c),
(433,627,l),
(426,458,o),
(421,262,o),
(421,108,cs),
(421,17,o),
(443,-8,o),
(476,-8,cs),
(522,-8,o),
(551,31,o),
(551,139,cs),
(551,295,o),
(539,505,o),
(509,635,cs),
(494,700,o),
(479,738,o),
(442,738,cs),
(399,738,o),
(363,642,o),
(300,381,c),
(313,386,l),
(246,640,o),
(209,719,o),
(162,719,cs),
(127,719,o),
(111,687,o),
(97,604,cs),
(77,484,o),
(65,265,o),
(65,145,cs)
);
}
);
width = 616;
},
{
anchors = (
{
name = bottom;
pos = (368,0);
},
{
name = top;
pos = (368,730);
}
);
layerId = "20287304-65DA-4A3E-87C7-7BCC59C17C0B";
shapes = (
{
closed = 1;
nodes = (
(80,55,o),
(99,19,o),
(140,19,cs),
(186,19,o),
(199,74,o),
(199,144,cs),
(199,268,o),
(197,477,o),
(191,629,c),
(193,629,l),
(254,398,o),
(297,315,o),
(361,315,cs),
(429,315,o),
(484,426,o),
(536,627,c),
(538,627,l),
(531,458,o),
(526,262,o),
(526,108,cs),
(526,17,o),
(548,-8,o),
(581,-8,cs),
(627,-8,o),
(656,31,o),
(656,139,cs),
(656,295,o),
(644,505,o),
(614,635,cs),
(599,700,o),
(584,738,o),
(547,738,cs),
(495,738,o),
(435,642,o),
(360,381,c),
(373,386,l),
(294,640,o),
(233,719,o),
(177,719,cs),
(142,719,o),
(126,687,o),
(112,604,cs),
(92,484,o),
(80,265,o),
(80,145,cs)
);
}
);
width = 736;
},
{
anchors = (
{
name = bottom;
pos = (368,0);
},
{
name = top;
pos = (368,730);
}
);
layerId = "4BA625B0-8927-4B2E-B2D8-0167ED5E0445";
shapes = (
{
closed = 1;
nodes = (
(25,66,o),
(65,19,o),
(150,19,cs),
(246,19,o),
(274,92,o),
(274,184,cs),
(274,259,o),
(253,386,o),
(239,479,c),
(241,479,l),
(281,304,o),
(313,265,o),
(361,265,cs),
(413,265,o),
(455,322,o),
(491,467,c),
(493,467,l),
(474,363,o),
(451,243,o),
(451,148,cs),
(451,25,o),
(498,-8,o),
(571,-8,cs),
(656,-8,o),
(711,42,o),
(711,179,cs),
(711,310,o),
(695,485,o),
(669,595,cs),
(648,686,o),
(614,738,o),
(547,738,cs),
(488,738,o),
(416,675,o),
(360,501,c),
(373,506,l),
(314,669,o),
(256,719,o),
(177,719,cs),
(113,719,o),
(76,676,o),
(57,564,cs),
(40,464,o),
(25,284,o),
(25,185,cs)
);
}
);
width = 736;
}
);
metricLeft = H;
metricRight = H;
unicode = 77;
},
{
glyphname = N;
lastChange = "2021-08-24 12:41:41 +0000";
layers = (
{
anchors = (
{
name = bottom;
pos = (326,0);
},
{
name = top;
pos = (326,730);
}
);
background = {
shapes = (
{
closed = 1;
nodes = (
(92,711,o),
(62,642,o),
(46,512,cs),
(32,400,o),
(25,263,o),
(25,173,cs),
(25,50,o),
(59,-7,o),
(148,-7,cs),
(231,-7,o),
(270,44,o),
(270,178,cs),
(270,266,o),
(255,392,o),
(237,468,c),
(241,468,l),
(357,65,o),
(401,10,o),
(510,10,cs),
(604,10,o),
(626,103,o),
(626,313,cs),
(626,471,o),
(615,597,o),
(583,668,cs),
(563,713,o),
(535,738,o),
(486,738,cs),
(420,738,o),
(383,690,o),
(383,580,cs),
(383,516,o),
(397,388,o),
(413,301,c),
(409,301,l),
(319,629,o),
(263,711,o),
(172,711,cs)
);
}
);
};
layerId = m01;
shapes = (
{
closed = 1;
nodes = (
(124,711,o),
(110,673,o),
(98,572,cs),
(81,434,o),
(75,264,o),
(75,153,cs),
(75,44,o),
(92,-7,o),
(138,-7,cs),
(177,-7,o),
(195,38,o),
(195,158,cs),
(195,295,o),
(185,490,o),
(172,608,c),
(176,608,l),
(291,241,o),
(397,10,o),
(480,10,cs),
(558,10,o),
(576,123,o),
(576,313,cs),
(576,484,o),
(563,622,o),
(533,698,cs),
(522,725,o),
(510,738,o),
(486,738,cs),
(452,738,o),
(438,698,o),
(438,590,cs),
(438,482,o),
(457,267,o),
(478,121,c),
(474,121,l),
(338,489,o),
(245,711,o),
(172,711,cs)
);
}
);
width = 651;
},
{
anchors = (
{
name = bottom;
pos = (326,0);
},
{
name = top;
pos = (326,730);
}
);
layerId = m003;
shapes = (
{
closed = 1;
nodes = (
(92,711,o),
(62,642,o),
(46,512,cs),
(32,400,o),
(25,263,o),
(25,173,cs),
(25,50,o),
(59,-7,o),
(148,-7,cs),
(231,-7,o),
(270,44,o),
(270,178,cs),
(270,266,o),
(255,392,o),
(237,468,c),
(241,468,l),
(357,65,o),
(401,10,o),
(510,10,cs),
(604,10,o),
(626,103,o),
(626,313,cs),
(626,471,o),
(615,597,o),
(583,668,cs),
(563,713,o),
(535,738,o),
(486,738,cs),
(420,738,o),
(383,690,o),
(383,580,cs),
(383,516,o),
(397,388,o),
(413,301,c),
(409,301,l),
(319,629,o),
(263,711,o),
(172,711,cs)
);
}
);
width = 651;
},
{
anchors = (
{
name = bottom;
pos = (306,0);
},
{
name = top;
pos = (306,730);
}
);
layerId = m004;
shapes = (
{
closed = 1;
nodes = (
(85,711,o),
(62,642,o),
(46,512,cs),
(32,397,o),
(25,256,o),
(25,163,cs),
(25,47,o),
(56,-7,o),
(138,-7,cs),
(214,-7,o),
(250,41,o),
(250,168,cs),
(250,271,o),
(235,409,o),
(217,508,c),
(221,508,l),
(333,70,o),
(375,10,o),
(480,10,cs),
(566,10,o),
(586,103,o),
(586,313,cs),
(586,471,o),
(575,597,o),
(543,668,cs),
(523,712,o),
(500,738,o),
(456,738,cs),
(396,738,o),
(363,693,o),
(363,590,cs),
(363,515,o),
(377,373,o),
(393,261,c),
(389,261,l),
(299,621,o),
(243,711,o),
(152,711,cs)
);
}
);
width = 611;
},
{
anchors = (
{
name = bottom;
pos = (286,0);
},
{
name = top;
pos = (286,730);
}
);
background = {
shapes = (
{
closed = 1;
nodes = (
(52,711,o),
(22,642,o),
(6,512,cs),
(-8,400,o),
(-15,263,o),
(-15,173,cs),
(-15,50,o),
(19,-7,o),
(108,-7,cs),
(191,-7,o),
(230,44,o),
(230,178,cs),
(230,266,o),
(215,392,o),
(197,468,c),
(201,468,l),
(317,65,o),
(361,10,o),
(470,10,cs),
(564,10,o),
(586,103,o),
(586,313,cs),
(586,471,o),
(575,597,o),
(543,668,cs),
(523,713,o),
(495,738,o),
(446,738,cs),
(380,738,o),
(343,690,o),
(343,580,cs),
(343,516,o),
(357,388,o),
(373,301,c),
(369,301,l),
(279,629,o),
(223,711,o),
(132,711,cs)
);
}
);
};
layerId = m005;
shapes = (
{
closed = 1;
nodes = (
(114,711,o),
(100,673,o),
(88,572,cs),
(71,434,o),
(65,264,o),
(65,153,cs),
(65,44,o),
(82,-7,o),
(128,-7,cs),
(164,-7,o),
(180,38,o),
(180,158,cs),
(180,295,o),
(172,490,o),
(162,608,c),
(166,608,l),
(248,241,o),
(343,10,o),
(410,10,cs),
(488,10,o),
(506,123,o),
(506,313,cs),
(506,484,o),
(493,622,o),
(463,698,cs),
(452,725,o),
(440,738,o),
(416,738,cs),
(386,738,o),
(373,698,o),
(373,590,cs),
(373,482,o),
(390,267,o),
(408,121,c),
(404,121,l),
(305,489,o),
(220,711,o),
(162,711,cs)
);
}
);
width = 571;
},
{
anchors = (
{
name = bottom;
pos = (346,0);
},
{
name = top;
pos = (346,730);
}
);
layerId = "20287304-65DA-4A3E-87C7-7BCC59C17C0B";
shapes = (
{
closed = 1;
nodes = (
(129,711,o),
(115,673,o),
(103,572,cs),
(86,434,o),
(80,264,o),
(80,153,cs),
(80,44,o),
(97,-7,o),
(143,-7,cs),
(184,-7,o),
(203,38,o),
(203,158,cs),
(203,295,o),
(192,490,o),
(177,608,c),
(181,608,l),
(313,241,o),
(424,10,o),
(515,10,cs),
(593,10,o),
(611,123,o),
(611,313,cs),
(611,484,o),
(598,622,o),
(568,698,cs),
(557,725,o),
(545,738,o),
(521,738,cs),
(485,738,o),
(471,698,o),
(471,590,cs),
(471,482,o),
(491,267,o),
(513,121,c),
(509,121,l),
(355,489,o),
(258,711,o),
(177,711,cs)
);
}
);
width = 691;
},
{
anchors = (
{
name = bottom;
pos = (336,0);
},
{
name = top;
pos = (336,730);
}
);
layerId = "4BA625B0-8927-4B2E-B2D8-0167ED5E0445";
shapes = (
{
closed = 1;
nodes = (
(96,711,o),
(62,642,o),
(46,512,cs),
(32,402,o),
(25,267,o),
(25,178,cs),
(25,52,o),
(61,-7,o),
(153,-7,cs),
(240,-7,o),
(280,46,o),
(280,183,cs),
(280,264,o),
(265,384,o),
(247,448,c),
(251,448,l),
(369,63,o),
(414,10,o),
(525,10,cs),
(623,10,o),
(646,103,o),
(646,313,cs),
(646,471,o),
(635,597,o),
(603,668,cs),
(583,714,o),
(553,738,o),
(501,738,cs),
(432,738,o),
(393,689,o),
(393,575,cs),
(393,517,o),
(407,396,o),
(423,321,c),
(419,321,l),
(329,633,o),
(273,711,o),
(182,711,cs)
);
}
);
width = 671;
}
);
metricLeft = H;
metricRight = H;
unicode = 78;
},
{
glyphname = O;
lastChange = "2021-08-24 12:43:17 +0000";
layers = (
{
anchors = (
{
name = bottom;
pos = (331,0);
},
{
name = center;
pos = (331,365);
},
{
name = ogonek;
pos = (611,10);
},
{
name = top;
pos = (331,689);
},
{
name = topleft;
pos = (0,730);
},
{
name = topright;
pos = (661,730);
}
);
background = {
shapes = (
{
closed = 1;
nodes = (
(529,7,o),
(666,134,o),
(666,340,cs),
(666,553,o),
(530,698,o),
(321,698,cs),
(123,698,o),
(-5,549,o),
(-5,329,cs),
(-5,130,o),
(121,7,o),
(317,7,cs)
);
},
{
closed = 1;
nodes = (
(276,271,o),
(238,316,o),
(238,386,cs),
(238,456,o),
(276,501,o),
(334,501,cs),
(392,501,o),
(430,456,o),
(430,386,cs),
(430,316,o),
(392,271,o),
(334,271,cs)
);
}
);
};
layerId = m01;
shapes = (
{
closed = 1;
nodes = (
(494,7,o),
(606,134,o),
(606,340,cs),
(606,553,o),
(494,698,o),
(323,698,cs),
(160,698,o),
(55,549,o),
(55,329,cs),
(55,130,o),
(158,7,o),
(319,7,cs)
);
},
{
closed = 1;
nodes = (
(232,111,o),
(166,207,o),
(166,356,cs),
(166,505,o),
(232,601,o),
(332,601,cs),
(432,601,o),
(498,505,o),
(498,356,cs),
(498,207,o),
(432,111,o),
(332,111,cs)
);
}
);
width = 661;
},
{
anchors = (
{
name = bottom;
pos = (351,0);
},
{
name = center;
pos = (351,365);
},
{
name = ogonek;
pos = (631,10);
},
{
name = top;
pos = (351,689);
},
{
name = topleft;
pos = (20,730);
},
{
name = topright;
pos = (681,730);
}
);
layerId = m003;
shapes = (
{
closed = 1;
nodes = (
(549,7,o),
(686,134,o),
(686,340,cs),
(686,553,o),
(550,698,o),
(341,698,cs),
(143,698,o),
(15,549,o),
(15,329,cs),
(15,130,o),
(141,7,o),
(337,7,cs)
);
},
{
closed = 1;
nodes = (
(296,271,o),
(258,316,o),
(258,386,cs),
(258,456,o),
(296,501,o),
(354,501,cs),
(412,501,o),
(450,456,o),
(450,386,cs),
(450,316,o),
(412,271,o),
(354,271,cs)
);
}
);
width = 701;
},
{
anchors = (
{
name = bottom;
pos = (281,0);
},
{
name = center;
pos = (281,365);
},
{
name = ogonek;
pos = (561,10);
},
{
name = top;
pos = (281,689);
},
{
name = topleft;
pos = (-50,730);
},
{
name = topright;
pos = (611,730);
}
);
layerId = m004;
shapes = (
{
closed = 1;
nodes = (
(436,7,o),
(546,134,o),
(546,340,cs),
(546,553,o),
(437,698,o),
(271,698,cs),
(115,698,o),
(15,549,o),
(15,329,cs),
(15,130,o),
(113,7,o),
(266,7,cs)
);
},
{
closed = 1;
nodes = (
(256,251,o),
(238,280,o),
(238,386,cs),
(238,492,o),
(256,521,o),
(284,521,cs),
(312,521,o),
(330,492,o),
(330,386,cs),
(330,280,o),
(312,251,o),
(284,251,cs)
);
}
);
width = 561;
},
{
anchors = (
{
name = bottom;
pos = (251,0);
},
{
name = center;
pos = (251,365);
},
{
name = ogonek;
pos = (531,10);
},
{
name = top;
pos = (251,689);
},
{
name = topleft;
pos = (-80,730);
},
{
name = topright;
pos = (581,730);
}
);
background = {
shapes = (
{
closed = 1;
nodes = (
(449,7,o),
(586,134,o),
(586,340,cs),
(586,553,o),
(450,698,o),
(241,698,cs),
(43,698,o),
(-85,549,o),
(-85,329,cs),
(-85,130,o),
(41,7,o),
(237,7,cs)
);
},
{
closed = 1;
nodes = (
(196,271,o),
(158,316,o),
(158,386,cs),
(158,456,o),
(196,501,o),
(254,501,cs),
(312,501,o),
(350,456,o),
(350,386,cs),
(350,316,o),
(312,271,o),
(254,271,cs)
);
}
);
};
layerId = m005;
shapes = (
{
closed = 1;
nodes = (
(377,7,o),
(456,134,o),
(456,340,cs),
(456,553,o),
(377,698,o),
(243,698,cs),
(117,698,o),
(45,549,o),
(45,329,cs),
(45,130,o),
(115,7,o),
(239,7,cs)
);
},
{
closed = 1;
nodes = (
(189,111,o),
(156,207,o),
(156,356,cs),
(156,505,o),
(189,601,o),
(252,601,cs),
(315,601,o),
(348,505,o),
(348,356,cs),
(348,207,o),
(315,111,o),
(252,111,cs)
);
}
);
width = 501;
},
{
anchors = (
{
name = bottom;
pos = (371,0);
},
{
name = center;
pos = (371,365);
},
{
name = ogonek;
pos = (651,10);
},
{
name = top;
pos = (371,689);
},
{
name = topleft;
pos = (40,730);
},
{
name = topright;
pos = (701,730);
}
);
layerId = "20287304-65DA-4A3E-87C7-7BCC59C17C0B";
shapes = (
{
closed = 1;
nodes = (
(553,7,o),
(681,134,o),
(681,340,cs),
(681,553,o),
(553,698,o),
(363,698,cs),
(182,698,o),
(60,549,o),
(60,329,cs),
(60,130,o),
(180,7,o),
(359,7,cs)
);
},
{
closed = 1;
nodes = (
(254,111,o),
(171,207,o),
(171,356,cs),
(171,505,o),
(254,601,o),
(372,601,cs),
(491,601,o),
(573,505,o),
(573,356,cs),
(573,207,o),
(491,111,o),
(372,111,cs)
);
}
);
width = 741;
},
{
anchors = (
{
name = bottom;
pos = (386,0);
},
{
name = center;
pos = (386,365);
},
{
name = ogonek;
pos = (666,10);
},
{
name = top;
pos = (386,689);
},
{
name = topleft;
pos = (55,730);
},
{
name = topright;
pos = (716,730);
}
);
layerId = "4BA625B0-8927-4B2E-B2D8-0167ED5E0445";
shapes = (
{
closed = 1;
nodes = (
(606,7,o),
(756,134,o),
(756,340,cs),
(756,553,o),
(607,698,o),
(376,698,cs),
(157,698,o),
(15,549,o),
(15,329,cs),
(15,130,o),
(155,7,o),
(373,7,cs)
);
},
{
closed = 1;
nodes = (
(316,281,o),
(268,326,o),
(268,386,cs),
(268,446,o),
(316,491,o),
(389,491,cs),
(462,491,o),
(510,446,o),
(510,386,cs),
(510,326,o),
(462,281,o),
(389,281,cs)
);
}
);
width = 771;
}
);
metricRight = "=|";
unicode = 79;
},
{
glyphname = P;
lastChange = "2021-08-24 12:42:46 +0000";
layers = (
{
anchors = (
{
name = bottom;
pos = (278,0);
},
{
name = top;
pos = (278,730);
}
);
background = {
shapes = (
{
closed = 1;
nodes = (
(201,719,o),
(123,673,o),
(85,604,cs),
(46,533,o),
(25,415,o),
(25,247,cs),
(25,60,o),
(52,-7,o),
(151,-7,cs),
(236,-7,o),
(280,44,o),
(280,137,cs),
(280,195,o),
(269,277,o),
(254,322,c),
(240,294,l),
(273,280,o),
(304,275,o),
(332,275,cs),
(452,275,o),
(545,362,o),
(545,498,cs),
(545,630,o),
(473,719,o),
(318,719,cs)
);
},
{
closed = 1;
nodes = (
(260,414,o),
(238,440,o),
(238,476,cs),
(238,531,o),
(279,582,o),
(339,582,cs),
(383,582,o),
(399,554,o),
(399,517,cs),
(399,454,o),
(358,414,o),
(304,414,cs)
);
}
);
};
layerId = m01;
shapes = (
{
closed = 1;
nodes = (
(226,719,o),
(166,680,o),
(135,624,cs),
(89,541,o),
(75,393,o),
(75,187,cs),
(75,44,o),
(89,-7,o),
(141,-7,cs),
(180,-7,o),
(200,33,o),
(200,107,cs),
(200,174,o),
(189,270,o),
(174,322,c),
(170,314,l),
(217,283,o),
(262,275,o),
(302,275,cs),
(428,275,o),
(525,362,o),
(525,498,cs),
(525,630,o),
(459,719,o),
(318,719,cs)
);
},
{
closed = 1;
nodes = (
(232,384,o),
(203,405,o),
(203,462,cs),
(203,557,o),
(247,622,o),
(325,622,cs),
(391,622,o),
(424,578,o),
(424,520,cs),
(424,431,o),
(373,384,o),
(299,384,cs)
);
}
);
width = 555;
},
{
anchors = (
{
name = bottom;
pos = (278,0);
},
{
name = top;
pos = (278,730);
}
);
layerId = m003;
shapes = (
{
closed = 1;
nodes = (
(201,719,o),
(123,673,o),
(85,604,cs),
(46,533,o),
(25,415,o),
(25,247,cs),
(25,60,o),
(52,-7,o),
(151,-7,cs),
(236,-7,o),
(280,44,o),
(280,137,cs),
(280,195,o),
(269,277,o),
(254,322,c),
(240,294,l),
(273,280,o),
(304,275,o),
(332,275,cs),
(452,275,o),
(545,362,o),
(545,498,cs),
(545,630,o),
(473,719,o),
(318,719,cs)
);
},
{
closed = 1;
nodes = (
(260,414,o),
(238,440,o),
(238,476,cs),
(238,531,o),
(279,582,o),
(339,582,cs),
(383,582,o),
(399,554,o),
(399,517,cs),
(399,454,o),
(358,414,o),
(304,414,cs)
);
}
);
width = 555;
},
{
anchors = (
{
name = bottom;
pos = (278,0);
},
{
name = top;
pos = (278,730);
}
);
layerId = m004;
shapes = (
{
closed = 1;
nodes = (
(176,719,o),
(121,669,o),
(85,604,cs),
(46,533,o),
(25,415,o),
(25,247,cs),
(25,60,o),
(50,-7,o),
(141,-7,cs),
(219,-7,o),
(260,44,o),
(260,137,cs),
(260,195,o),
(249,277,o),
(234,322,c),
(210,294,l),
(232,280,o),
(253,275,o),
(272,275,cs),
(375,275,o),
(455,362,o),
(455,498,cs),
(455,630,o),
(396,719,o),
(268,719,cs)
);
},
{
closed = 1;
nodes = (
(230,404,o),
(218,430,o),
(218,466,cs),
(218,531,o),
(245,592,o),
(284,592,cs),
(310,592,o),
(319,564,o),
(319,527,cs),
(319,452,o),
(291,404,o),
(254,404,cs)
);
}
);
width = 465;
},
{
anchors = (
{
name = bottom;
pos = (238,0);
},
{
name = top;
pos = (238,730);
}
);
background = {
shapes = (
{
closed = 1;
nodes = (
(161,719,o),
(83,673,o),
(45,604,cs),
(6,533,o),
(-15,415,o),
(-15,247,cs),
(-15,60,o),
(12,-7,o),
(111,-7,cs),
(196,-7,o),
(240,44,o),
(240,137,cs),
(240,195,o),
(229,277,o),
(214,322,c),
(200,294,l),
(233,280,o),
(264,275,o),
(292,275,cs),
(412,275,o),
(505,362,o),
(505,498,cs),
(505,630,o),
(433,719,o),
(278,719,cs)
);
},
{
closed = 1;
nodes = (
(220,414,o),
(198,440,o),
(198,476,cs),
(198,531,o),
(239,582,o),
(299,582,cs),
(343,582,o),
(359,554,o),
(359,517,cs),
(359,454,o),
(318,414,o),
(264,414,cs)
);
}
);
};
layerId = m005;
shapes = (
{
closed = 1;
nodes = (
(196,719,o),
(154,677,o),
(125,624,cs),
(79,541,o),
(65,393,o),
(65,187,cs),
(65,44,o),
(79,-7,o),
(131,-7,cs),
(170,-7,o),
(190,33,o),
(190,107,cs),
(190,174,o),
(179,270,o),
(164,322,c),
(160,314,l),
(193,283,o),
(224,275,o),
(252,275,cs),
(355,275,o),
(435,362,o),
(435,498,cs),
(435,630,o),
(382,719,o),
(268,719,cs)
);
},
{
closed = 1;
nodes = (
(210,384,o),
(193,405,o),
(193,462,cs),
(193,557,o),
(223,622,o),
(275,622,cs),
(314,622,o),
(334,578,o),
(334,520,cs),
(334,431,o),
(299,384,o),
(249,384,cs)
);
}
);
width = 465;
},
{
anchors = (
{
name = bottom;
pos = (298,0);
},
{
name = top;
pos = (298,730);
}
);
layerId = "20287304-65DA-4A3E-87C7-7BCC59C17C0B";
shapes = (
{
closed = 1;
nodes = (
(241,719,o),
(172,682,o),
(140,624,cs),
(94,541,o),
(80,393,o),
(80,187,cs),
(80,44,o),
(94,-7,o),
(146,-7,cs),
(185,-7,o),
(205,33,o),
(205,107,cs),
(205,174,o),
(194,270,o),
(179,322,c),
(175,314,l),
(229,283,o),
(281,275,o),
(327,275,cs),
(465,275,o),
(570,362,o),
(570,498,cs),
(570,630,o),
(498,719,o),
(343,719,cs)
);
},
{
closed = 1;
nodes = (
(243,384,o),
(208,405,o),
(208,462,cs),
(208,557,o),
(259,622,o),
(350,622,cs),
(430,622,o),
(469,578,o),
(469,520,cs),
(469,431,o),
(410,384,o),
(324,384,cs)
);
}
);
width = 600;
},
{
anchors = (
{
name = bottom;
pos = (278,0);
},
{
name = top;
pos = (278,730);
}
);
layerId = "4BA625B0-8927-4B2E-B2D8-0167ED5E0445";
shapes = (
{
closed = 1;
nodes = (
(214,719,o),
(124,675,o),
(85,604,cs),
(46,533,o),
(25,415,o),
(25,247,cs),
(25,60,o),
(53,-7,o),
(156,-7,cs),
(245,-7,o),
(290,44,o),
(290,137,cs),
(290,195,o),
(279,277,o),
(264,322,c),
(255,294,l),
(294,280,o),
(330,275,o),
(362,275,cs),
(491,275,o),
(590,362,o),
(590,498,cs),
(590,630,o),
(512,719,o),
(343,719,cs)
);
},
{
closed = 1;
nodes = (
(275,419,o),
(248,445,o),
(248,481,cs),
(248,531,o),
(292,577,o),
(357,577,cs),
(417,577,o),
(439,549,o),
(439,512,cs),
(439,455,o),
(392,419,o),
(329,419,cs)
);
}
);
width = 600;
}
);
metricLeft = H;
unicode = 80;
},
{
glyphname = Q;
lastChange = "2021-08-24 12:41:41 +0000";
layers = (
{
anchors = (
{
name = bottom;
pos = (346,0);
},
{
name = top;
pos = (346,730);
}
);
background = {
shapes = (
{
closed = 1;
nodes = (
(409,7,o),
(489,33,o),
(525,86,c),
(594,152,l),
(646,203,o),
(676,285,o),
(676,380,cs),
(676,569,o),
(548,726,o),
(351,726,cs),
(147,726,o),
(15,569,o),
(15,337,cs),
(15,133,o),
(131,7,o),
(321,7,cs)
);
},
{
closed = 1;
nodes = (
(681,-18,o),
(714,24,o),
(714,70,cs),
(714,126,o),
(670,159,o),
(597,178,c),
(500,83,l),
(531,18,o),
(579,-18,o),
(623,-18,cs)
);
},
{
closed = 1;
nodes = (
(462,296,l),
(435,365,o),
(405,396,o),
(366,396,cs),
(336,396,o),
(314,377,o),
(314,344,cs),
(314,307,o),
(342,273,o),
(404,239,c)
);
},
{
closed = 1;
nodes = (
(287,251,o),
(238,308,o),
(238,396,cs),
(238,472,o),
(279,521,o),
(341,521,cs),
(409,521,o),
(454,464,o),
(454,376,cs),
(454,345,o),
(450,318,o),
(444,298,c),
(411,260,l),
(397,254,o),
(380,251,o),
(361,251,cs)
);
}
);
};
layerId = m01;
shapes = (
{
closed = 1;
nodes = (
(419,7,o),
(489,40,o),
(535,96,c),
(574,142,l),
(613,195,o),
(636,281,o),
(636,380,cs),
(636,569,o),
(524,726,o),
(351,726,cs),
(171,726,o),
(55,569,o),
(55,337,cs),
(55,133,o),
(160,7,o),
(331,7,cs)
);
},
{
closed = 1;
nodes = (
(679,-18,o),
(694,0,o),
(694,20,cs),
(694,62,o),
(643,114,o),
(557,158,c),
(510,113,l),
(565,29,o),
(611,-18,o),
(653,-18,cs)
);
},
{
closed = 1;
nodes = (
(522,186,l),
(486,268,o),
(446,316,o),
(404,316,cs),
(382,316,o),
(364,301,o),
(364,274,cs),
(364,238,o),
(410,182,o),
(484,139,c)
);
},
{
closed = 1;
nodes = (
(247,111,o),
(178,207,o),
(178,356,cs),
(178,517,o),
(247,621,o),
(351,621,cs),
(461,621,o),
(534,523,o),
(534,346,cs),
(534,283,o),
(522,229,o),
(504,188,c),
(485,169,l),
(447,128,o),
(403,111,o),
(351,111,cs)
);
}
);
width = 691;
},
{
anchors = (
{
name = bottom;
pos = (346,0);
},
{
name = top;
pos = (346,730);
}
);
background = {
shapes = (
{
closed = 1;
nodes = (
(539,7,o),
(676,134,o),
(676,340,cs),
(676,553,o),
(540,698,o),
(331,698,cs),
(133,698,o),
(5,549,o),
(5,329,cs),
(5,130,o),
(131,7,o),
(327,7,cs)
);
},
{
closed = 1;
nodes = (
(286,271,o),
(248,316,o),
(248,386,cs),
(248,456,o),
(286,501,o),
(344,501,cs),
(402,501,o),
(440,456,o),
(440,386,cs),
(440,316,o),
(402,271,o),
(344,271,cs)
);
}
);
};
layerId = m003;
shapes = (
{
closed = 1;
nodes = (
(409,7,o),
(489,33,o),
(525,86,c),
(594,152,l),
(646,203,o),
(676,285,o),
(676,380,cs),
(676,569,o),
(548,726,o),
(351,726,cs),
(147,726,o),
(15,569,o),
(15,337,cs),
(15,133,o),
(131,7,o),
(321,7,cs)
);
},
{
closed = 1;
nodes = (
(681,-18,o),
(714,24,o),
(714,70,cs),
(714,126,o),
(670,159,o),
(597,178,c),
(500,83,l),
(531,18,o),
(579,-18,o),
(623,-18,cs)
);
},
{
closed = 1;
nodes = (
(462,296,l),
(435,365,o),
(405,396,o),
(366,396,cs),
(336,396,o),
(314,377,o),
(314,344,cs),
(314,307,o),
(342,273,o),
(404,239,c)
);
},
{
closed = 1;
nodes = (
(287,251,o),
(238,308,o),
(238,396,cs),
(238,472,o),
(279,521,o),
(341,521,cs),
(409,521,o),
(454,464,o),
(454,376,cs),
(454,345,o),
(450,318,o),
(444,298,c),
(411,260,l),
(397,254,o),
(380,251,o),
(361,251,cs)
);
}
);
width = 691;
},
{
anchors = (
{
name = bottom;
pos = (276,0);
},
{
name = top;
pos = (276,730);
}
);
background = {
shapes = (
{
closed = 1;
nodes = (
(469,7,o),
(606,134,o),
(606,340,cs),
(606,553,o),
(470,698,o),
(261,698,cs),
(63,698,o),
(-65,549,o),
(-65,329,cs),
(-65,130,o),
(61,7,o),
(257,7,cs)
);
},
{
closed = 1;
nodes = (
(216,271,o),
(178,316,o),
(178,386,cs),
(178,456,o),
(216,501,o),
(274,501,cs),
(332,501,o),
(370,456,o),
(370,386,cs),
(370,316,o),
(332,271,o),
(274,271,cs)
);
}
);
};
layerId = m004;
shapes = (
{
closed = 1;
nodes = (
(337,7,o),
(398,33,o),
(425,86,c),
(474,142,l),
(513,195,o),
(536,281,o),
(536,380,cs),
(536,579,o),
(436,726,o),
(281,726,cs),
(120,726,o),
(15,579,o),
(15,337,cs),
(15,123,o),
(112,7,o),
(271,7,cs)
);
},
{
closed = 1;
nodes = (
(545,-18,o),
(574,19,o),
(574,60,cs),
(574,116,o),
(538,149,o),
(477,168,c),
(390,83,l),
(416,18,o),
(456,-18,o),
(493,-18,cs)
);
},
{
closed = 1;
nodes = (
(342,256,l),
(319,320,o),
(301,336,o),
(284,336,cs),
(270,336,o),
(259,326,o),
(259,308,cs),
(259,285,o),
(275,252,o),
(309,213,c)
);
},
{
closed = 1;
nodes = (
(247,231,o),
(218,296,o),
(218,396,cs),
(218,494,o),
(239,541,o),
(271,541,cs),
(309,541,o),
(334,476,o),
(334,376,cs),
(334,333,o),
(330,296,o),
(324,268,c),
(321,240,l),
(313,234,o),
(302,231,o),
(291,231,cs)
);
}
);
width = 551;
},
{
anchors = (
{
name = bottom;
pos = (256,0);
},
{
name = top;
pos = (256,730);
}
);
background = {
shapes = (
{
closed = 1;
nodes = (
(319,7,o),
(399,33,o),
(435,86,c),
(504,152,l),
(556,203,o),
(586,285,o),
(586,380,cs),
(586,569,o),
(458,726,o),
(261,726,cs),
(57,726,o),
(-75,569,o),
(-75,337,cs),
(-75,133,o),
(41,7,o),
(231,7,cs)
);
},
{
closed = 1;
nodes = (
(591,-18,o),
(624,24,o),
(624,70,cs),
(624,126,o),
(580,159,o),
(507,178,c),
(410,83,l),
(441,18,o),
(489,-18,o),
(533,-18,cs)
);
},
{
closed = 1;
nodes = (
(372,296,l),
(345,365,o),
(315,396,o),
(276,396,cs),
(246,396,o),
(224,377,o),
(224,344,cs),
(224,307,o),
(252,273,o),
(314,239,c)
);
},
{
closed = 1;
nodes = (
(197,251,o),
(148,308,o),
(148,396,cs),
(148,472,o),
(189,521,o),
(251,521,cs),
(319,521,o),
(364,464,o),
(364,376,cs),
(364,345,o),
(360,318,o),
(354,298,c),
(321,260,l),
(307,254,o),
(290,251,o),
(271,251,cs)
);
}
);
};
layerId = m005;
shapes = (
{
closed = 1;
nodes = (
(299,7,o),
(345,33,o),
(375,76,c),
(404,122,l),
(443,179,o),
(466,273,o),
(466,380,cs),
(466,569,o),
(385,726,o),
(261,726,cs),
(130,726,o),
(45,569,o),
(45,337,cs),
(45,133,o),
(120,7,o),
(241,7,cs)
);
},
{
closed = 1;
nodes = (
(489,-18,o),
(504,0,o),
(504,20,cs),
(504,62,o),
(460,114,o),
(387,158,c),
(340,113,l),
(387,29,o),
(427,-18,o),
(463,-18,cs)
);
},
{
closed = 1;
nodes = (
(362,176,l),
(330,258,o),
(292,306,o),
(259,306,cs),
(240,306,o),
(224,293,o),
(224,269,cs),
(224,232,o),
(260,184,o),
(324,129,c)
);
},
{
closed = 1;
nodes = (
(205,111,o),
(168,207,o),
(168,356,cs),
(168,517,o),
(205,621,o),
(261,621,cs),
(323,621,o),
(364,523,o),
(364,346,cs),
(364,279,o),
(352,222,o),
(334,178,c),
(325,159,l),
(307,125,o),
(286,111,o),
(261,111,cs)
);
}
);
width = 501;
},
{
anchors = (
{
name = bottom;
pos = (391,0);
},
{
name = top;
pos = (391,730);
}
);
layerId = "20287304-65DA-4A3E-87C7-7BCC59C17C0B";
shapes = (
{
closed = 1;
nodes = (
(479,7,o),
(561,44,o),
(615,106,c),
(659,152,l),
(698,203,o),
(721,285,o),
(721,380,cs),
(721,569,o),
(594,726,o),
(396,726,cs),
(192,726,o),
(60,569,o),
(60,337,cs),
(60,133,o),
(180,7,o),
(376,7,cs)
);
},
{
closed = 1;
nodes = (
(774,-18,o),
(789,0,o),
(789,20,cs),
(789,62,o),
(735,114,o),
(642,158,c),
(595,113,l),
(654,29,o),
(703,-18,o),
(748,-18,cs)
);
},
{
closed = 1;
nodes = (
(602,191,l),
(564,273,o),
(523,321,o),
(477,321,cs),
(453,321,o),
(434,305,o),
(434,277,cs),
(434,241,o),
(485,181,o),
(564,144,c)
);
},
{
closed = 1;
nodes = (
(268,111,o),
(183,207,o),
(183,356,cs),
(183,517,o),
(268,621,o),
(396,621,cs),
(530,621,o),
(619,523,o),
(619,346,cs),
(619,285,o),
(607,233,o),
(589,193,c),
(565,174,l),
(517,130,o),
(462,111,o),
(396,111,cs)
);
}
);
width = 786;
},
{
anchors = (
{
name = bottom;
pos = (381,0);
},
{
name = top;
pos = (381,730);
}
);
layerId = "4BA625B0-8927-4B2E-B2D8-0167ED5E0445";
shapes = (
{
closed = 1;
nodes = (
(445,7,o),
(535,33,o),
(575,86,c),
(654,157,l),
(713,207,o),
(746,287,o),
(746,380,cs),
(746,564,o),
(604,726,o),
(386,726,cs),
(161,726,o),
(15,564,o),
(15,337,cs),
(15,138,o),
(141,7,o),
(346,7,cs)
);
},
{
closed = 1;
nodes = (
(749,-18,o),
(784,27,o),
(784,75,cs),
(784,131,o),
(736,164,o),
(657,183,c),
(555,83,l),
(589,18,o),
(641,-18,o),
(688,-18,cs)
);
},
{
closed = 1;
nodes = (
(522,316,l),
(493,388,o),
(457,426,o),
(407,426,cs),
(369,426,o),
(342,403,o),
(342,362,cs),
(342,318,o),
(376,284,o),
(452,252,c)
);
},
{
closed = 1;
nodes = (
(307,261,o),
(248,314,o),
(248,396,cs),
(248,461,o),
(299,511,o),
(376,511,cs),
(459,511,o),
(514,458,o),
(514,376,cs),
(514,351,o),
(510,329,o),
(504,313,c),
(456,270,l),
(439,264,o),
(419,261,o),
(396,261,cs)
);
}
);
width = 761;
}
);
metricLeft = O;
unicode = 81;
},
{
glyphname = R;
lastChange = "2021-08-24 12:41:41 +0000";
layers = (
{
anchors = (
{
name = bottom;
pos = (305,0);
},
{
name = top;
pos = (305,730);
}
);
background = {
shapes = (
{
closed = 1;
nodes = (
(233,-7,o),
(265,43,o),
(265,137,cs),
(265,186,o),
(257,254,o),
(248,292,c),
(250,292,l),
(328,70,o),
(382,5,o),
(471,5,cs),
(545,5,o),
(590,49,o),
(590,118,cs),
(590,204,o),
(522,274,o),
(350,329,c),
(306,316,l),
(453,301,o),
(595,364,o),
(595,528,cs),
(595,654,o),
(517,739,o),
(348,739,cs),
(245,739,o),
(153,708,o),
(95,624,cs),
(45,552,o),
(20,430,o),
(20,257,cs),
(20,63,o),
(47,-7,o),
(146,-7,cs)
);
},
{
closed = 1;
nodes = (
(275,434,o),
(250,463,o),
(250,504,cs),
(250,550,o),
(282,592,o),
(331,592,cs),
(374,592,o),
(393,560,o),
(393,518,cs),
(393,466,o),
(362,434,o),
(317,434,cs)
);
}
);
};
layerId = m01;
shapes = (
{
closed = 1;
nodes = (
(180,-7,o),
(195,29,o),
(195,97,cs),
(195,159,o),
(187,244,o),
(178,292,c),
(180,292,l),
(326,80,o),
(437,5,o),
(501,5,cs),
(532,5,o),
(550,22,o),
(550,48,cs),
(550,104,o),
(462,200,o),
(250,314,c),
(250,316,l),
(418,291,o),
(555,367,o),
(555,538,cs),
(555,658,o),
(490,739,o),
(348,739,cs),
(267,739,o),
(197,712,o),
(150,644,cs),
(92,560,o),
(75,402,o),
(75,187,cs),
(75,44,o),
(89,-7,o),
(141,-7,cs)
);
},
{
closed = 1;
nodes = (
(229,394,o),
(200,433,o),
(200,488,cs),
(200,569,o),
(244,642,o),
(328,642,cs),
(407,642,o),
(448,598,o),
(448,531,cs),
(448,446,o),
(378,394,o),
(294,394,cs)
);
}
);
width = 615;
},
{
anchors = (
{
name = bottom;
pos = (310,0);
},
{
name = top;
pos = (310,730);
}
);
background = {
shapes = (
{
closed = 1;
nodes = (
(238,-7,o),
(270,43,o),
(270,137,cs),
(270,186,o),
(262,254,o),
(253,292,c),
(255,292,l),
(333,70,o),
(387,5,o),
(476,5,cs),
(550,5,o),
(595,49,o),
(595,118,cs),
(595,204,o),
(527,274,o),
(355,329,c),
(311,316,l),
(458,301,o),
(600,364,o),
(600,528,cs),
(600,654,o),
(522,739,o),
(353,739,cs),
(250,739,o),
(158,708,o),
(100,624,cs),
(50,552,o),
(25,430,o),
(25,257,cs),
(25,63,o),
(52,-7,o),
(151,-7,cs)
);
},
{
closed = 1;
nodes = (
(280,434,o),
(255,463,o),
(255,504,cs),
(255,550,o),
(287,592,o),
(336,592,cs),
(379,592,o),
(398,560,o),
(398,518,cs),
(398,466,o),
(367,434,o),
(322,434,cs)
);
}
);
};
layerId = m003;
shapes = (
{
closed = 1;
nodes = (
(238,-7,o),
(270,43,o),
(270,137,cs),
(270,186,o),
(262,254,o),
(253,292,c),
(255,292,l),
(333,70,o),
(387,5,o),
(476,5,cs),
(550,5,o),
(595,49,o),
(595,118,cs),
(595,195,o),
(541,261,o),
(396,315,c),
(396,317,l),
(514,331,o),
(600,400,o),
(600,528,cs),
(600,654,o),
(522,739,o),
(353,739,cs),
(250,739,o),
(158,708,o),
(100,624,cs),
(50,552,o),
(25,430,o),
(25,257,cs),
(25,63,o),
(52,-7,o),
(151,-7,cs)
);
},
{
closed = 1;
nodes = (
(280,434,o),
(255,463,o),
(255,504,cs),
(255,550,o),
(287,592,o),
(336,592,cs),
(379,592,o),
(398,560,o),
(398,518,cs),
(398,466,o),
(367,434,o),
(322,434,cs)
);
}
);
width = 620;
},
{
anchors = (
{
name = bottom;
pos = (290,0);
},
{
name = top;
pos = (290,730);
}
);
background = {
shapes = (
{
closed = 1;
nodes = (
(218,-7,o),
(250,43,o),
(250,137,cs),
(250,186,o),
(242,254,o),
(233,292,c),
(235,292,l),
(313,70,o),
(367,5,o),
(456,5,cs),
(530,5,o),
(575,49,o),
(575,118,cs),
(575,204,o),
(507,274,o),
(335,329,c),
(291,316,l),
(438,301,o),
(580,364,o),
(580,528,cs),
(580,654,o),
(502,739,o),
(333,739,cs),
(230,739,o),
(138,708,o),
(80,624,cs),
(30,552,o),
(5,430,o),
(5,257,cs),
(5,63,o),
(32,-7,o),
(131,-7,cs)
);
},
{
closed = 1;
nodes = (
(260,434,o),
(235,463,o),
(235,504,cs),
(235,550,o),
(267,592,o),
(316,592,cs),
(359,592,o),
(378,560,o),
(378,518,cs),
(378,466,o),
(347,434,o),
(302,434,cs)
);
}
);
};
layerId = m004;
shapes = (
{
closed = 1;
nodes = (
(203,-7,o),
(230,43,o),
(230,137,cs),
(230,186,o),
(222,254,o),
(213,292,c),
(215,292,l),
(275,70,o),
(318,5,o),
(387,5,cs),
(443,5,o),
(475,45,o),
(475,108,cs),
(475,189,o),
(435,258,o),
(326,315,c),
(326,317,l),
(415,352,o),
(480,418,o),
(480,548,cs),
(480,662,o),
(418,739,o),
(283,739,cs),
(208,739,o),
(149,715,o),
(100,644,cs),
(49,571,o),
(25,445,o),
(25,257,cs),
(25,63,o),
(48,-7,o),
(131,-7,cs)
);
},
{
closed = 1;
nodes = (
(231,414,o),
(220,439,o),
(220,474,cs),
(220,541,o),
(245,602,o),
(283,602,cs),
(303,602,o),
(313,575,o),
(313,538,cs),
(313,461,o),
(287,414,o),
(250,414,cs)
);
}
);
width = 500;
},
{
anchors = (
{
name = bottom;
pos = (265,0);
},
{
name = top;
pos = (265,730);
}
);
background = {
shapes = (
{
closed = 1;
nodes = (
(193,-7,o),
(225,43,o),
(225,137,cs),
(225,186,o),
(217,254,o),
(208,292,c),
(210,292,l),
(288,70,o),
(342,5,o),
(431,5,cs),
(505,5,o),
(550,49,o),
(550,118,cs),
(550,204,o),
(482,274,o),
(310,329,c),
(266,316,l),
(413,301,o),
(555,364,o),
(555,528,cs),
(555,654,o),
(477,739,o),
(308,739,cs),
(205,739,o),
(113,708,o),
(55,624,cs),
(5,552,o),
(-20,430,o),
(-20,257,cs),
(-20,63,o),
(7,-7,o),
(106,-7,cs)
);
},
{
closed = 1;
nodes = (
(235,434,o),
(210,463,o),
(210,504,cs),
(210,550,o),
(242,592,o),
(291,592,cs),
(334,592,o),
(353,560,o),
(353,518,cs),
(353,466,o),
(322,434,o),
(277,434,cs)
);
}
);
};
layerId = m005;
shapes = (
{
closed = 1;
nodes = (
(170,-7,o),
(185,29,o),
(185,97,cs),
(185,159,o),
(177,244,o),
(168,292,c),
(170,292,l),
(275,80,o),
(355,5,o),
(401,5,cs),
(432,5,o),
(450,22,o),
(450,48,cs),
(450,104,o),
(388,200,o),
(240,314,c),
(240,316,l),
(358,301,o),
(455,377,o),
(455,538,cs),
(455,658,o),
(403,739,o),
(288,739,cs),
(227,739,o),
(181,713,o),
(140,654,cs),
(81,569,o),
(65,407,o),
(65,187,cs),
(65,44,o),
(79,-7,o),
(131,-7,cs)
);
},
{
closed = 1;
nodes = (
(207,394,o),
(190,433,o),
(190,488,cs),
(190,569,o),
(220,642,o),
(278,642,cs),
(324,642,o),
(348,598,o),
(348,531,cs),
(348,446,o),
(301,394,o),
(244,394,cs)
);
}
);
width = 505;
},
{
anchors = (
{
name = bottom;
pos = (325,0);
},
{
name = top;
pos = (325,730);
}
);
layerId = "20287304-65DA-4A3E-87C7-7BCC59C17C0B";
shapes = (
{
closed = 1;
nodes = (
(185,-7,o),
(200,29,o),
(200,97,cs),
(200,159,o),
(192,244,o),
(183,292,c),
(185,292,l),
(352,80,o),
(478,5,o),
(551,5,cs),
(582,5,o),
(600,22,o),
(600,48,cs),
(600,104,o),
(499,200,o),
(255,314,c),
(255,316,l),
(448,286,o),
(605,362,o),
(605,538,cs),
(605,658,o),
(534,739,o),
(378,739,cs),
(287,739,o),
(205,712,o),
(155,639,cs),
(98,556,o),
(80,400,o),
(80,187,cs),
(80,44,o),
(94,-7,o),
(146,-7,cs)
);
},
{
closed = 1;
nodes = (
(240,394,o),
(205,433,o),
(205,488,cs),
(205,569,o),
(256,642,o),
(353,642,cs),
(449,642,o),
(498,598,o),
(498,531,cs),
(498,446,o),
(417,394,o),
(319,394,cs)
);
}
);
width = 670;
},
{
anchors = (
{
name = bottom;
pos = (320,0);
},
{
name = top;
pos = (320,730);
}
);
layerId = "4BA625B0-8927-4B2E-B2D8-0167ED5E0445";
shapes = (
{
closed = 1;
nodes = (
(256,-7,o),
(290,43,o),
(290,137,cs),
(290,186,o),
(282,254,o),
(273,292,c),
(275,292,l),
(362,70,o),
(422,5,o),
(521,5,cs),
(604,5,o),
(655,51,o),
(655,123,cs),
(655,198,o),
(594,263,o),
(431,315,c),
(431,317,l),
(564,321,o),
(660,391,o),
(660,518,cs),
(660,650,o),
(574,739,o),
(388,739,cs),
(271,739,o),
(163,705,o),
(100,614,cs),
(51,543,o),
(25,423,o),
(25,257,cs),
(25,63,o),
(54,-7,o),
(161,-7,cs)
);
},
{
closed = 1;
nodes = (
(305,444,o),
(273,475,o),
(273,519,cs),
(273,555,o),
(308,587,o),
(363,587,cs),
(417,587,o),
(441,553,o),
(441,508,cs),
(441,469,o),
(407,444,o),
(358,444,cs)
);
}
);
width = 680;
}
);
metricLeft = H;
metricRight = B;
unicode = 82;
},
{
glyphname = S;
lastChange = "2021-08-24 12:41:41 +0000";
layers = (
{
anchors = (
{
name = bottom;
pos = (274,0);
},
{
name = top;
pos = (274,730);
}
);
background = {
shapes = (
{
closed = 1;
nodes = (
(396,-3,o),
(505,87,o),
(505,221,cs),
(505,311,o),
(456,378,o),
(307,426,cs),
(234,450,o),
(227,463,o),
(227,475,cs),
(227,489,o),
(237,495,o),
(259,495,cs),
(287,495,o),
(351,486,o),
(392,486,cs),
(484,486,o),
(527,534,o),
(527,603,cs),
(527,691,o),
(457,736,o),
(347,736,cs),
(222,736,o),
(39,675,o),
(39,489,cs),
(39,396,o),
(87,341,o),
(214,308,cs),
(278,292,o),
(287,276,o),
(287,261,cs),
(287,244,o),
(277,234,o),
(256,234,cs),
(235,234,o),
(175,243,o),
(134,243,cs),
(54,243,o),
(20,208,o),
(20,142,cs),
(20,96,o),
(37,62,o),
(80,36,cs),
(115,14,o),
(169,-3,o),
(238,-3,cs)
);
}
);
};
layerId = m01;
shapes = (
{
closed = 1;
nodes = (
(388,-3,o),
(485,79,o),
(485,201,cs),
(485,291,o),
(442,346,o),
(307,396,cs),
(187,441,o),
(167,469,o),
(167,515,cs),
(167,585,o),
(215,615,o),
(299,615,cs),
(370,615,o),
(413,596,o),
(442,596,cs),
(486,596,o),
(507,619,o),
(507,653,cs),
(507,701,o),
(435,736,o),
(337,736,cs),
(220,736,o),
(59,677,o),
(59,499,cs),
(59,406,o),
(111,361,o),
(234,318,cs),
(352,276,o),
(377,248,o),
(377,201,cs),
(377,147,o),
(338,114,o),
(256,114,cs),
(202,114,o),
(152,133,o),
(114,133,cs),
(62,133,o),
(40,113,o),
(40,76,cs),
(40,52,o),
(53,37,o),
(80,24,cs),
(113,8,o),
(175,-3,o),
(248,-3,cs)
);
}
);
width = 547;
},
{
anchors = (
{
name = bottom;
pos = (274,0);
},
{
name = top;
pos = (274,730);
}
);
background = {
shapes = (
{
closed = 1;
nodes = (
(478,-3,o),
(545,78,o),
(545,181,cs),
(545,290,o),
(458,352,o),
(217,460,c),
(205,514,l),
(259,496,o),
(350,481,o),
(407,481,cs),
(510,481,o),
(557,531,o),
(557,603,cs),
(557,691,o),
(507,736,o),
(397,736,cs),
(342,736,o),
(244,719,o),
(163,695,cs),
(72,668,o),
(19,629,o),
(19,529,cs),
(19,423,o),
(82,378,o),
(335,272,c),
(328,229,l),
(267,245,o),
(187,258,o),
(134,258,cs),
(40,258,o),
(0,221,o),
(0,155,cs),
(0,101,o),
(17,68,o),
(52,47,cs),
(104,14,o),
(203,-3,o),
(296,-3,cs)
);
}
);
};
layerId = m003;
shapes = (
{
closed = 1;
nodes = (
(396,-3,o),
(505,87,o),
(505,221,cs),
(505,311,o),
(456,378,o),
(307,426,cs),
(234,450,o),
(227,463,o),
(227,475,cs),
(227,489,o),
(237,495,o),
(259,495,cs),
(287,495,o),
(351,486,o),
(392,486,cs),
(484,486,o),
(527,534,o),
(527,603,cs),
(527,691,o),
(457,736,o),
(347,736,cs),
(222,736,o),
(39,675,o),
(39,489,cs),
(39,396,o),
(87,341,o),
(214,308,cs),
(278,292,o),
(287,276,o),
(287,261,cs),
(287,244,o),
(277,234,o),
(256,234,cs),
(235,234,o),
(175,243,o),
(134,243,cs),
(54,243,o),
(20,208,o),
(20,142,cs),
(20,96,o),
(37,62,o),
(80,36,cs),
(115,14,o),
(169,-3,o),
(238,-3,cs)
);
}
);
width = 547;
},
{
anchors = (
{
name = bottom;
pos = (234,0);
},
{
name = top;
pos = (234,730);
}
);
background = {
shapes = (
{
closed = 1;
nodes = (
(438,-3,o),
(505,78,o),
(505,181,cs),
(505,290,o),
(418,352,o),
(177,460,c),
(165,514,l),
(219,496,o),
(310,481,o),
(367,481,cs),
(470,481,o),
(517,531,o),
(517,603,cs),
(517,691,o),
(467,736,o),
(357,736,cs),
(302,736,o),
(204,719,o),
(123,695,cs),
(32,668,o),
(-21,629,o),
(-21,529,cs),
(-21,423,o),
(42,378,o),
(295,272,c),
(288,229,l),
(227,245,o),
(147,258,o),
(94,258,cs),
(0,258,o),
(-40,221,o),
(-40,155,cs),
(-40,101,o),
(-23,68,o),
(12,47,cs),
(64,14,o),
(163,-3,o),
(256,-3,cs)
);
}
);
};
layerId = m004;
shapes = (
{
closed = 1;
nodes = (
(332,-3,o),
(425,87,o),
(425,221,cs),
(425,311,o),
(389,376,o),
(267,423,cs),
(213,444,o),
(197,458,o),
(197,475,cs),
(197,489,o),
(204,495,o),
(219,495,cs),
(239,495,o),
(283,486,o),
(312,486,cs),
(404,486,o),
(447,534,o),
(447,603,cs),
(447,691,o),
(389,736,o),
(297,736,cs),
(192,736,o),
(39,675,o),
(39,489,cs),
(39,396,o),
(76,353,o),
(174,308,cs),
(222,286,o),
(237,264,o),
(237,242,cs),
(237,223,o),
(227,214,o),
(206,214,cs),
(194,214,o),
(159,217,o),
(134,217,cs),
(54,217,o),
(20,181,o),
(20,122,cs),
(20,80,o),
(38,51,o),
(80,25,cs),
(106,9,o),
(146,-3,o),
(198,-3,cs)
);
}
);
width = 467;
},
{
anchors = (
{
name = bottom;
pos = (224,0);
},
{
name = top;
pos = (224,730);
}
);
background = {
shapes = (
{
closed = 1;
nodes = (
(346,-3,o),
(455,87,o),
(455,221,cs),
(455,311,o),
(406,378,o),
(257,426,cs),
(184,450,o),
(177,463,o),
(177,475,cs),
(177,489,o),
(187,495,o),
(209,495,cs),
(237,495,o),
(301,486,o),
(342,486,cs),
(434,486,o),
(477,534,o),
(477,603,cs),
(477,691,o),
(407,736,o),
(297,736,cs),
(172,736,o),
(-11,675,o),
(-11,489,cs),
(-11,396,o),
(37,341,o),
(164,308,cs),
(228,292,o),
(237,276,o),
(237,261,cs),
(237,244,o),
(227,234,o),
(206,234,cs),
(185,234,o),
(125,243,o),
(84,243,cs),
(4,243,o),
(-30,208,o),
(-30,142,cs),
(-30,96,o),
(-13,62,o),
(30,36,cs),
(65,14,o),
(119,-3,o),
(188,-3,cs)
);
}
);
};
layerId = m005;
shapes = (
{
closed = 1;
nodes = (
(304,-3,o),
(385,79,o),
(385,201,cs),
(385,291,o),
(350,343,o),
(257,396,cs),
(185,437,o),
(167,469,o),
(167,515,cs),
(167,585,o),
(197,615,o),
(249,615,cs),
(295,615,o),
(323,606,o),
(342,606,cs),
(386,606,o),
(407,629,o),
(407,663,cs),
(407,705,o),
(356,736,o),
(287,736,cs),
(191,736,o),
(59,679,o),
(59,509,cs),
(59,411,o),
(99,365,o),
(184,318,cs),
(255,279,o),
(277,248,o),
(277,201,cs),
(277,147,o),
(251,114,o),
(196,114,cs),
(157,114,o),
(121,130,o),
(94,130,cs),
(56,130,o),
(40,110,o),
(40,73,cs),
(40,49,o),
(53,35,o),
(80,21,cs),
(103,9,o),
(141,-3,o),
(188,-3,cs)
);
}
);
width = 447;
},
{
anchors = (
{
name = bottom;
pos = (299,0);
},
{
name = top;
pos = (299,730);
}
);
layerId = "20287304-65DA-4A3E-87C7-7BCC59C17C0B";
shapes = (
{
closed = 1;
nodes = (
(430,-3,o),
(535,79,o),
(535,201,cs),
(535,291,o),
(488,348,o),
(332,396,cs),
(188,443,o),
(167,469,o),
(167,515,cs),
(167,585,o),
(224,615,o),
(324,615,cs),
(408,615,o),
(458,591,o),
(492,591,cs),
(536,591,o),
(557,614,o),
(557,648,cs),
(557,699,o),
(475,736,o),
(362,736,cs),
(235,736,o),
(59,676,o),
(59,494,cs),
(59,404,o),
(117,359,o),
(259,318,cs),
(401,275,o),
(427,248,o),
(427,201,cs),
(427,147,o),
(382,114,o),
(286,114,cs),
(225,114,o),
(168,135,o),
(124,135,cs),
(65,135,o),
(40,115,o),
(40,78,cs),
(40,54,o),
(53,38,o),
(80,26,cs),
(118,8,o),
(192,-3,o),
(278,-3,cs)
);
}
);
width = 597;
},
{
anchors = (
{
name = bottom;
pos = (294,0);
},
{
name = top;
pos = (294,730);
}
);
layerId = "4BA625B0-8927-4B2E-B2D8-0167ED5E0445";
shapes = (
{
closed = 1;
nodes = (
(428,-3,o),
(545,87,o),
(545,221,cs),
(545,311,o),
(490,379,o),
(327,428,cs),
(245,453,o),
(242,466,o),
(242,475,cs),
(242,489,o),
(254,495,o),
(279,495,cs),
(311,495,o),
(385,486,o),
(432,486,cs),
(524,486,o),
(567,534,o),
(567,603,cs),
(567,691,o),
(491,736,o),
(372,736,cs),
(237,736,o),
(39,675,o),
(39,489,cs),
(39,396,o),
(93,335,o),
(234,308,cs),
(306,295,o),
(312,282,o),
(312,271,cs),
(312,255,o),
(302,244,o),
(281,244,cs),
(256,244,o),
(183,256,o),
(134,256,cs),
(54,256,o),
(20,222,o),
(20,152,cs),
(20,104,o),
(37,68,o),
(80,42,cs),
(120,17,o),
(181,-3,o),
(258,-3,cs)
);
}
);
width = 587;
}
);
unicode = 83;
},
{
glyphname = T;
lastChange = "2021-08-24 12:41:41 +0000";
layers = (
{
anchors = (
{
name = bottom;
pos = (269,0);
},
{
name = center;
pos = (269,365);
},
{
name = top;
pos = (269,730);
}
);
background = {
shapes = (
{
closed = 1;
nodes = (
(72,735,o),
(-5,669,o),
(-5,561,cs),
(-5,491,o),
(26,450,o),
(111,450,cs),
(146,450,o),
(202,460,o),
(235,472,c),
(221,497,l),
(170,405,o),
(122,241,o),
(122,144,cs),
(122,43,o),
(168,-7,o),
(259,-7,cs),
(360,-7,o),
(401,52,o),
(401,156,cs),
(401,235,o),
(371,397,o),
(318,500,c),
(298,472,l),
(344,460,o),
(388,454,o),
(427,454,cs),
(504,454,o),
(543,506,o),
(543,582,cs),
(543,675,o),
(499,735,o),
(281,735,cs)
);
}
);
};
layerId = m01;
shapes = (
{
closed = 1;
nodes = (
(191,735,o),
(123,724,o),
(76,705,cs),
(41,691,o),
(25,676,o),
(25,651,cs),
(25,624,o),
(45,608,o),
(101,608,cs),
(146,608,o),
(218,623,o),
(260,640,c),
(238,647,l),
(216,515,o),
(194,275,o),
(194,134,cs),
(194,37,o),
(212,-7,o),
(259,-7,cs),
(311,-7,o),
(329,42,o),
(329,146,cs),
(329,262,o),
(317,499,o),
(301,650,c),
(283,640,l),
(334,621,o),
(384,612,o),
(427,612,cs),
(484,612,o),
(513,633,o),
(513,663,cs),
(513,684,o),
(502,699,o),
(469,711,cs),
(432,724,o),
(371,735,o),
(281,735,cs)
);
}
);
width = 538;
},
{
anchors = (
{
name = bottom;
pos = (279,0);
},
{
name = center;
pos = (279,365);
},
{
name = top;
pos = (279,730);
}
);
layerId = m003;
shapes = (
{
closed = 1;
nodes = (
(201,735,o),
(135,723,o),
(90,700,cs),
(30,670,o),
(5,622,o),
(5,561,cs),
(5,491,o),
(36,450,o),
(121,450,cs),
(153,450,o),
(205,460,o),
(235,472,c),
(231,497,l),
(180,405,o),
(132,241,o),
(132,144,cs),
(132,43,o),
(178,-7,o),
(269,-7,cs),
(370,-7,o),
(411,52,o),
(411,156,cs),
(411,235,o),
(381,397,o),
(328,500,c),
(328,472,l),
(367,460,o),
(404,454,o),
(437,454,cs),
(514,454,o),
(553,506,o),
(553,582,cs),
(553,639,o),
(536,684,o),
(473,710,cs),
(433,726,o),
(375,735,o),
(291,735,cs)
);
}
);
width = 558;
},
{
anchors = (
{
name = bottom;
pos = (229,0);
},
{
name = center;
pos = (229,365);
},
{
name = top;
pos = (229,730);
}
);
layerId = m004;
shapes = (
{
closed = 1;
nodes = (
(179,735,o),
(118,722,o),
(80,703,cs),
(26,676,o),
(5,633,o),
(5,576,cs),
(5,512,o),
(31,475,o),
(101,475,cs),
(127,475,o),
(170,482,o),
(195,492,c),
(191,517,l),
(140,420,o),
(92,246,o),
(92,144,cs),
(92,43,o),
(135,-7,o),
(219,-7,cs),
(313,-7,o),
(351,52,o),
(351,156,cs),
(351,240,o),
(321,411,o),
(268,520,c),
(268,492,l),
(300,482,o),
(330,479,o),
(357,479,cs),
(421,479,o),
(453,527,o),
(453,597,cs),
(453,650,o),
(439,690,o),
(383,713,cs),
(351,726,o),
(301,735,o),
(241,735,cs)
);
}
);
width = 458;
},
{
anchors = (
{
name = bottom;
pos = (214,0);
},
{
name = center;
pos = (214,365);
},
{
name = top;
pos = (214,730);
}
);
background = {
shapes = (
{
closed = 1;
nodes = (
(17,735,o),
(-60,669,o),
(-60,561,cs),
(-60,491,o),
(-29,450,o),
(56,450,cs),
(91,450,o),
(147,460,o),
(180,472,c),
(166,497,l),
(115,405,o),
(67,241,o),
(67,144,cs),
(67,43,o),
(113,-7,o),
(204,-7,cs),
(305,-7,o),
(346,52,o),
(346,156,cs),
(346,235,o),
(316,397,o),
(263,500,c),
(243,472,l),
(289,460,o),
(333,454,o),
(372,454,cs),
(449,454,o),
(488,506,o),
(488,582,cs),
(488,675,o),
(444,735,o),
(226,735,cs)
);
}
);
};
layerId = m005;
shapes = (
{
closed = 1;
nodes = (
(154,735,o),
(99,726,o),
(61,710,cs),
(32,698,o),
(20,681,o),
(20,656,cs),
(20,629,o),
(37,613,o),
(86,613,cs),
(120,613,o),
(174,626,o),
(205,640,c),
(183,647,l),
(161,515,o),
(139,275,o),
(139,134,cs),
(139,37,o),
(157,-7,o),
(204,-7,cs),
(256,-7,o),
(274,42,o),
(274,146,cs),
(274,262,o),
(262,499,o),
(246,650,c),
(228,640,l),
(265,624,o),
(301,617,o),
(332,617,cs),
(382,617,o),
(408,638,o),
(408,668,cs),
(408,690,o),
(400,706,o),
(374,716,cs),
(345,727,o),
(297,735,o),
(226,735,cs)
);
}
);
width = 428;
},
{
anchors = (
{
name = bottom;
pos = (297,0);
},
{
name = center;
pos = (297,365);
},
{
name = top;
pos = (297,730);
}
);
layerId = "20287304-65DA-4A3E-87C7-7BCC59C17C0B";
shapes = (
{
closed = 1;
nodes = (
(210,735,o),
(135,723,o),
(84,703,cs),
(46,688,o),
(28,674,o),
(28,649,cs),
(28,622,o),
(49,606,o),
(109,606,cs),
(159,606,o),
(240,622,o),
(288,640,c),
(266,647,l),
(244,515,o),
(222,275,o),
(222,134,cs),
(222,37,o),
(240,-7,o),
(287,-7,cs),
(339,-7,o),
(357,42,o),
(357,146,cs),
(357,262,o),
(345,499,o),
(329,650,c),
(311,640,l),
(369,620,o),
(426,610,o),
(475,610,cs),
(535,610,o),
(566,631,o),
(566,661,cs),
(566,681,o),
(553,696,o),
(517,709,cs),
(476,723,o),
(408,735,o),
(309,735,cs)
);
}
);
width = 593;
},
{
anchors = (
{
name = bottom;
pos = (304,0);
},
{
name = center;
pos = (304,365);
},
{
name = top;
pos = (304,730);
}
);
layerId = "4BA625B0-8927-4B2E-B2D8-0167ED5E0445";
shapes = (
{
closed = 1;
nodes = (
(212,735,o),
(144,724,o),
(95,699,cs),
(32,667,o),
(5,617,o),
(5,554,cs),
(5,481,o),
(39,438,o),
(131,438,cs),
(166,438,o),
(223,449,o),
(255,462,c),
(251,487,l),
(200,398,o),
(152,239,o),
(152,144,cs),
(152,43,o),
(200,-7,o),
(294,-7,cs),
(399,-7,o),
(441,52,o),
(441,156,cs),
(441,233,o),
(411,390,o),
(358,490,c),
(358,462,l),
(401,449,o),
(441,442,o),
(477,442,cs),
(561,442,o),
(603,496,o),
(603,575,cs),
(603,634,o),
(585,681,o),
(518,709,cs),
(474,726,o),
(412,735,o),
(316,735,cs)
);
}
);
width = 608;
}
);
metricLeft = "=|L";
metricRight = L;
unicode = 84;
},
{
glyphname = U;
lastChange = "2021-08-24 12:41:41 +0000";
layers = (
{
anchors = (
{
name = bottom;
pos = (299,0);
},
{
name = ogonek;
pos = (541,10);
},
{
name = top;
pos = (299,720);
},
{
name = topright;
pos = (582,730);
}
);
background = {
shapes = (
{
closed = 1;
nodes = (
(490,-8,o),
(577,89,o),
(577,325,cs),
(577,420,o),
(569,544,o),
(555,615,cs),
(540,692,o),
(506,731,o),
(437,731,cs),
(367,731,o),
(332,691,o),
(332,614,cs),
(332,562,o),
(358,389,o),
(358,320,cs),
(358,269,o),
(339,246,o),
(301,246,cs),
(263,246,o),
(240,267,o),
(240,320,cs),
(240,394,o),
(285,556,o),
(285,612,cs),
(285,680,o),
(246,715,o),
(178,715,cs),
(103,715,o),
(64,669,o),
(47,594,cs),
(30,518,o),
(20,397,o),
(20,294,cs),
(20,79,o),
(97,-8,o),
(285,-8,cs)
);
}
);
};
layerId = m01;
shapes = (
{
closed = 1;
nodes = (
(452,-8,o),
(522,89,o),
(522,325,cs),
(522,433,o),
(514,574,o),
(500,655,cs),
(492,705,o),
(474,731,o),
(437,731,cs),
(407,731,o),
(392,705,o),
(392,654,cs),
(392,593,o),
(418,391,o),
(418,310,cs),
(418,169,o),
(379,106,o),
(301,106,cs),
(217,106,o),
(174,158,o),
(174,310,cs),
(174,427,o),
(219,586,o),
(219,652,cs),
(219,694,o),
(202,715,o),
(172,715,cs),
(131,715,o),
(113,684,o),
(103,634,cs),
(85,548,o),
(75,411,o),
(75,294,cs),
(75,79,o),
(136,-8,o),
(285,-8,cs)
);
}
);
width = 597;
},
{
anchors = (
{
name = bottom;
pos = (304,0);
},
{
name = ogonek;
pos = (546,10);
},
{
name = top;
pos = (304,720);
},
{
name = topright;
pos = (587,730);
}
);
background = {
shapes = (
{
closed = 0;
nodes = (
(15,314,ls),
(15,115,o),
(141,-8,o),
(337,-8,cs),
(549,-8,o),
(686,119,o),
(686,325,cs)
);
},
{
closed = 0;
nodes = (
(450,361,ls),
(450,291,o),
(412,246,o),
(354,246,cs),
(296,246,o),
(258,291,o),
(258,361,cs)
);
},
{
closed = 0;
nodes = (
(225,419,l),
(254,485,o),
(270,564,o),
(270,622,cs),
(270,697,o),
(233,735,o),
(168,735,cs),
(96,735,o),
(59,689,o),
(42,614,cs),
(25,541,o),
(15,435,o),
(15,327,cs)
);
},
{
closed = 0;
nodes = (
(578,383,ls),
(578,471,o),
(570,565,o),
(557,625,cs),
(541,702,o),
(505,741,o),
(433,741,cs),
(360,741,o),
(323,701,o),
(323,624,cs),
(323,570,o),
(331,497,o),
(348,426,c)
);
}
);
};
layerId = m003;
shapes = (
{
closed = 1;
nodes = (
(495,-8,o),
(582,89,o),
(582,325,cs),
(582,420,o),
(574,544,o),
(560,615,cs),
(545,692,o),
(511,731,o),
(442,731,cs),
(372,731,o),
(337,691,o),
(337,614,cs),
(337,562,o),
(363,389,o),
(363,320,cs),
(363,269,o),
(344,246,o),
(306,246,cs),
(268,246,o),
(245,267,o),
(245,320,cs),
(245,394,o),
(290,556,o),
(290,612,cs),
(290,680,o),
(251,715,o),
(183,715,cs),
(108,715,o),
(69,669,o),
(52,594,cs),
(35,518,o),
(25,397,o),
(25,294,cs),
(25,79,o),
(102,-8,o),
(290,-8,cs)
);
}
);
width = 607;
},
{
anchors = (
{
name = bottom;
pos = (284,0);
},
{
name = ogonek;
pos = (526,10);
},
{
name = top;
pos = (284,720);
},
{
name = topright;
pos = (567,730);
}
);
background = {
shapes = (
{
closed = 0;
nodes = (
(-5,314,ls),
(-5,115,o),
(121,-8,o),
(317,-8,cs),
(529,-8,o),
(666,119,o),
(666,325,cs)
);
},
{
closed = 0;
nodes = (
(430,361,ls),
(430,291,o),
(392,246,o),
(334,246,cs),
(276,246,o),
(238,291,o),
(238,361,cs)
);
},
{
closed = 0;
nodes = (
(205,419,l),
(234,485,o),
(250,564,o),
(250,622,cs),
(250,697,o),
(213,735,o),
(148,735,cs),
(76,735,o),
(39,689,o),
(22,614,cs),
(5,541,o),
(-5,435,o),
(-5,327,cs)
);
},
{
closed = 0;
nodes = (
(558,383,ls),
(558,471,o),
(550,565,o),
(537,625,cs),
(521,702,o),
(485,741,o),
(413,741,cs),
(340,741,o),
(303,701,o),
(303,624,cs),
(303,570,o),
(311,497,o),
(328,426,c)
);
}
);
};
layerId = m004;
shapes = (
{
closed = 1;
nodes = (
(444,-8,o),
(522,89,o),
(522,325,cs),
(522,420,o),
(514,544,o),
(500,615,cs),
(485,692,o),
(455,731,o),
(392,731,cs),
(329,731,o),
(297,691,o),
(297,614,cs),
(297,558,o),
(323,374,o),
(323,300,cs),
(323,249,o),
(307,226,o),
(276,226,cs),
(244,226,o),
(225,247,o),
(225,300,cs),
(225,379,o),
(270,552,o),
(270,612,cs),
(270,680,o),
(235,715,o),
(173,715,cs),
(104,715,o),
(69,669,o),
(52,594,cs),
(35,518,o),
(25,397,o),
(25,294,cs),
(25,79,o),
(93,-8,o),
(260,-8,cs)
);
}
);
width = 547;
},
{
anchors = (
{
name = bottom;
pos = (254,0);
},
{
name = ogonek;
pos = (496,10);
},
{
name = top;
pos = (254,720);
},
{
name = topright;
pos = (537,730);
}
);
background = {
shapes = (
{
closed = 1;
nodes = (
(445,-8,o),
(532,89,o),
(532,325,cs),
(532,420,o),
(524,544,o),
(510,615,cs),
(495,692,o),
(461,731,o),
(392,731,cs),
(322,731,o),
(287,691,o),
(287,614,cs),
(287,562,o),
(313,389,o),
(313,320,cs),
(313,269,o),
(294,246,o),
(256,246,cs),
(218,246,o),
(195,267,o),
(195,320,cs),
(195,394,o),
(240,556,o),
(240,612,cs),
(240,680,o),
(201,715,o),
(133,715,cs),
(58,715,o),
(19,669,o),
(2,594,cs),
(-15,518,o),
(-25,397,o),
(-25,294,cs),
(-25,79,o),
(52,-8,o),
(240,-8,cs)
);
}
);
};
layerId = m005;
shapes = (
{
closed = 1;
nodes = (
(382,-8,o),
(442,83,o),
(442,305,cs),
(442,420,o),
(435,569,o),
(420,655,cs),
(413,705,o),
(396,731,o),
(362,731,cs),
(332,731,o),
(317,705,o),
(317,654,cs),
(317,589,o),
(343,376,o),
(343,290,cs),
(343,163,o),
(314,106,o),
(256,106,cs),
(192,106,o),
(159,153,o),
(159,290,cs),
(159,414,o),
(204,582,o),
(204,652,cs),
(204,694,o),
(187,715,o),
(157,715,cs),
(119,715,o),
(102,684,o),
(92,634,cs),
(74,543,o),
(65,398,o),
(65,274,cs),
(65,73,o),
(116,-8,o),
(240,-8,cs)
);
}
);
width = 507;
},
{
anchors = (
{
name = bottom;
pos = (322,0);
},
{
name = ogonek;
pos = (564,10);
},
{
name = top;
pos = (322,720);
},
{
name = topright;
pos = (605,730);
}
);
layerId = "20287304-65DA-4A3E-87C7-7BCC59C17C0B";
shapes = (
{
closed = 1;
nodes = (
(487,-8,o),
(562,92,o),
(562,335,cs),
(562,440,o),
(554,577,o),
(540,655,cs),
(532,705,o),
(513,731,o),
(475,731,cs),
(445,731,o),
(430,705,o),
(430,654,cs),
(430,595,o),
(456,399,o),
(456,320,cs),
(456,172,o),
(412,106,o),
(324,106,cs),
(230,106,o),
(182,161,o),
(182,320,cs),
(182,434,o),
(227,588,o),
(227,652,cs),
(227,694,o),
(210,715,o),
(180,715,cs),
(137,715,o),
(119,684,o),
(109,634,cs),
(91,551,o),
(80,418,o),
(80,304,cs),
(80,82,o),
(146,-8,o),
(308,-8,cs)
);
}
);
width = 642;
},
{
anchors = (
{
name = bottom;
pos = (314,0);
},
{
name = ogonek;
pos = (556,10);
},
{
name = top;
pos = (314,720);
},
{
name = topright;
pos = (597,730);
}
);
layerId = "4BA625B0-8927-4B2E-B2D8-0167ED5E0445";
shapes = (
{
closed = 1;
nodes = (
(521,-8,o),
(612,89,o),
(612,325,cs),
(612,420,o),
(604,544,o),
(590,615,cs),
(575,692,o),
(539,731,o),
(467,731,cs),
(394,731,o),
(357,691,o),
(357,614,cs),
(357,564,o),
(383,397,o),
(383,330,cs),
(383,279,o),
(363,256,o),
(321,256,cs),
(280,256,o),
(255,277,o),
(255,330,cs),
(255,402,o),
(300,558,o),
(300,612,cs),
(300,680,o),
(259,715,o),
(188,715,cs),
(110,715,o),
(69,669,o),
(52,594,cs),
(35,518,o),
(25,397,o),
(25,294,cs),
(25,79,o),
(107,-8,o),
(305,-8,cs)
);
}
);
width = 637;
}
);
metricLeft = H;
metricRight = H;
unicode = 85;
},
{
glyphname = V;
lastChange = "2021-08-24 12:41:41 +0000";
layers = (
{
anchors = (
{
name = bottom;
pos = (298,0);
},
{
name = top;
pos = (298,730);
}
);
background = {
shapes = (
{
closed = 1;
nodes = (
(410,739,o),
(380,694,o),
(360,596,cs),
(343,514,o),
(317,347,o),
(304,223,c),
(302,223,l),
(288,349,o),
(272,496,o),
(265,569,cs),
(255,677,o),
(223,719,o),
(151,719,cs),
(65,719,o),
(15,667,o),
(15,549,cs),
(15,427,o),
(41,277,o),
(81,177,cs),
(132,49,o),
(179,-7,o),
(269,-7,cs),
(351,-7,o),
(419,49,o),
(481,182,cs),
(543,314,o),
(580,467,o),
(580,565,cs),
(580,681,o),
(551,739,o),
(478,739,cs)
);
}
);
};
layerId = m01;
shapes = (
{
closed = 1;
nodes = (
(463,739,o),
(451,693,o),
(436,596,cs),
(411,433,o),
(355,234,o),
(280,83,c),
(278,83,l),
(213,240,o),
(177,396,o),
(161,569,cs),
(151,677,o),
(134,719,o),
(91,719,cs),
(53,719,o),
(35,679,o),
(35,589,cs),
(35,481,o),
(72,280,o),
(118,166,cs),
(161,57,o),
(205,-7,o),
(276,-7,cs),
(343,-7,o),
(391,56,o),
(445,170,cs),
(512,313,o),
(560,509,o),
(560,635,cs),
(560,704,o),
(545,739,o),
(508,739,cs)
);
}
);
width = 595;
},
{
anchors = (
{
name = bottom;
pos = (298,0);
},
{
name = top;
pos = (298,730);
}
);
layerId = m003;
shapes = (
{
closed = 1;
nodes = (
(410,739,o),
(380,694,o),
(360,596,cs),
(343,514,o),
(317,347,o),
(304,223,c),
(302,223,l),
(288,349,o),
(272,496,o),
(265,569,cs),
(255,677,o),
(223,719,o),
(151,719,cs),
(65,719,o),
(15,667,o),
(15,549,cs),
(15,427,o),
(41,277,o),
(81,177,cs),
(132,49,o),
(179,-7,o),
(269,-7,cs),
(351,-7,o),
(419,49,o),
(481,182,cs),
(543,314,o),
(580,467,o),
(580,565,cs),
(580,681,o),
(551,739,o),
(478,739,cs)
);
}
);
width = 595;
},
{
anchors = (
{
name = bottom;
pos = (268,0);
},
{
name = top;
pos = (268,730);
}
);
layerId = m004;
shapes = (
{
closed = 1;
nodes = (
(370,739,o),
(337,694,o),
(320,596,cs),
(304,506,o),
(285,320,o),
(274,183,c),
(272,183,l),
(262,324,o),
(253,488,o),
(245,569,cs),
(235,677,o),
(203,719,o),
(131,719,cs),
(58,719,o),
(15,670,o),
(15,559,cs),
(15,434,o),
(39,279,o),
(77,177,cs),
(124,52,o),
(163,-7,o),
(239,-7,cs),
(309,-7,o),
(366,53,o),
(425,182,cs),
(488,320,o),
(520,482,o),
(520,585,cs),
(520,688,o),
(497,739,o),
(438,739,cs)
);
}
);
width = 535;
},
{
anchors = (
{
name = bottom;
pos = (258,0);
},
{
name = top;
pos = (258,730);
}
);
background = {
shapes = (
{
closed = 1;
nodes = (
(370,739,o),
(340,694,o),
(320,596,cs),
(303,514,o),
(277,347,o),
(264,223,c),
(262,223,l),
(248,349,o),
(232,496,o),
(225,569,cs),
(215,677,o),
(183,719,o),
(111,719,cs),
(25,719,o),
(-25,667,o),
(-25,549,cs),
(-25,427,o),
(1,277,o),
(41,177,cs),
(92,49,o),
(139,-7,o),
(229,-7,cs),
(311,-7,o),
(379,49,o),
(441,182,cs),
(503,314,o),
(540,467,o),
(540,565,cs),
(540,681,o),
(511,739,o),
(438,739,cs)
);
}
);
};
layerId = m005;
shapes = (
{
closed = 1;
nodes = (
(383,739,o),
(371,693,o),
(356,596,cs),
(331,434,o),
(296,234,o),
(240,83,c),
(238,83,l),
(195,240,o),
(177,397,o),
(161,569,cs),
(151,677,o),
(134,719,o),
(91,719,cs),
(53,719,o),
(35,679,o),
(35,589,cs),
(35,481,o),
(64,279,o),
(108,156,cs),
(146,49,o),
(178,-7,o),
(236,-7,cs),
(291,-7,o),
(328,49,o),
(375,160,cs),
(439,311,o),
(480,509,o),
(480,635,cs),
(480,704,o),
(465,739,o),
(428,739,cs)
);
}
);
width = 515;
},
{
anchors = (
{
name = bottom;
pos = (318,0);
},
{
name = top;
pos = (318,730);
}
);
layerId = "20287304-65DA-4A3E-87C7-7BCC59C17C0B";
shapes = (
{
closed = 1;
nodes = (
(503,739,o),
(491,693,o),
(476,596,cs),
(451,433,o),
(385,234,o),
(300,83,c),
(298,83,l),
(222,240,o),
(177,396,o),
(161,569,cs),
(151,677,o),
(134,719,o),
(91,719,cs),
(53,719,o),
(35,679,o),
(35,589,cs),
(35,481,o),
(76,281,o),
(123,171,cs),
(169,61,o),
(219,-7,o),
(296,-7,cs),
(369,-7,o),
(423,60,o),
(480,175,cs),
(549,314,o),
(600,509,o),
(600,635,cs),
(600,704,o),
(585,739,o),
(548,739,cs)
);
}
);
width = 635;
},
{
anchors = (
{
name = bottom;
pos = (313,0);
},
{
name = top;
pos = (313,730);
}
);
layerId = "4BA625B0-8927-4B2E-B2D8-0167ED5E0445";
shapes = (
{
closed = 1;
nodes = (
(430,739,o),
(402,694,o),
(380,596,cs),
(363,518,o),
(333,361,o),
(319,243,c),
(317,243,l),
(301,362,o),
(282,500,o),
(275,569,cs),
(265,677,o),
(233,719,o),
(161,719,cs),
(69,719,o),
(15,666,o),
(15,544,cs),
(15,424,o),
(42,276,o),
(83,177,cs),
(136,48,o),
(187,-7,o),
(284,-7,cs),
(372,-7,o),
(446,47,o),
(509,182,cs),
(571,311,o),
(610,460,o),
(610,555,cs),
(610,678,o),
(578,739,o),
(498,739,cs)
);
}
);
width = 625;
}
);
metricLeft = A;
metricRight = A;
unicode = 86;
},
{
glyphname = W;
lastChange = "2021-08-24 12:41:41 +0000";
layers = (
{
anchors = (
{
name = bottom;
pos = (378,0);
},
{
name = top;
pos = (378,730);
}
);
background = {
shapes = (
{
closed = 1;
nodes = (
(25,424,o),
(39,258,o),
(57,166,cs),
(79,54,o),
(115,11,o),
(182,11,cs),
(263,11,o),
(325,66,o),
(375,289,c),
(377,289,l),
(426,61,o),
(492,-8,o),
(562,-8,cs),
(626,-8,o),
(666,44,o),
(689,135,cs),
(717,245,o),
(731,390,o),
(731,521,cs),
(731,663,o),
(681,738,o),
(596,738,cs),
(532,738,o),
(491,701,o),
(491,562,cs),
(491,497,o),
(496,414,o),
(503,343,c),
(501,343,l),
(454,533,o),
(423,595,o),
(371,595,cs),
(323,595,o),
(290,535,o),
(248,331,c),
(246,331,l),
(256,398,o),
(263,491,o),
(263,546,cs),
(263,638,o),
(239,711,o),
(155,711,cs),
(66,711,o),
(25,656,o),
(25,515,cs)
);
}
);
};
layerId = m01;
shapes = (
{
closed = 1;
nodes = (
(75,443,o),
(95,240,o),
(117,126,cs),
(133,43,o),
(152,11,o),
(192,11,cs),
(269,11,o),
(328,180,o),
(375,449,c),
(377,449,l),
(423,181,o),
(486,-8,o),
(552,-8,cs),
(591,-8,o),
(613,30,o),
(629,95,cs),
(663,228,o),
(681,403,o),
(681,561,cs),
(681,677,o),
(655,738,o),
(609,738,cs),
(573,738,o),
(551,712,o),
(551,612,cs),
(551,464,o),
(554,275,o),
(558,113,c),
(556,113,l),
(489,417,o),
(434,555,o),
(371,555,cs),
(313,555,o),
(257,426,o),
(198,121,c),
(196,121,l),
(203,269,o),
(208,474,o),
(208,596,cs),
(208,660,o),
(194,711,o),
(147,711,cs),
(97,711,o),
(75,667,o),
(75,555,cs)
);
}
);
width = 756;
},
{
anchors = (
{
name = bottom;
pos = (378,0);
},
{
name = top;
pos = (378,730);
}
);
layerId = m003;
shapes = (
{
closed = 1;
nodes = (
(25,424,o),
(39,258,o),
(57,166,cs),
(79,54,o),
(115,11,o),
(182,11,cs),
(263,11,o),
(325,66,o),
(375,289,c),
(377,289,l),
(426,61,o),
(492,-8,o),
(562,-8,cs),
(626,-8,o),
(666,44,o),
(689,135,cs),
(717,245,o),
(731,390,o),
(731,521,cs),
(731,663,o),
(681,738,o),
(596,738,cs),
(532,738,o),
(491,701,o),
(491,562,cs),
(491,497,o),
(496,414,o),
(503,343,c),
(501,343,l),
(454,533,o),
(423,595,o),
(371,595,cs),
(323,595,o),
(290,535,o),
(248,331,c),
(246,331,l),
(256,398,o),
(263,491,o),
(263,546,cs),
(263,638,o),
(239,711,o),
(155,711,cs),
(66,711,o),
(25,656,o),
(25,515,cs)
);
}
);
width = 756;
},
{
anchors = (
{
name = bottom;
pos = (338,0);
},
{
name = top;
pos = (338,730);
}
);
layerId = m004;
shapes = (
{
closed = 1;
nodes = (
(25,424,o),
(39,258,o),
(57,166,cs),
(79,54,o),
(110,11,o),
(172,11,cs),
(240,11,o),
(293,72,o),
(335,319,c),
(337,319,l),
(378,68,o),
(423,-8,o),
(492,-8,cs),
(551,-8,o),
(586,44,o),
(609,135,cs),
(637,245,o),
(651,390,o),
(651,521,cs),
(651,663,o),
(605,738,o),
(526,738,cs),
(468,738,o),
(431,701,o),
(431,562,cs),
(431,488,o),
(436,394,o),
(443,313,c),
(441,313,l),
(401,526,o),
(375,595,o),
(331,595,cs),
(291,595,o),
(263,528,o),
(228,301,c),
(226,301,l),
(236,377,o),
(243,483,o),
(243,546,cs),
(243,638,o),
(221,711,o),
(145,711,cs),
(63,711,o),
(25,656,o),
(25,515,cs)
);
}
);
width = 676;
},
{
anchors = (
{
name = bottom;
pos = (328,0);
},
{
name = top;
pos = (328,730);
}
);
background = {
shapes = (
{
closed = 1;
nodes = (
(-25,424,o),
(-11,258,o),
(7,166,cs),
(29,54,o),
(65,11,o),
(132,11,cs),
(213,11,o),
(275,66,o),
(325,289,c),
(327,289,l),
(376,61,o),
(442,-8,o),
(512,-8,cs),
(576,-8,o),
(616,44,o),
(639,135,cs),
(667,245,o),
(681,390,o),
(681,521,cs),
(681,663,o),
(631,738,o),
(546,738,cs),
(482,738,o),
(441,701,o),
(441,562,cs),
(441,497,o),
(446,414,o),
(453,343,c),
(451,343,l),
(404,533,o),
(373,595,o),
(321,595,cs),
(273,595,o),
(240,535,o),
(198,331,c),
(196,331,l),
(206,398,o),
(213,491,o),
(213,546,cs),
(213,638,o),
(189,711,o),
(105,711,cs),
(16,711,o),
(-25,656,o),
(-25,515,cs)
);
}
);
};
layerId = m005;
shapes = (
{
closed = 1;
nodes = (
(65,443,o),
(85,240,o),
(107,126,cs),
(123,43,o),
(142,11,o),
(182,11,cs),
(242,11,o),
(288,150,o),
(325,449,c),
(327,449,l),
(362,151,o),
(411,-8,o),
(462,-8,cs),
(501,-8,o),
(523,30,o),
(539,95,cs),
(573,228,o),
(591,403,o),
(591,561,cs),
(591,677,o),
(565,738,o),
(519,738,cs),
(483,738,o),
(461,712,o),
(461,612,cs),
(461,464,o),
(464,275,o),
(468,113,c),
(466,113,l),
(413,447,o),
(370,555,o),
(321,555,cs),
(276,555,o),
(233,456,o),
(188,121,c),
(186,121,l),
(193,269,o),
(198,474,o),
(198,596,cs),
(198,660,o),
(184,711,o),
(137,711,cs),
(87,711,o),
(65,667,o),
(65,555,cs)
);
}
);
width = 656;
},
{
anchors = (
{
name = bottom;
pos = (403,0);
},
{
name = top;
pos = (403,730);
}
);
layerId = "20287304-65DA-4A3E-87C7-7BCC59C17C0B";
shapes = (
{
closed = 1;
nodes = (
(80,443,o),
(100,240,o),
(122,126,cs),
(138,43,o),
(157,11,o),
(197,11,cs),
(283,11,o),
(348,195,o),
(400,449,c),
(402,449,l),
(454,196,o),
(524,-8,o),
(597,-8,cs),
(636,-8,o),
(658,30,o),
(674,95,cs),
(708,228,o),
(726,403,o),
(726,561,cs),
(726,677,o),
(700,738,o),
(654,738,cs),
(618,738,o),
(596,712,o),
(596,612,cs),
(596,464,o),
(599,275,o),
(603,113,c),
(601,113,l),
(527,402,o),
(466,555,o),
(396,555,cs),
(332,555,o),
(269,411,o),
(203,121,c),
(201,121,l),
(208,269,o),
(213,474,o),
(213,596,cs),
(213,660,o),
(199,711,o),
(152,711,cs),
(102,711,o),
(80,667,o),
(80,555,cs)
);
}
);
width = 806;
},
{
anchors = (
{
name = bottom;
pos = (398,0);
},
{
name = top;
pos = (398,730);
}
);
layerId = "4BA625B0-8927-4B2E-B2D8-0167ED5E0445";
shapes = (
{
closed = 1;
nodes = (
(25,424,o),
(39,258,o),
(57,166,cs),
(79,54,o),
(118,11,o),
(187,11,cs),
(275,11,o),
(341,63,o),
(395,274,c),
(397,274,l),
(450,58,o),
(527,-8,o),
(597,-8,cs),
(664,-8,o),
(706,44,o),
(729,135,cs),
(757,245,o),
(771,390,o),
(771,521,cs),
(771,663,o),
(719,738,o),
(631,738,cs),
(564,738,o),
(521,701,o),
(521,562,cs),
(521,502,o),
(526,424,o),
(533,358,c),
(531,358,l),
(481,537,o),
(447,595,o),
(391,595,cs),
(339,595,o),
(304,539,o),
(258,346,c),
(256,346,l),
(266,409,o),
(273,495,o),
(273,546,cs),
(273,638,o),
(248,711,o),
(160,711,cs),
(68,711,o),
(25,656,o),
(25,515,cs)
);
}
);
width = 796;
}
);
metricLeft = H;
metricRight = H;
unicode = 87;
},
{
glyphname = X;
lastChange = "2021-08-24 12:41:41 +0000";
layers = (
{
anchors = (
{
name = bottom;
pos = (327,0);
},
{
name = top;
pos = (327,730);
}
);
background = {
shapes = (
{
closed = 1;
nodes = (
(199,-7,o),
(286,71,o),
(321,277,c),
(323,277,l),
(336,103,o),
(403,4,o),
(494,4,cs),
(561,4,o),
(633,57,o),
(633,141,cs),
(633,232,o),
(575,318,o),
(447,374,c),
(447,376,l),
(571,421,o),
(643,499,o),
(643,594,cs),
(643,676,o),
(592,738,o),
(523,738,cs),
(447,738,o),
(367,660,o),
(332,454,c),
(330,454,l),
(319,612,o),
(259,701,o),
(172,701,cs),
(112,701,o),
(50,648,o),
(50,564,cs),
(50,484,o),
(100,415,o),
(207,367,c),
(207,365,l),
(79,308,o),
(10,208,o),
(10,117,cs),
(10,46,o),
(54,-7,o),
(123,-7,cs)
);
}
);
};
layerId = m01;
shapes = (
{
closed = 1;
nodes = (
(144,-7,o),
(214,85,o),
(321,327,c),
(323,327,l),
(410,111,o),
(483,4,o),
(554,4,cs),
(582,4,o),
(613,30,o),
(613,71,cs),
(613,137,o),
(536,240,o),
(367,374,c),
(367,376,l),
(529,498,o),
(623,604,o),
(623,674,cs),
(623,710,o),
(602,738,o),
(573,738,cs),
(507,738,o),
(436,649,o),
(332,414,c),
(330,414,l),
(256,608,o),
(177,701,o),
(122,701,cs),
(96,701,o),
(70,679,o),
(70,644,cs),
(70,582,o),
(139,484,o),
(287,367,c),
(287,365,l),
(120,232,o),
(30,112,o),
(30,47,cs),
(30,16,o),
(51,-7,o),
(83,-7,cs)
);
}
);
width = 653;
},
{
anchors = (
{
name = bottom;
pos = (327,0);
},
{
name = top;
pos = (327,730);
}
);
layerId = m003;
shapes = (
{
closed = 1;
nodes = (
(199,-7,o),
(286,71,o),
(321,277,c),
(323,277,l),
(336,103,o),
(403,4,o),
(494,4,cs),
(561,4,o),
(633,57,o),
(633,141,cs),
(633,232,o),
(575,318,o),
(447,374,c),
(447,376,l),
(571,421,o),
(643,499,o),
(643,594,cs),
(643,676,o),
(592,738,o),
(523,738,cs),
(447,738,o),
(367,660,o),
(332,454,c),
(330,454,l),
(319,612,o),
(259,701,o),
(172,701,cs),
(112,701,o),
(50,648,o),
(50,564,cs),
(50,484,o),
(100,415,o),
(207,367,c),
(207,365,l),
(79,308,o),
(10,208,o),
(10,117,cs),
(10,46,o),
(54,-7,o),
(123,-7,cs)
);
}
);
width = 653;
},
{
anchors = (
{
name = bottom;
pos = (277,0);
},
{
name = top;
pos = (277,730);
}
);
layerId = m004;
shapes = (
{
closed = 1;
nodes = (
(167,-7,o),
(241,61,o),
(271,277,c),
(273,277,l),
(284,93,o),
(339,4,o),
(414,4,cs),
(471,4,o),
(533,49,o),
(533,121,cs),
(533,220,o),
(478,313,o),
(357,374,c),
(357,376,l),
(475,425,o),
(543,510,o),
(543,614,cs),
(543,685,o),
(501,738,o),
(443,738,cs),
(379,738,o),
(312,670,o),
(282,454,c),
(280,454,l),
(271,622,o),
(222,701,o),
(152,701,cs),
(102,701,o),
(50,656,o),
(50,584,cs),
(50,496,o),
(97,420,o),
(197,367,c),
(197,365,l),
(75,303,o),
(10,195,o),
(10,97,cs),
(10,37,o),
(46,-7,o),
(103,-7,cs)
);
}
);
width = 553;
},
{
anchors = (
{
name = bottom;
pos = (262,0);
},
{
name = top;
pos = (262,730);
}
);
background = {
shapes = (
{
closed = 1;
nodes = (
(134,-7,o),
(221,71,o),
(256,277,c),
(258,277,l),
(271,103,o),
(338,4,o),
(429,4,cs),
(496,4,o),
(568,57,o),
(568,141,cs),
(568,232,o),
(510,318,o),
(382,374,c),
(382,376,l),
(506,421,o),
(578,499,o),
(578,594,cs),
(578,676,o),
(527,738,o),
(458,738,cs),
(382,738,o),
(302,660,o),
(267,454,c),
(265,454,l),
(254,612,o),
(194,701,o),
(107,701,cs),
(47,701,o),
(-15,648,o),
(-15,564,cs),
(-15,484,o),
(35,415,o),
(142,367,c),
(142,365,l),
(14,308,o),
(-55,208,o),
(-55,117,cs),
(-55,46,o),
(-11,-7,o),
(58,-7,cs)
);
}
);
};
layerId = m005;
shapes = (
{
closed = 1;
nodes = (
(124,-7,o),
(176,75,o),
(256,327,c),
(258,327,l),
(322,101,o),
(376,4,o),
(429,4,cs),
(457,4,o),
(488,30,o),
(488,71,cs),
(488,137,o),
(430,240,o),
(302,374,c),
(302,376,l),
(426,498,o),
(498,604,o),
(498,674,cs),
(498,710,o),
(477,738,o),
(448,738,cs),
(398,738,o),
(345,659,o),
(267,414,c),
(265,414,l),
(212,618,o),
(156,701,o),
(117,701,cs),
(91,701,o),
(65,679,o),
(65,644,cs),
(65,582,o),
(115,484,o),
(222,367,c),
(222,365,l),
(94,232,o),
(25,112,o),
(25,47,cs),
(25,16,o),
(46,-7,o),
(78,-7,cs)
);
}
);
width = 523;
},
{
anchors = (
{
name = bottom;
pos = (360,0);
},
{
name = top;
pos = (360,730);
}
);
layerId = "20287304-65DA-4A3E-87C7-7BCC59C17C0B";
shapes = (
{
closed = 1;
nodes = (
(154,-7,o),
(233,90,o),
(354,327,c),
(356,327,l),
(454,116,o),
(537,4,o),
(617,4,cs),
(645,4,o),
(676,30,o),
(676,71,cs),
(676,137,o),
(589,240,o),
(400,374,c),
(400,376,l),
(581,498,o),
(686,604,o),
(686,674,cs),
(686,710,o),
(665,738,o),
(636,738,cs),
(562,738,o),
(482,644,o),
(365,414,c),
(363,414,l),
(278,603,o),
(188,701,o),
(125,701,cs),
(99,701,o),
(73,679,o),
(73,644,cs),
(73,582,o),
(151,484,o),
(320,367,c),
(320,365,l),
(133,232,o),
(33,112,o),
(33,47,cs),
(33,16,o),
(54,-7,o),
(86,-7,cs)
);
}
);
width = 718;
},
{
anchors = (
{
name = bottom;
pos = (352,0);
},
{
name = top;
pos = (352,730);
}
);
layerId = "4BA625B0-8927-4B2E-B2D8-0167ED5E0445";
shapes = (
{
closed = 1;
nodes = (
(215,-7,o),
(309,76,o),
(346,277,c),
(348,277,l),
(362,108,o),
(435,4,o),
(534,4,cs),
(606,4,o),
(683,61,o),
(683,151,cs),
(683,238,o),
(624,321,o),
(492,374,c),
(492,376,l),
(619,419,o),
(693,494,o),
(693,584,cs),
(693,672,o),
(638,738,o),
(563,738,cs),
(481,738,o),
(395,655,o),
(357,454,c),
(355,454,l),
(343,607,o),
(278,701,o),
(182,701,cs),
(117,701,o),
(50,644,o),
(50,554,cs),
(50,478,o),
(102,413,o),
(212,367,c),
(212,365,l),
(81,311,o),
(10,215,o),
(10,127,cs),
(10,51,o),
(58,-7,o),
(133,-7,cs)
);
}
);
width = 703;
}
);
metricLeft = "=|E";
metricRight = E;
unicode = 88;
},
{
glyphname = Y;
lastChange = "2021-08-24 12:41:41 +0000";
layers = (
{
anchors = (
{
name = bottom;
pos = (307,0);
},
{
name = top;
pos = (307,724);
},
{
name = topleft;
pos = (20,730);
}
);
background = {
shapes = (
{
closed = 1;
nodes = (
(357,-9,o),
(420,42,o),
(420,137,cs),
(420,212,o),
(383,314,o),
(337,382,c),
(328,353,l),
(503,389,o),
(608,479,o),
(608,594,cs),
(608,676,o),
(557,738,o),
(488,738,cs),
(412,738,o),
(325,659,o),
(290,453,c),
(295,454,l),
(283,628,o),
(229,727,o),
(144,727,cs),
(77,727,o),
(5,666,o),
(5,570,cs),
(5,478,o),
(76,401,o),
(233,354,c),
(227,392,l),
(183,337,o),
(141,227,o),
(141,128,cs),
(141,25,o),
(191,-9,o),
(266,-9,cs)
);
}
);
};
layerId = m01;
shapes = (
{
closed = 1;
nodes = (
(320,-9,o),
(350,35,o),
(350,117,cs),
(350,188,o),
(336,298,o),
(317,382,c),
(308,363,l),
(483,472,o),
(588,606,o),
(588,684,cs),
(588,717,o),
(571,738,o),
(538,738,cs),
(477,738,o),
(383,640,o),
(284,421,c),
(282,421,l),
(200,633,o),
(133,727,o),
(74,727,cs),
(43,727,o),
(25,711,o),
(25,680,cs),
(25,627,o),
(68,533,o),
(253,364,c),
(247,392,l),
(228,323,o),
(211,205,o),
(211,108,cs),
(211,20,o),
(237,-9,o),
(276,-9,cs)
);
}
);
width = 613;
},
{
anchors = (
{
name = bottom;
pos = (307,0);
},
{
name = top;
pos = (307,724);
},
{
name = topleft;
pos = (20,730);
}
);
layerId = m003;
shapes = (
{
closed = 1;
nodes = (
(357,-9,o),
(420,42,o),
(420,137,cs),
(420,212,o),
(383,314,o),
(337,382,c),
(328,353,l),
(503,389,o),
(608,479,o),
(608,594,cs),
(608,676,o),
(557,738,o),
(488,738,cs),
(415,738,o),
(332,665,o),
(295,478,c),
(293,478,l),
(278,637,o),
(225,727,o),
(144,727,cs),
(77,727,o),
(5,666,o),
(5,570,cs),
(5,478,o),
(76,401,o),
(233,354,c),
(227,392,l),
(183,337,o),
(141,227,o),
(141,128,cs),
(141,25,o),
(191,-9,o),
(266,-9,cs)
);
}
);
width = 613;
},
{
anchors = (
{
name = bottom;
pos = (257,0);
},
{
name = top;
pos = (257,724);
},
{
name = topleft;
pos = (-30,730);
}
);
layerId = m004;
shapes = (
{
closed = 1;
nodes = (
(301,-9,o),
(360,42,o),
(360,137,cs),
(360,212,o),
(323,314,o),
(277,382,c),
(268,333,l),
(418,397,o),
(508,507,o),
(508,624,cs),
(508,689,o),
(476,738,o),
(418,738,cs),
(357,738,o),
(278,661,o),
(245,464,c),
(243,464,l),
(230,650,o),
(179,727,o),
(114,727,cs),
(57,727,o),
(5,678,o),
(5,600,cs),
(5,497,o),
(64,403,o),
(193,334,c),
(187,392,l),
(143,337,o),
(101,227,o),
(101,128,cs),
(101,25,o),
(147,-9,o),
(216,-9,cs)
);
}
);
width = 513;
},
{
anchors = (
{
name = bottom;
pos = (232,0);
},
{
name = top;
pos = (232,724);
},
{
name = topleft;
pos = (-55,730);
}
);
background = {
shapes = (
{
closed = 1;
nodes = (
(282,-9,o),
(345,42,o),
(345,137,cs),
(345,212,o),
(308,314,o),
(262,382,c),
(253,353,l),
(428,389,o),
(533,479,o),
(533,594,cs),
(533,676,o),
(482,738,o),
(413,738,cs),
(337,738,o),
(250,659,o),
(215,453,c),
(220,454,l),
(208,628,o),
(154,727,o),
(69,727,cs),
(2,727,o),
(-70,666,o),
(-70,570,cs),
(-70,478,o),
(1,401,o),
(158,354,c),
(152,392,l),
(108,337,o),
(66,227,o),
(66,128,cs),
(66,25,o),
(116,-9,o),
(191,-9,cs)
);
}
);
};
layerId = m005;
shapes = (
{
closed = 1;
nodes = (
(245,-9,o),
(275,35,o),
(275,117,cs),
(275,188,o),
(261,298,o),
(242,382,c),
(233,363,l),
(364,472,o),
(443,606,o),
(443,684,cs),
(443,717,o),
(426,738,o),
(393,738,cs),
(339,738,o),
(281,650,o),
(209,421,c),
(207,421,l),
(162,643,o),
(118,727,o),
(69,727,cs),
(38,727,o),
(20,711,o),
(20,680,cs),
(20,627,o),
(50,533,o),
(178,364,c),
(172,392,l),
(153,323,o),
(136,205,o),
(136,108,cs),
(136,20,o),
(162,-9,o),
(201,-9,cs)
);
}
);
width = 463;
},
{
anchors = (
{
name = bottom;
pos = (345,0);
},
{
name = top;
pos = (345,724);
},
{
name = topleft;
pos = (58,730);
}
);
layerId = "20287304-65DA-4A3E-87C7-7BCC59C17C0B";
shapes = (
{
closed = 1;
nodes = (
(358,-9,o),
(388,35,o),
(388,117,cs),
(388,188,o),
(374,298,o),
(355,382,c),
(346,363,l),
(543,472,o),
(661,606,o),
(661,684,cs),
(661,717,o),
(644,738,o),
(611,738,cs),
(546,738,o),
(434,635,o),
(322,421,c),
(320,421,l),
(219,628,o),
(141,727,o),
(77,727,cs),
(46,727,o),
(28,711,o),
(28,680,cs),
(28,627,o),
(77,533,o),
(291,364,c),
(285,392,l),
(266,323,o),
(249,205,o),
(249,108,cs),
(249,20,o),
(275,-9,o),
(314,-9,cs)
);
}
);
width = 688;
},
{
anchors = (
{
name = bottom;
pos = (332,0);
},
{
name = top;
pos = (332,724);
},
{
name = topleft;
pos = (45,730);
}
);
layerId = "4BA625B0-8927-4B2E-B2D8-0167ED5E0445";
shapes = (
{
closed = 1;
nodes = (
(385,-9,o),
(450,42,o),
(450,137,cs),
(450,212,o),
(413,314,o),
(367,382,c),
(358,363,l),
(546,385,o),
(658,465,o),
(658,579,cs),
(658,670,o),
(598,738,o),
(523,738,cs),
(444,738,o),
(359,667,o),
(320,485,c),
(318,485,l),
(302,631,o),
(248,727,o),
(159,727,cs),
(87,727,o),
(5,660,o),
(5,555,cs),
(5,469,o),
(82,400,o),
(253,364,c),
(247,392,l),
(203,337,o),
(161,227,o),
(161,128,cs),
(161,25,o),
(213,-9,o),
(291,-9,cs)
);
}
);
width = 663;
}
);
metricLeft = "=|L";
metricRight = L;
unicode = 89;
},
{
glyphname = Z;
lastChange = "2021-08-24 12:45:26 +0000";
layers = (
{
anchors = (
{
name = bottom;
pos = (271,0);
},
{
name = center;
pos = (271,365);
},
{
name = top;
pos = (271,730);
}
);
background = {
shapes = (
{
closed = 1;
nodes = (
(10,46,o),
(69,-7,o),
(193,-7,cs),
(243,-7,o),
(311,-1,o),
(375,8,cs),
(470,21,o),
(524,70,o),
(524,149,cs),
(524,218,o),
(488,246,o),
(402,246,cs),
(329,246,o),
(239,228,o),
(184,205,c),
(184,207,l),
(469,402,o),
(532,497,o),
(532,593,cs),
(532,710,o),
(466,737,o),
(315,737,cs),
(212,737,o),
(122,722,o),
(64,688,cs),
(28,667,o),
(11,634,o),
(11,584,cs),
(11,521,o),
(45,486,o),
(124,486,cs),
(170,486,o),
(261,503,o),
(324,523,c),
(324,521,l),
(94,371,o),
(10,258,o),
(10,145,cs)
);
}
);
};
layerId = m01;
shapes = (
{
closed = 1;
nodes = (
(30,13,o),
(73,-7,o),
(163,-7,cs),
(229,-7,o),
(320,-1,o),
(405,18,cs),
(468,32,o),
(504,55,o),
(504,95,cs),
(504,131,o),
(483,146,o),
(432,146,cs),
(343,146,o),
(203,115,o),
(114,75,c),
(114,77,l),
(346,339,o),
(512,565,o),
(512,643,cs),
(512,708,o),
(459,737,o),
(345,737,cs),
(238,737,o),
(134,719,o),
(82,697,cs),
(43,680,o),
(31,659,o),
(31,634,cs),
(31,603,o),
(56,586,o),
(114,586,cs),
(185,586,o),
(326,608,o),
(424,633,c),
(424,631,l),
(136,314,o),
(30,141,o),
(30,75,cs)
);
}
);
width = 542;
},
{
anchors = (
{
name = bottom;
pos = (271,0);
},
{
name = center;
pos = (271,365);
},
{
name = top;
pos = (271,730);
}
);
layerId = m003;
shapes = (
{
closed = 1;
nodes = (
(10,46,o),
(69,-7,o),
(193,-7,cs),
(243,-7,o),
(311,-1,o),
(375,8,cs),
(470,21,o),
(524,70,o),
(524,149,cs),
(524,218,o),
(488,246,o),
(402,246,cs),
(329,246,o),
(239,228,o),
(184,205,c),
(184,207,l),
(469,402,o),
(532,497,o),
(532,593,cs),
(532,710,o),
(466,737,o),
(315,737,cs),
(212,737,o),
(122,722,o),
(64,688,cs),
(28,667,o),
(11,634,o),
(11,584,cs),
(11,521,o),
(45,486,o),
(124,486,cs),
(170,486,o),
(261,503,o),
(324,523,c),
(324,521,l),
(94,371,o),
(10,258,o),
(10,145,cs)
);
}
);
width = 542;
},
{
anchors = (
{
name = bottom;
pos = (211,0);
},
{
name = center;
pos = (211,365);
},
{
name = top;
pos = (211,730);
}
);
layerId = m004;
shapes = (
{
closed = 1;
nodes = (
(10,43,o),
(63,-7,o),
(173,-7,cs),
(209,-7,o),
(258,-1,o),
(305,8,cs),
(387,24,o),
(434,66,o),
(434,139,cs),
(434,208,o),
(401,236,o),
(322,236,cs),
(266,236,o),
(196,218,o),
(154,195,c),
(154,197,l),
(390,402,o),
(442,502,o),
(442,603,cs),
(442,702,o),
(391,737,o),
(275,737,cs),
(188,737,o),
(115,718,o),
(64,688,cs),
(29,668,o),
(11,639,o),
(11,594,cs),
(11,531,o),
(42,496,o),
(114,496,cs),
(148,496,o),
(217,513,o),
(264,533,c),
(264,531,l),
(78,373,o),
(10,254,o),
(10,135,cs)
);
}
);
width = 452;
},
{
anchors = (
{
name = bottom;
pos = (216,0);
},
{
name = center;
pos = (216,365);
},
{
name = top;
pos = (216,730);
}
);
background = {
shapes = (
{
closed = 1;
nodes = (
(-45,46,o),
(14,-7,o),
(138,-7,cs),
(188,-7,o),
(256,-1,o),
(320,8,cs),
(415,21,o),
(469,70,o),
(469,149,cs),
(469,218,o),
(433,246,o),
(347,246,cs),
(274,246,o),
(184,228,o),
(129,205,c),
(129,207,l),
(414,402,o),
(477,497,o),
(477,593,cs),
(477,710,o),
(411,737,o),
(260,737,cs),
(157,737,o),
(67,722,o),
(9,688,cs),
(-27,667,o),
(-44,634,o),
(-44,584,cs),
(-44,521,o),
(-10,486,o),
(69,486,cs),
(115,486,o),
(206,503,o),
(269,523,c),
(269,521,l),
(39,371,o),
(-45,258,o),
(-45,145,cs)
);
}
);
};
layerId = m005;
shapes = (
{
closed = 1;
nodes = (
(25,13,o),
(58,-7,o),
(158,-7,cs),
(197,-7,o),
(250,-3,o),
(300,8,cs),
(363,22,o),
(399,45,o),
(399,85,cs),
(399,121,o),
(378,136,o),
(327,136,cs),
(266,136,o),
(170,109,o),
(109,75,c),
(109,77,l),
(283,339,o),
(407,565,o),
(407,643,cs),
(407,708,o),
(364,737,o),
(270,737,cs),
(191,737,o),
(117,717,o),
(77,700,cs),
(38,683,o),
(26,662,o),
(26,637,cs),
(26,606,o),
(51,589,o),
(109,589,cs),
(157,589,o),
(253,608,o),
(319,633,c),
(319,631,l),
(104,314,o),
(25,141,o),
(25,75,cs)
);
}
);
width = 432;
},
{
anchors = (
{
name = bottom;
pos = (299,0);
},
{
name = center;
pos = (299,365);
},
{
name = top;
pos = (299,730);
}
);
layerId = "20287304-65DA-4A3E-87C7-7BCC59C17C0B";
shapes = (
{
closed = 1;
nodes = (
(33,13,o),
(81,-7,o),
(166,-7,cs),
(245,-7,o),
(355,0,o),
(458,23,cs),
(521,37,o),
(557,60,o),
(557,100,cs),
(557,136,o),
(536,151,o),
(485,151,cs),
(382,151,o),
(220,118,o),
(117,75,c),
(117,77,l),
(378,339,o),
(565,565,o),
(565,643,cs),
(565,708,o),
(507,737,o),
(383,737,cs),
(262,737,o),
(143,720,o),
(85,696,cs),
(46,679,o),
(34,658,o),
(34,633,cs),
(34,602,o),
(59,585,o),
(117,585,cs),
(199,585,o),
(363,608,o),
(477,633,c),
(477,631,l),
(152,314,o),
(33,141,o),
(33,75,cs)
);
}
);
width = 597;
},
{
anchors = (
{
name = bottom;
pos = (301,0);
},
{
name = center;
pos = (301,365);
},
{
name = top;
pos = (301,730);
}
);
layerId = "4BA625B0-8927-4B2E-B2D8-0167ED5E0445";
shapes = (
{
closed = 1;
nodes = (
(10,48,o),
(72,-7,o),
(203,-7,cs),
(260,-7,o),
(348,-1,o),
(410,8,cs),
(512,22,o),
(569,72,o),
(569,154,cs),
(569,230,o),
(529,261,o),
(432,261,cs),
(354,261,o),
(258,239,o),
(199,210,c),
(199,212,l),
(509,402,o),
(577,495,o),
(577,588,cs),
(577,714,o),
(504,737,o),
(335,737,cs),
(224,737,o),
(126,724,o),
(64,688,cs),
(28,667,o),
(11,632,o),
(11,579,cs),
(11,510,o),
(50,471,o),
(139,471,cs),
(189,471,o),
(286,493,o),
(354,518,c),
(354,516,l),
(102,370,o),
(10,260,o),
(10,150,cs)
);
}
);
width = 587;
}
);
metricLeft = "=|E";
metricRight = E;
unicode = 90;
},
{
glyphname = F.001;
lastChange = "2021-08-24 12:41:41 +0000";
layers = (
{
layerId = m01;
shapes = (
{
closed = 1;
nodes = (
(228,736,o),
(130,711,o),
(82,645,cs),
(48,599,o),
(25,514,o),
(25,323,cs),
(25,177,o),
(38,102,o),
(64,50,cs),
(86,7,o),
(118,-6,o),
(159,-6,cs),
(225,-6,o),
(266,21,o),
(266,107,cs),
(266,164,o),
(248,226,o),
(231,253,c),
(192,251,l),
(244,241,o),
(296,236,o),
(339,236,cs),
(437,236,o),
(473,279,o),
(473,334,cs),
(473,385,o),
(442,424,o),
(356,424,cs),
(311,424,o),
(249,414,o),
(215,403,c),
(231,396,l),
(238,446,o),
(238,496,o),
(229,531,c),
(219,508,l),
(261,503,o),
(300,501,o),
(331,501,cs),
(445,501,o),
(498,539,o),
(498,624,cs),
(498,693,o),
(466,736,o),
(348,736,cs)
);
}
);
width = 503;
},
{
layerId = m003;
shapes = (
{
closed = 1;
nodes = (
(228,736,o),
(130,711,o),
(82,645,cs),
(48,599,o),
(25,514,o),
(25,323,cs),
(25,177,o),
(38,102,o),
(64,50,cs),
(86,7,o),
(118,-6,o),
(159,-6,cs),
(225,-6,o),
(266,21,o),
(266,107,cs),
(266,164,o),
(248,226,o),
(231,253,c),
(192,251,l),
(244,241,o),
(296,236,o),
(339,236,cs),
(437,236,o),
(473,279,o),
(473,334,cs),
(473,385,o),
(442,424,o),
(356,424,cs),
(311,424,o),
(249,414,o),
(215,403,c),
(231,396,l),
(238,446,o),
(238,496,o),
(229,531,c),
(219,508,l),
(261,503,o),
(300,501,o),
(331,501,cs),
(445,501,o),
(498,539,o),
(498,624,cs),
(498,693,o),
(466,736,o),
(348,736,cs)
);
}
);
width = 503;
},
{
layerId = m004;
shapes = (
{
closed = 1;
nodes = (
(228,736,o),
(130,711,o),
(82,645,cs),
(48,599,o),
(25,514,o),
(25,323,cs),
(25,177,o),
(38,102,o),
(64,50,cs),
(86,7,o),
(118,-6,o),
(159,-6,cs),
(225,-6,o),
(266,21,o),
(266,107,cs),
(266,164,o),
(248,226,o),
(231,253,c),
(192,251,l),
(244,241,o),
(296,236,o),
(339,236,cs),
(437,236,o),
(473,279,o),
(473,334,cs),
(473,385,o),
(442,424,o),
(356,424,cs),
(311,424,o),
(249,414,o),
(215,403,c),
(231,396,l),
(238,446,o),
(238,496,o),
(229,531,c),
(219,508,l),
(261,503,o),
(300,501,o),
(331,501,cs),
(445,501,o),
(498,539,o),
(498,624,cs),
(498,693,o),
(466,736,o),
(348,736,cs)
);
}
);
width = 503;
},
{
layerId = m005;
shapes = (
{
closed = 1;
nodes = (
(228,736,o),
(130,711,o),
(82,645,cs),
(48,599,o),
(25,514,o),
(25,323,cs),
(25,177,o),
(38,102,o),
(64,50,cs),
(86,7,o),
(118,-6,o),
(159,-6,cs),
(225,-6,o),
(266,21,o),
(266,107,cs),
(266,164,o),
(248,226,o),
(231,253,c),
(192,251,l),
(244,241,o),
(296,236,o),
(339,236,cs),
(437,236,o),
(473,279,o),
(473,334,cs),
(473,385,o),
(442,424,o),
(356,424,cs),
(311,424,o),
(249,414,o),
(215,403,c),
(231,396,l),
(238,446,o),
(238,496,o),
(229,531,c),
(219,508,l),
(261,503,o),
(300,501,o),
(331,501,cs),
(445,501,o),
(498,539,o),
(498,624,cs),
(498,693,o),
(466,736,o),
(348,736,cs)
);
}
);
width = 503;
},
{
layerId = "20287304-65DA-4A3E-87C7-7BCC59C17C0B";
shapes = (
{
closed = 1;
nodes = (
(228,736,o),
(130,711,o),
(82,645,cs),
(48,599,o),
(25,514,o),
(25,323,cs),
(25,177,o),
(38,102,o),
(64,50,cs),
(86,7,o),
(118,-6,o),
(159,-6,cs),
(225,-6,o),
(266,21,o),
(266,107,cs),
(266,164,o),
(248,226,o),
(231,253,c),
(192,251,l),
(244,241,o),
(296,236,o),
(339,236,cs),
(437,236,o),
(473,279,o),
(473,334,cs),
(473,385,o),
(442,424,o),
(356,424,cs),
(311,424,o),
(249,414,o),
(215,403,c),
(231,396,l),
(238,446,o),
(238,496,o),
(229,531,c),
(219,508,l),
(261,503,o),
(300,501,o),
(331,501,cs),
(445,501,o),
(498,539,o),
(498,624,cs),
(498,693,o),
(466,736,o),
(348,736,cs)
);
}
);
width = 503;
},
{
layerId = "4BA625B0-8927-4B2E-B2D8-0167ED5E0445";
shapes = (
{
closed = 1;
nodes = (
(228,736,o),
(130,711,o),
(82,645,cs),
(48,599,o),
(25,514,o),
(25,323,cs),
(25,177,o),
(38,102,o),
(64,50,cs),
(86,7,o),
(118,-6,o),
(159,-6,cs),
(225,-6,o),
(266,21,o),
(266,107,cs),
(266,164,o),
(248,226,o),
(231,253,c),
(192,251,l),
(244,241,o),
(296,236,o),
(339,236,cs),
(437,236,o),
(473,279,o),
(473,334,cs),
(473,385,o),
(442,424,o),
(356,424,cs),
(311,424,o),
(249,414,o),
(215,403,c),
(231,396,l),
(238,446,o),
(238,496,o),
(229,531,c),
(219,508,l),
(261,503,o),
(300,501,o),
(331,501,cs),
(445,501,o),
(498,539,o),
(498,624,cs),
(498,693,o),
(466,736,o),
(348,736,cs)
);
}
);
width = 503;
}
);
metricLeft = H;
metricRight = T;
},
{
glyphname = O.ss01;
lastChange = "2021-08-24 12:41:41 +0000";
layers = (
{
layerId = m01;
shapes = (
{
closed = 1;
nodes = (
(537,36,o),
(666,170,o),
(666,389,cs),
(666,590,o),
(538,727,o),
(341,727,cs),
(143,727,o),
(15,582,o),
(15,368,cs),
(15,163,o),
(141,36,o),
(337,36,cs)
);
},
{
closed = 1;
nodes = (
(271,300,o),
(233,341,o),
(233,405,cs),
(233,469,o),
(271,510,o),
(329,510,cs),
(387,510,o),
(425,469,o),
(425,405,cs),
(425,341,o),
(387,300,o),
(329,300,cs)
);
}
);
width = 681;
},
{
layerId = m003;
shapes = (
{
closed = 1;
nodes = (
(537,36,o),
(666,170,o),
(666,389,cs),
(666,590,o),
(538,727,o),
(341,727,cs),
(143,727,o),
(15,582,o),
(15,368,cs),
(15,163,o),
(141,36,o),
(337,36,cs)
);
},
{
closed = 1;
nodes = (
(271,300,o),
(233,341,o),
(233,405,cs),
(233,469,o),
(271,510,o),
(329,510,cs),
(387,510,o),
(425,469,o),
(425,405,cs),
(425,341,o),
(387,300,o),
(329,300,cs)
);
}
);
width = 681;
},
{
layerId = m004;
shapes = (
{
closed = 1;
nodes = (
(537,36,o),
(666,170,o),
(666,389,cs),
(666,590,o),
(538,727,o),
(341,727,cs),
(143,727,o),
(15,582,o),
(15,368,cs),
(15,163,o),
(141,36,o),
(337,36,cs)
);
},
{
closed = 1;
nodes = (
(271,300,o),
(233,341,o),
(233,405,cs),
(233,469,o),
(271,510,o),
(329,510,cs),
(387,510,o),
(425,469,o),
(425,405,cs),
(425,341,o),
(387,300,o),
(329,300,cs)
);
}
);
width = 681;
},
{
layerId = m005;
shapes = (
{
closed = 1;
nodes = (
(537,36,o),
(666,170,o),
(666,389,cs),
(666,590,o),
(538,727,o),
(341,727,cs),
(143,727,o),
(15,582,o),
(15,368,cs),
(15,163,o),
(141,36,o),
(337,36,cs)
);
},
{
closed = 1;
nodes = (
(271,300,o),
(233,341,o),
(233,405,cs),
(233,469,o),
(271,510,o),
(329,510,cs),
(387,510,o),
(425,469,o),
(425,405,cs),
(425,341,o),
(387,300,o),
(329,300,cs)
);
}
);
width = 681;
},
{
layerId = "20287304-65DA-4A3E-87C7-7BCC59C17C0B";
shapes = (
{
closed = 1;
nodes = (
(537,36,o),
(666,170,o),
(666,389,cs),
(666,590,o),
(538,727,o),
(341,727,cs),
(143,727,o),
(15,582,o),
(15,368,cs),
(15,163,o),
(141,36,o),
(337,36,cs)
);
},
{
closed = 1;
nodes = (
(271,300,o),
(233,341,o),
(233,405,cs),
(233,469,o),
(271,510,o),
(329,510,cs),
(387,510,o),
(425,469,o),
(425,405,cs),
(425,341,o),
(387,300,o),
(329,300,cs)
);
}
);
width = 681;
},
{
layerId = "4BA625B0-8927-4B2E-B2D8-0167ED5E0445";
shapes = (
{
closed = 1;
nodes = (
(537,36,o),
(666,170,o),
(666,389,cs),
(666,590,o),
(538,727,o),
(341,727,cs),
(143,727,o),
(15,582,o),
(15,368,cs),
(15,163,o),
(141,36,o),
(337,36,cs)
);
},
{
closed = 1;
nodes = (
(271,300,o),
(233,341,o),
(233,405,cs),
(233,469,o),
(271,510,o),
(329,510,cs),
(387,510,o),
(425,469,o),
(425,405,cs),
(425,341,o),
(387,300,o),
(329,300,cs)
);
}
);
width = 681;
}
);
metricLeft = O;
metricRight = O;
},
{
glyphname = O.ss02;
lastChange = "2021-08-24 12:41:41 +0000";
layers = (
{
layerId = m01;
shapes = (
{
closed = 1;
nodes = (
(539,-5,o),
(676,143,o),
(676,358,cs),
(676,554,o),
(548,686,o),
(351,686,cs),
(147,686,o),
(15,519,o),
(15,307,cs),
(15,110,o),
(137,-5,o),
(327,-5,cs)
);
},
{
closed = 1;
nodes = (
(302,239,o),
(268,284,o),
(268,354,cs),
(268,436,o),
(306,489,o),
(361,489,cs),
(410,489,o),
(440,444,o),
(440,374,cs),
(440,292,o),
(406,239,o),
(352,239,cs)
);
}
);
width = 691;
},
{
layerId = m003;
shapes = (
{
closed = 1;
nodes = (
(539,-5,o),
(676,143,o),
(676,358,cs),
(676,554,o),
(548,686,o),
(351,686,cs),
(147,686,o),
(15,519,o),
(15,307,cs),
(15,110,o),
(137,-5,o),
(327,-5,cs)
);
},
{
closed = 1;
nodes = (
(302,239,o),
(268,284,o),
(268,354,cs),
(268,436,o),
(306,489,o),
(361,489,cs),
(410,489,o),
(440,444,o),
(440,374,cs),
(440,292,o),
(406,239,o),
(352,239,cs)
);
}
);
width = 691;
},
{
layerId = m004;
shapes = (
{
closed = 1;
nodes = (
(539,-5,o),
(676,143,o),
(676,358,cs),
(676,554,o),
(548,686,o),
(351,686,cs),
(147,686,o),
(15,519,o),
(15,307,cs),
(15,110,o),
(137,-5,o),
(327,-5,cs)
);
},
{
closed = 1;
nodes = (
(302,239,o),
(268,284,o),
(268,354,cs),
(268,436,o),
(306,489,o),
(361,489,cs),
(410,489,o),
(440,444,o),
(440,374,cs),
(440,292,o),
(406,239,o),
(352,239,cs)
);
}
);
width = 691;
},
{
layerId = m005;
shapes = (
{
closed = 1;
nodes = (
(539,-5,o),
(676,143,o),
(676,358,cs),
(676,554,o),
(548,686,o),
(351,686,cs),
(147,686,o),
(15,519,o),
(15,307,cs),
(15,110,o),
(137,-5,o),
(327,-5,cs)
);
},
{
closed = 1;
nodes = (
(302,239,o),
(268,284,o),
(268,354,cs),
(268,436,o),
(306,489,o),
(361,489,cs),
(410,489,o),
(440,444,o),
(440,374,cs),
(440,292,o),
(406,239,o),
(352,239,cs)
);
}
);
width = 691;
},
{
layerId = "20287304-65DA-4A3E-87C7-7BCC59C17C0B";
shapes = (
{
closed = 1;
nodes = (
(539,-5,o),
(676,143,o),
(676,358,cs),
(676,554,o),
(548,686,o),
(351,686,cs),
(147,686,o),
(15,519,o),
(15,307,cs),
(15,110,o),
(137,-5,o),
(327,-5,cs)
);
},
{
closed = 1;
nodes = (
(302,239,o),
(268,284,o),
(268,354,cs),
(268,436,o),
(306,489,o),
(361,489,cs),
(410,489,o),
(440,444,o),
(440,374,cs),
(440,292,o),
(406,239,o),
(352,239,cs)
);
}
);
width = 691;
},
{
layerId = "4BA625B0-8927-4B2E-B2D8-0167ED5E0445";
shapes = (
{
closed = 1;
nodes = (
(539,-5,o),
(676,143,o),
(676,358,cs),
(676,554,o),
(548,686,o),
(351,686,cs),
(147,686,o),
(15,519,o),
(15,307,cs),
(15,110,o),
(137,-5,o),
(327,-5,cs)
);
},
{
closed = 1;
nodes = (
(302,239,o),
(268,284,o),
(268,354,cs),
(268,436,o),
(306,489,o),
(361,489,cs),
(410,489,o),
(440,444,o),
(440,374,cs),
(440,292,o),
(406,239,o),
(352,239,cs)
);
}
);
width = 691;
}
);
metricLeft = O;
metricRight = O;
},
{
glyphname = O.ss03;
lastChange = "2021-08-24 12:41:41 +0000";
layers = (
{
layerId = m01;
shapes = (
{
closed = 1;
nodes = (
(543,47,o),
(676,216,o),
(676,420,cs),
(676,610,o),
(548,738,o),
(351,738,cs),
(147,738,o),
(15,600,o),
(15,389,cs),
(15,179,o),
(141,47,o),
(337,47,cs)
);
},
{
closed = 1;
nodes = (
(302,271,o),
(268,316,o),
(268,386,cs),
(268,462,o),
(306,511,o),
(361,511,cs),
(410,511,o),
(440,470,o),
(440,406,cs),
(440,324,o),
(406,271,o),
(352,271,cs)
);
}
);
width = 691;
},
{
layerId = m003;
shapes = (
{
closed = 1;
nodes = (
(543,47,o),
(676,216,o),
(676,420,cs),
(676,610,o),
(548,738,o),
(351,738,cs),
(147,738,o),
(15,600,o),
(15,389,cs),
(15,179,o),
(141,47,o),
(337,47,cs)
);
},
{
closed = 1;
nodes = (
(302,271,o),
(268,316,o),
(268,386,cs),
(268,462,o),
(306,511,o),
(361,511,cs),
(410,511,o),
(440,470,o),
(440,406,cs),
(440,324,o),
(406,271,o),
(352,271,cs)
);
}
);
width = 691;
},
{
layerId = m004;
shapes = (
{
closed = 1;
nodes = (
(543,47,o),
(676,216,o),
(676,420,cs),
(676,610,o),
(548,738,o),
(351,738,cs),
(147,738,o),
(15,600,o),
(15,389,cs),
(15,179,o),
(141,47,o),
(337,47,cs)
);
},
{
closed = 1;
nodes = (
(302,271,o),
(268,316,o),
(268,386,cs),
(268,462,o),
(306,511,o),
(361,511,cs),
(410,511,o),
(440,470,o),
(440,406,cs),
(440,324,o),
(406,271,o),
(352,271,cs)
);
}
);
width = 691;
},
{
layerId = m005;
shapes = (
{
closed = 1;
nodes = (
(543,47,o),
(676,216,o),
(676,420,cs),
(676,610,o),
(548,738,o),
(351,738,cs),
(147,738,o),
(15,600,o),
(15,389,cs),
(15,179,o),
(141,47,o),
(337,47,cs)
);
},
{
closed = 1;
nodes = (
(302,271,o),
(268,316,o),
(268,386,cs),
(268,462,o),
(306,511,o),
(361,511,cs),
(410,511,o),
(440,470,o),
(440,406,cs),
(440,324,o),
(406,271,o),
(352,271,cs)
);
}
);
width = 691;
},
{
layerId = "20287304-65DA-4A3E-87C7-7BCC59C17C0B";
shapes = (
{
closed = 1;
nodes = (
(543,47,o),
(676,216,o),
(676,420,cs),
(676,610,o),
(548,738,o),
(351,738,cs),
(147,738,o),
(15,600,o),
(15,389,cs),
(15,179,o),
(141,47,o),
(337,47,cs)
);
},
{
closed = 1;
nodes = (
(302,271,o),
(268,316,o),
(268,386,cs),
(268,462,o),
(306,511,o),
(361,511,cs),
(410,511,o),
(440,470,o),
(440,406,cs),
(440,324,o),
(406,271,o),
(352,271,cs)
);
}
);
width = 691;
},
{
layerId = "4BA625B0-8927-4B2E-B2D8-0167ED5E0445";
shapes = (
{
closed = 1;
nodes = (
(543,47,o),
(676,216,o),
(676,420,cs),
(676,610,o),
(548,738,o),
(351,738,cs),
(147,738,o),
(15,600,o),
(15,389,cs),
(15,179,o),
(141,47,o),
(337,47,cs)
);
},
{
closed = 1;
nodes = (
(302,271,o),
(268,316,o),
(268,386,cs),
(268,462,o),
(306,511,o),
(361,511,cs),
(410,511,o),
(440,470,o),
(440,406,cs),
(440,324,o),
(406,271,o),
(352,271,cs)
);
}
);
width = 691;
}
);
metricLeft = O;
metricRight = O;
},
{
glyphname = a;
lastChange = "2021-08-24 12:50:03 +0000";
layers = (
{
associatedMasterId = m01;
background = {
shapes = (
{
closed = 1;
nodes = (
(518,-10,o),
(549,35,o),
(549,206,cs),
(549,310,o),
(537,403,o),
(508,477,cs),
(469,576,o),
(402,626,o),
(287,626,cs),
(157,626,o),
(45,565,o),
(45,477,cs),
(45,434,o),
(71,409,o),
(127,409,cs),
(168,409,o),
(211,422,o),
(247,422,cs),
(306,422,o),
(331,388,o),
(340,265,c),
(373,273,l),
(334,318,o),
(279,345,o),
(205,345,cs),
(87,345,o),
(10,275,o),
(10,165,cs),
(10,68,o),
(69,-13,o),
(196,-13,cs),
(282,-13,o),
(342,26,o),
(373,96,c),
(356,101,l),
(363,24,o),
(381,-10,o),
(445,-10,cs)
);
},
{
closed = 1;
nodes = (
(240,131,o),
(219,152,o),
(219,181,cs),
(219,213,o),
(244,237,o),
(283,237,cs),
(314,237,o),
(343,221,o),
(343,187,cs),
(343,149,o),
(305,131,o),
(274,131,cs)
);
}
);
};
layerId = "0E3AB4F1-F743-46CB-8034-BCB854B926D0";
name = "27 Jul 21, 23:17";
shapes = (
{
closed = 1;
nodes = (
(518,-10,o),
(549,35,o),
(549,206,cs),
(549,310,o),
(537,403,o),
(508,477,cs),
(469,576,o),
(402,626,o),
(287,626,cs),
(157,626,o),
(45,565,o),
(45,477,cs),
(45,434,o),
(71,409,o),
(127,409,cs),
(175,409,o),
(225,422,o),
(267,422,cs),
(306,422,o),
(329,409,o),
(329,380,cs),
(329,352,o),
(301,339,o),
(215,335,cs),
(87,330,o),
(10,275,o),
(10,165,cs),
(10,68,o),
(69,-13,o),
(196,-13,cs),
(282,-13,o),
(342,26,o),
(373,96,c),
(356,101,l),
(363,24,o),
(381,-10,o),
(445,-10,cs)
);
},
{
closed = 1;
nodes = (
(240,131,o),
(219,152,o),
(219,181,cs),
(219,213,o),
(244,237,o),
(283,237,cs),
(314,237,o),
(343,221,o),
(343,187,cs),
(343,149,o),
(305,131,o),
(274,131,cs)
);
}
);
width = 559;
},
{
anchors = (
{
name = bottom;
pos = (285,0);
},
{
name = ogonek;
pos = (512,10);
},
{
name = top;
pos = (245,626);
}
);
background = {
shapes = (
{
closed = 1;
nodes = (
(518,-10,o),
(549,35,o),
(549,206,cs),
(549,310,o),
(537,403,o),
(508,477,cs),
(469,576,o),
(382,626,o),
(267,626,cs),
(137,626,o),
(25,565,o),
(25,476,cs),
(25,430,o),
(54,399,o),
(105,399,cs),
(151,399,o),
(198,424,o),
(237,424,cs),
(304,424,o),
(341,382,o),
(341,275,c),
(373,273,l),
(334,318,o),
(279,345,o),
(205,345,cs),
(87,345,o),
(10,275,o),
(10,165,cs),
(10,68,o),
(69,-13,o),
(196,-13,cs),
(282,-13,o),
(342,24,o),
(373,96,c),
(356,101,l),
(363,24,o),
(381,-10,o),
(445,-10,cs)
);
},
{
closed = 1;
nodes = (
(240,131,o),
(219,152,o),
(219,181,cs),
(219,213,o),
(244,237,o),
(283,237,cs),
(314,237,o),
(343,221,o),
(343,187,cs),
(343,149,o),
(305,131,o),
(274,131,cs)
);
}
);
};
layerId = m01;
name = Regular;
shapes = (
{
closed = 1;
nodes = (
(483,-10,o),
(499,22,o),
(499,146,cs),
(499,277,o),
(485,394,o),
(448,487,cs),
(412,577,o),
(348,626,o),
(257,626,cs),
(143,626,o),
(45,569,o),
(45,516,cs),
(45,494,o),
(60,479,o),
(85,479,cs),
(123,479,o),
(171,524,o),
(247,524,cs),
(326,524,o),
(369,459,o),
(381,295,c),
(393,293,l),
(354,338,o),
(299,365,o),
(225,365,cs),
(107,365,o),
(30,291,o),
(30,175,cs),
(30,73,o),
(89,-13,o),
(216,-13,cs),
(307,-13,o),
(370,24,o),
(403,96,c),
(396,101,l),
(400,24,o),
(410,-10,o),
(445,-10,cs)
);
},
{
closed = 1;
nodes = (
(175,91,o),
(139,122,o),
(139,181,cs),
(139,233,o),
(178,267,o),
(253,267,cs),
(320,267,o),
(383,241,o),
(383,187,cs),
(383,122,o),
(306,91,o),
(244,91,cs)
);
}
);
width = 569;
},
{
associatedMasterId = m003;
background = {
shapes = (
{
closed = 1;
nodes = (
(518,-10,o),
(549,35,o),
(549,206,cs),
(549,310,o),
(537,403,o),
(508,477,cs),
(469,576,o),
(402,626,o),
(287,626,cs),
(157,626,o),
(45,565,o),
(45,477,cs),
(45,434,o),
(71,409,o),
(127,409,cs),
(168,409,o),
(211,422,o),
(247,422,cs),
(306,422,o),
(331,388,o),
(340,265,c),
(373,273,l),
(334,318,o),
(279,345,o),
(205,345,cs),
(87,345,o),
(10,275,o),
(10,165,cs),
(10,68,o),
(69,-13,o),
(196,-13,cs),
(282,-13,o),
(342,26,o),
(373,96,c),
(356,101,l),
(363,24,o),
(381,-10,o),
(445,-10,cs)
);
},
{
closed = 1;
nodes = (
(240,131,o),
(219,152,o),
(219,181,cs),
(219,213,o),
(244,237,o),
(283,237,cs),
(314,237,o),
(343,221,o),
(343,187,cs),
(343,149,o),
(305,131,o),
(274,131,cs)
);
}
);
};
layerId = "84281155-6E52-48D7-B7E6-84A10117377F";
name = "27 Jul 21, 23:17";
shapes = (
{
closed = 1;
nodes = (
(518,-10,o),
(549,35,o),
(549,206,cs),
(549,310,o),
(537,403,o),
(508,477,cs),
(469,576,o),
(402,626,o),
(287,626,cs),
(157,626,o),
(45,565,o),
(45,477,cs),
(45,434,o),
(71,409,o),
(127,409,cs),
(175,409,o),
(225,422,o),
(267,422,cs),
(306,422,o),
(329,409,o),
(329,380,cs),
(329,352,o),
(301,339,o),
(215,335,cs),
(87,330,o),
(10,275,o),
(10,165,cs),
(10,68,o),
(69,-13,o),
(196,-13,cs),
(282,-13,o),
(342,26,o),
(373,96,c),
(356,101,l),
(363,24,o),
(381,-10,o),
(445,-10,cs)
);
},
{
closed = 1;
nodes = (
(240,131,o),
(219,152,o),
(219,181,cs),
(219,213,o),
(244,237,o),
(283,237,cs),
(314,237,o),
(343,221,o),
(343,187,cs),
(343,149,o),
(305,131,o),
(274,131,cs)
);
}
);
width = 559;
},
{
anchors = (
{
name = bottom;
pos = (285,0);
},
{
name = ogonek;
pos = (512,10);
},
{
name = top;
pos = (265,626);
}
);
layerId = m003;
name = Regular;
shapes = (
{
closed = 1;
nodes = (
(518,-10,o),
(549,35,o),
(549,206,cs),
(549,310,o),
(537,403,o),
(508,477,cs),
(469,576,o),
(382,626,o),
(267,626,cs),
(137,626,o),
(25,565,o),
(25,476,cs),
(25,430,o),
(54,399,o),
(105,399,cs),
(151,399,o),
(198,424,o),
(237,424,cs),
(304,424,o),
(341,382,o),
(341,275,c),
(373,273,l),
(334,318,o),
(279,345,o),
(205,345,cs),
(87,345,o),
(10,275,o),
(10,165,cs),
(10,68,o),
(69,-13,o),
(196,-13,cs),
(282,-13,o),
(342,24,o),
(373,96,c),
(356,101,l),
(363,24,o),
(381,-10,o),
(445,-10,cs)
);
},
{
closed = 1;
nodes = (
(240,131,o),
(219,152,o),
(219,181,cs),
(219,213,o),
(244,237,o),
(283,237,cs),
(314,237,o),
(343,221,o),
(343,187,cs),
(343,149,o),
(305,131,o),
(274,131,cs)
);
}
);
width = 569;
},
{
associatedMasterId = m004;
background = {
shapes = (
{
closed = 1;
nodes = (
(518,-10,o),
(549,35,o),
(549,206,cs),
(549,310,o),
(537,403,o),
(508,477,cs),
(469,576,o),
(402,626,o),
(287,626,cs),
(157,626,o),
(45,565,o),
(45,477,cs),
(45,434,o),
(71,409,o),
(127,409,cs),
(168,409,o),
(211,422,o),
(247,422,cs),
(306,422,o),
(331,388,o),
(340,265,c),
(373,273,l),
(334,318,o),
(279,345,o),
(205,345,cs),
(87,345,o),
(10,275,o),
(10,165,cs),
(10,68,o),
(69,-13,o),
(196,-13,cs),
(282,-13,o),
(342,26,o),
(373,96,c),
(356,101,l),
(363,24,o),
(381,-10,o),
(445,-10,cs)
);
},
{
closed = 1;
nodes = (
(240,131,o),
(219,152,o),
(219,181,cs),
(219,213,o),
(244,237,o),
(283,237,cs),
(314,237,o),
(343,221,o),
(343,187,cs),
(343,149,o),
(305,131,o),
(274,131,cs)
);
}
);
};
layerId = "3830F71B-724E-4D53-9527-35E519E6FF5E";
name = "27 Jul 21, 23:17";
shapes = (
{
closed = 1;
nodes = (
(518,-10,o),
(549,35,o),
(549,206,cs),
(549,310,o),
(537,403,o),
(508,477,cs),
(469,576,o),
(402,626,o),
(287,626,cs),
(157,626,o),
(45,565,o),
(45,477,cs),
(45,434,o),
(71,409,o),
(127,409,cs),
(175,409,o),
(225,422,o),
(267,422,cs),
(306,422,o),
(329,409,o),
(329,380,cs),
(329,352,o),
(301,339,o),
(215,335,cs),
(87,330,o),
(10,275,o),
(10,165,cs),
(10,68,o),
(69,-13,o),
(196,-13,cs),
(282,-13,o),
(342,26,o),
(373,96,c),
(356,101,l),
(363,24,o),
(381,-10,o),
(445,-10,cs)
);
},
{
closed = 1;
nodes = (
(240,131,o),
(219,152,o),
(219,181,cs),
(219,213,o),
(244,237,o),
(283,237,cs),
(314,237,o),
(343,221,o),
(343,187,cs),
(343,149,o),
(305,131,o),
(274,131,cs)
);
}
);
width = 559;
},
{
anchors = (
{
name = bottom;
pos = (225,0);
},
{
name = ogonek;
pos = (452,10);
},
{
name = top;
pos = (205,626);
}
);
background = {
shapes = (
{
closed = 1;
nodes = (
(458,-10,o),
(489,35,o),
(489,206,cs),
(489,310,o),
(477,403,o),
(448,477,cs),
(409,576,o),
(322,626,o),
(207,626,cs),
(77,626,o),
(-35,565,o),
(-35,476,cs),
(-35,430,o),
(-6,399,o),
(45,399,cs),
(91,399,o),
(138,424,o),
(177,424,cs),
(244,424,o),
(281,382,o),
(281,275,c),
(313,273,l),
(274,318,o),
(219,345,o),
(145,345,cs),
(27,345,o),
(-50,275,o),
(-50,165,cs),
(-50,68,o),
(9,-13,o),
(136,-13,cs),
(222,-13,o),
(282,24,o),
(313,96,c),
(296,101,l),
(303,24,o),
(321,-10,o),
(385,-10,cs)
);
},
{
closed = 1;
nodes = (
(180,131,o),
(159,152,o),
(159,181,cs),
(159,213,o),
(184,237,o),
(223,237,cs),
(254,237,o),
(283,221,o),
(283,187,cs),
(283,149,o),
(245,131,o),
(214,131,cs)
);
}
);
};
layerId = m004;
name = Regular;
shapes = (
{
closed = 1;
nodes = (
(421,-10,o),
(449,35,o),
(449,206,cs),
(449,310,o),
(437,403,o),
(408,477,cs),
(370,574,o),
(303,626,o),
(207,626,cs),
(109,626,o),
(25,579,o),
(25,496,cs),
(25,450,o),
(50,419,o),
(95,419,cs),
(124,419,o),
(153,434,o),
(177,434,cs),
(231,434,o),
(261,389,o),
(261,275,c),
(293,273,l),
(263,318,o),
(221,345,o),
(165,345,cs),
(71,345,o),
(10,275,o),
(10,165,cs),
(10,68,o),
(56,-13,o),
(156,-13,cs),
(223,-13,o),
(269,24,o),
(293,96,c),
(276,101,l),
(302,24,o),
(318,-10,o),
(355,-10,cs)
);
},
{
closed = 1;
nodes = (
(209,121,o),
(199,146,o),
(199,181,cs),
(199,219,o),
(212,247,o),
(233,247,cs),
(249,247,o),
(263,228,o),
(263,187,cs),
(263,142,o),
(242,121,o),
(224,121,cs)
);
}
);
width = 469;
},
{
associatedMasterId = m005;
background = {
shapes = (
{
closed = 1;
nodes = (
(518,-10,o),
(549,35,o),
(549,206,cs),
(549,310,o),
(537,403,o),
(508,477,cs),
(469,576,o),
(402,626,o),
(287,626,cs),
(157,626,o),
(45,565,o),
(45,477,cs),
(45,434,o),
(71,409,o),
(127,409,cs),
(168,409,o),
(211,422,o),
(247,422,cs),
(306,422,o),
(331,388,o),
(340,265,c),
(373,273,l),
(334,318,o),
(279,345,o),
(205,345,cs),
(87,345,o),
(10,275,o),
(10,165,cs),
(10,68,o),
(69,-13,o),
(196,-13,cs),
(282,-13,o),
(342,26,o),
(373,96,c),
(356,101,l),
(363,24,o),
(381,-10,o),
(445,-10,cs)
);
},
{
closed = 1;
nodes = (
(240,131,o),
(219,152,o),
(219,181,cs),
(219,213,o),
(244,237,o),
(283,237,cs),
(314,237,o),
(343,221,o),
(343,187,cs),
(343,149,o),
(305,131,o),
(274,131,cs)
);
}
);
};
layerId = "88FB6366-FBF7-4645-858F-525B6CCB9EE9";
name = "27 Jul 21, 23:17";
shapes = (
{
closed = 1;
nodes = (
(518,-10,o),
(549,35,o),
(549,206,cs),
(549,310,o),
(537,403,o),
(508,477,cs),
(469,576,o),
(402,626,o),
(287,626,cs),
(157,626,o),
(45,565,o),
(45,477,cs),
(45,434,o),
(71,409,o),
(127,409,cs),
(175,409,o),
(225,422,o),
(267,422,cs),
(306,422,o),
(329,409,o),
(329,380,cs),
(329,352,o),
(301,339,o),
(215,335,cs),
(87,330,o),
(10,275,o),
(10,165,cs),
(10,68,o),
(69,-13,o),
(196,-13,cs),
(282,-13,o),
(342,26,o),
(373,96,c),
(356,101,l),
(363,24,o),
(381,-10,o),
(445,-10,cs)
);
},
{
closed = 1;
nodes = (
(240,131,o),
(219,152,o),
(219,181,cs),
(219,213,o),
(244,237,o),
(283,237,cs),
(314,237,o),
(343,221,o),
(343,187,cs),
(343,149,o),
(305,131,o),
(274,131,cs)
);
}
);
width = 559;
},
{
anchors = (
{
name = bottom;
pos = (175,0);
},
{
name = ogonek;
pos = (402,10);
},
{
name = top;
pos = (195,626);
}
);
background = {
shapes = (
{
closed = 1;
nodes = (
(408,-10,o),
(439,35,o),
(439,206,cs),
(439,310,o),
(427,403,o),
(398,477,cs),
(359,576,o),
(272,626,o),
(157,626,cs),
(27,626,o),
(-85,565,o),
(-85,476,cs),
(-85,430,o),
(-56,399,o),
(-5,399,cs),
(41,399,o),
(88,424,o),
(127,424,cs),
(194,424,o),
(231,382,o),
(231,275,c),
(263,273,l),
(224,318,o),
(169,345,o),
(95,345,cs),
(-23,345,o),
(-100,275,o),
(-100,165,cs),
(-100,68,o),
(-41,-13,o),
(86,-13,cs),
(172,-13,o),
(232,24,o),
(263,96,c),
(246,101,l),
(253,24,o),
(271,-10,o),
(335,-10,cs)
);
},
{
closed = 1;
nodes = (
(130,131,o),
(109,152,o),
(109,181,cs),
(109,213,o),
(134,237,o),
(173,237,cs),
(204,237,o),
(233,221,o),
(233,187,cs),
(233,149,o),
(195,131,o),
(164,131,cs)
);
}
);
};
layerId = m005;
name = Regular;
shapes = (
{
closed = 1;
nodes = (
(373,-10,o),
(389,22,o),
(389,146,cs),
(389,289,o),
(378,417,o),
(338,517,cs),
(310,587,o),
(264,626,o),
(197,626,cs),
(115,626,o),
(45,579,o),
(45,536,cs),
(45,514,o),
(60,499,o),
(85,499,cs),
(109,499,o),
(139,524,o),
(187,524,cs),
(237,524,o),
(263,459,o),
(271,295,c),
(283,293,l),
(258,338,o),
(223,365,o),
(175,365,cs),
(87,365,o),
(30,291,o),
(30,175,cs),
(30,73,o),
(73,-13,o),
(166,-13,cs),
(228,-13,o),
(271,24,o),
(293,96,c),
(286,101,l),
(290,24,o),
(300,-10,o),
(335,-10,cs)
);
},
{
closed = 1;
nodes = (
(158,91,o),
(139,122,o),
(139,181,cs),
(139,233,o),
(161,267,o),
(203,267,cs),
(239,267,o),
(273,241,o),
(273,187,cs),
(273,122,o),
(229,91,o),
(194,91,cs)
);
}
);
width = 449;
},
{
anchors = (
{
name = bottom;
pos = (340,0);
},
{
name = ogonek;
pos = (567,10);
},
{
name = top;
pos = (270,626);
}
);
layerId = "20287304-65DA-4A3E-87C7-7BCC59C17C0B";
name = Regular;
shapes = (
{
closed = 1;
nodes = (
(538,-10,o),
(554,22,o),
(554,146,cs),
(554,271,o),
(539,383,o),
(503,472,cs),
(463,572,o),
(390,626,o),
(287,626,cs),
(157,626,o),
(45,564,o),
(45,506,cs),
(45,484,o),
(60,469,o),
(85,469,cs),
(130,469,o),
(187,524,o),
(277,524,cs),
(371,524,o),
(422,459,o),
(436,295,c),
(448,293,l),
(402,338,o),
(337,365,o),
(250,365,cs),
(117,365,o),
(30,291,o),
(30,175,cs),
(30,73,o),
(97,-13,o),
(241,-13,cs),
(347,-13,o),
(420,24,o),
(458,96,c),
(451,101,l),
(455,24,o),
(465,-10,o),
(500,-10,cs)
);
},
{
closed = 1;
nodes = (
(184,91,o),
(139,122,o),
(139,181,cs),
(139,233,o),
(187,267,o),
(278,267,cs),
(361,267,o),
(438,241,o),
(438,187,cs),
(438,122,o),
(345,91,o),
(269,91,cs)
);
}
);
width = 629;
},
{
anchors = (
{
name = bottom;
pos = (315,0);
},
{
name = ogonek;
pos = (542,10);
},
{
name = top;
pos = (295,626);
}
);
layerId = "4BA625B0-8927-4B2E-B2D8-0167ED5E0445";
name = Regular;
shapes = (
{
closed = 1;
nodes = (
(567,-10,o),
(599,35,o),
(599,206,cs),
(599,310,o),
(587,403,o),
(558,477,cs),
(519,577,o),
(422,626,o),
(297,626,cs),
(151,626,o),
(25,558,o),
(25,466,cs),
(25,420,o),
(56,389,o),
(110,389,cs),
(165,389,o),
(221,419,o),
(267,419,cs),
(341,419,o),
(381,379,o),
(381,275,c),
(413,273,l),
(370,318,o),
(308,345,o),
(225,345,cs),
(95,345,o),
(10,275,o),
(10,165,cs),
(10,68,o),
(76,-13,o),
(216,-13,cs),
(312,-13,o),
(379,24,o),
(413,96,c),
(396,101,l),
(394,24,o),
(413,-10,o),
(490,-10,cs)
);
},
{
closed = 1;
nodes = (
(256,136,o),
(229,155,o),
(229,181,cs),
(229,210,o),
(260,232,o),
(308,232,cs),
(347,232,o),
(383,218,o),
(383,187,cs),
(383,153,o),
(337,136,o),
(299,136,cs)
);
}
);
width = 619;
}
);
metricRight = n;
unicode = 97;
},
{
glyphname = b;
lastChange = "2021-08-24 12:41:41 +0000";
layers = (
{
anchors = (
{
name = bottom;
pos = (290,0);
},
{
name = center;
pos = (290,310);
},
{
name = top;
pos = (290,620);
}
);
background = {
shapes = (
{
closed = 1;
nodes = (
(175,-10,o),
(208,33,o),
(223,129,c),
(202,140,l),
(217,47,o),
(273,-4,o),
(350,-4,cs),
(473,-4,o),
(564,99,o),
(564,306,cs),
(564,502,o),
(494,592,o),
(383,592,cs),
(290,592,o),
(239,525,o),
(219,439,c),
(231,433,l),
(248,515,o),
(257,600,o),
(257,659,cs),
(257,727,o),
(225,781,o),
(154,781,cs),
(87,781,o),
(55,733,o),
(42,656,cs),
(30,581,o),
(20,403,o),
(20,298,cs),
(20,203,o),
(28,115,o),
(39,63,cs),
(51,14,o),
(81,-10,o),
(124,-10,cs)
);
},
{
closed = 1;
nodes = (
(251,164,o),
(225,219,o),
(225,297,cs),
(225,378,o),
(251,418,o),
(290,418,cs),
(337,418,o),
(356,368,o),
(356,296,cs),
(356,205,o),
(326,164,o),
(292,164,cs)
);
}
);
};
layerId = m01;
shapes = (
{
closed = 1;
nodes = (
(159,-10,o),
(176,33,o),
(178,129,c),
(167,140,l),
(182,47,o),
(243,-4,o),
(320,-4,cs),
(443,-4,o),
(534,99,o),
(534,306,cs),
(534,502,o),
(456,592,o),
(333,592,cs),
(242,592,o),
(179,522,o),
(159,439,c),
(181,473,l),
(198,555,o),
(207,640,o),
(207,699,cs),
(207,745,o),
(191,781,o),
(154,781,cs),
(117,781,o),
(104,748,o),
(96,696,cs),
(82,613,o),
(70,415,o),
(70,298,cs),
(70,195,o),
(77,99,o),
(89,43,cs),
(98,8,o),
(111,-10,o),
(134,-10,cs)
);
},
{
closed = 1;
nodes = (
(224,94,o),
(175,179,o),
(175,300,cs),
(175,433,o),
(225,498,o),
(300,498,cs),
(390,498,o),
(426,416,o),
(426,299,cs),
(426,158,o),
(368,94,o),
(302,94,cs)
);
}
);
width = 579;
},
{
anchors = (
{
name = bottom;
pos = (290,0);
},
{
name = center;
pos = (290,310);
},
{
name = top;
pos = (290,620);
}
);
layerId = m003;
shapes = (
{
closed = 1;
nodes = (
(175,-10,o),
(208,33,o),
(223,129,c),
(202,140,l),
(217,47,o),
(273,-4,o),
(350,-4,cs),
(473,-4,o),
(564,99,o),
(564,306,cs),
(564,502,o),
(494,592,o),
(383,592,cs),
(290,592,o),
(239,525,o),
(219,439,c),
(231,433,l),
(248,515,o),
(257,600,o),
(257,659,cs),
(257,727,o),
(225,781,o),
(154,781,cs),
(87,781,o),
(55,733,o),
(42,656,cs),
(30,581,o),
(20,403,o),
(20,298,cs),
(20,203,o),
(28,115,o),
(39,63,cs),
(51,14,o),
(81,-10,o),
(124,-10,cs)
);
},
{
closed = 1;
nodes = (
(251,164,o),
(225,219,o),
(225,297,cs),
(225,378,o),
(251,418,o),
(290,418,cs),
(337,418,o),
(356,368,o),
(356,296,cs),
(356,205,o),
(326,164,o),
(292,164,cs)
);
}
);
width = 579;
},
{
anchors = (
{
name = bottom;
pos = (270,0);
},
{
name = center;
pos = (270,310);
},
{
name = top;
pos = (270,620);
}
);
layerId = m004;
shapes = (
{
closed = 1;
nodes = (
(160,-10,o),
(190,33,o),
(203,129,c),
(182,140,l),
(194,47,o),
(239,-4,o),
(300,-4,cs),
(406,-4,o),
(484,99,o),
(484,306,cs),
(484,502,o),
(426,592,o),
(333,592,cs),
(257,592,o),
(215,525,o),
(199,439,c),
(211,433,l),
(228,515,o),
(237,600,o),
(237,659,cs),
(237,727,o),
(208,781,o),
(144,781,cs),
(83,781,o),
(55,733,o),
(42,656,cs),
(30,581,o),
(20,403,o),
(20,298,cs),
(20,203,o),
(28,115,o),
(39,63,cs),
(51,14,o),
(76,-10,o),
(114,-10,cs)
);
},
{
closed = 1;
nodes = (
(223,164,o),
(205,219,o),
(205,297,cs),
(205,378,o),
(223,418,o),
(250,418,cs),
(283,418,o),
(296,368,o),
(296,296,cs),
(296,205,o),
(275,164,o),
(252,164,cs)
);
}
);
width = 499;
},
{
anchors = (
{
name = bottom;
pos = (280,0);
},
{
name = center;
pos = (280,310);
},
{
name = top;
pos = (280,620);
}
);
background = {
shapes = (
{
closed = 1;
nodes = (
(165,-10,o),
(198,33,o),
(213,129,c),
(192,140,l),
(207,47,o),
(263,-4,o),
(340,-4,cs),
(463,-4,o),
(554,99,o),
(554,306,cs),
(554,502,o),
(484,592,o),
(373,592,cs),
(280,592,o),
(229,525,o),
(209,439,c),
(221,433,l),
(238,515,o),
(247,600,o),
(247,659,cs),
(247,727,o),
(215,781,o),
(144,781,cs),
(77,781,o),
(45,733,o),
(32,656,cs),
(20,581,o),
(10,403,o),
(10,298,cs),
(10,203,o),
(18,115,o),
(29,63,cs),
(41,14,o),
(71,-10,o),
(114,-10,cs)
);
},
{
closed = 1;
nodes = (
(241,164,o),
(215,219,o),
(215,297,cs),
(215,378,o),
(241,418,o),
(280,418,cs),
(327,418,o),
(346,368,o),
(346,296,cs),
(346,205,o),
(316,164,o),
(282,164,cs)
);
}
);
};
layerId = m005;
shapes = (
{
closed = 1;
nodes = (
(149,-10,o),
(166,33,o),
(168,129,c),
(157,140,l),
(169,47,o),
(218,-4,o),
(280,-4,cs),
(380,-4,o),
(454,99,o),
(454,306,cs),
(454,502,o),
(392,592,o),
(293,592,cs),
(218,592,o),
(166,522,o),
(149,439,c),
(171,473,l),
(188,555,o),
(197,640,o),
(197,699,cs),
(197,745,o),
(181,781,o),
(144,781,cs),
(107,781,o),
(94,748,o),
(86,696,cs),
(72,613,o),
(60,415,o),
(60,298,cs),
(60,195,o),
(67,99,o),
(79,43,cs),
(88,8,o),
(101,-10,o),
(124,-10,cs)
);
},
{
closed = 1;
nodes = (
(202,94,o),
(165,179,o),
(165,300,cs),
(165,433,o),
(203,498,o),
(260,498,cs),
(321,498,o),
(346,416,o),
(346,299,cs),
(346,158,o),
(307,94,o),
(262,94,cs)
);
}
);
width = 494;
},
{
anchors = (
{
name = bottom;
pos = (295,0);
},
{
name = center;
pos = (295,310);
},
{
name = top;
pos = (295,620);
}
);
layerId = "20287304-65DA-4A3E-87C7-7BCC59C17C0B";
shapes = (
{
closed = 1;
nodes = (
(164,-10,o),
(181,33,o),
(183,129,c),
(172,140,l),
(189,47,o),
(256,-4,o),
(340,-4,cs),
(475,-4,o),
(574,99,o),
(574,306,cs),
(574,502,o),
(488,592,o),
(353,592,cs),
(254,592,o),
(186,522,o),
(164,439,c),
(186,473,l),
(203,555,o),
(212,640,o),
(212,699,cs),
(212,745,o),
(196,781,o),
(159,781,cs),
(122,781,o),
(109,748,o),
(101,696,cs),
(87,613,o),
(75,415,o),
(75,298,cs),
(75,195,o),
(82,99,o),
(94,43,cs),
(103,8,o),
(116,-10,o),
(139,-10,cs)
);
},
{
closed = 1;
nodes = (
(235,94,o),
(180,179,o),
(180,300,cs),
(180,433,o),
(236,498,o),
(320,498,cs),
(425,498,o),
(466,416,o),
(466,299,cs),
(466,158,o),
(399,94,o),
(322,94,cs)
);
}
);
width = 621.5;
},
{
anchors = (
{
name = bottom;
pos = (300,0);
},
{
name = center;
pos = (300,310);
},
{
name = top;
pos = (300,620);
}
);
layerId = "4BA625B0-8927-4B2E-B2D8-0167ED5E0445";
shapes = (
{
closed = 1;
nodes = (
(183,-10,o),
(217,33,o),
(233,129,c),
(212,140,l),
(229,47,o),
(290,-4,o),
(375,-4,cs),
(507,-4,o),
(604,99,o),
(604,306,cs),
(604,502,o),
(528,592,o),
(408,592,cs),
(307,592,o),
(251,525,o),
(229,439,c),
(241,433,l),
(258,515,o),
(267,600,o),
(267,659,cs),
(267,727,o),
(234,781,o),
(159,781,cs),
(89,781,o),
(55,733,o),
(42,656,cs),
(30,581,o),
(20,403,o),
(20,298,cs),
(20,203,o),
(28,115,o),
(39,63,cs),
(51,14,o),
(84,-10,o),
(129,-10,cs)
);
},
{
closed = 1;
nodes = (
(265,164,o),
(235,219,o),
(235,297,cs),
(235,378,o),
(265,418,o),
(310,418,cs),
(364,418,o),
(386,368,o),
(386,296,cs),
(386,205,o),
(352,164,o),
(312,164,cs)
);
}
);
width = 619;
}
);
metricLeft = n;
metricRight = o;
unicode = 98;
},
{
glyphname = c;
lastChange = "2021-08-24 12:41:41 +0000";
layers = (
{
anchors = (
{
name = bottom;
pos = (249,0);
},
{
name = top;
pos = (249,620);
}
);
background = {
shapes = (
{
closed = 1;
nodes = (
(409,-11,o),
(477,51,o),
(477,149,cs),
(477,220,o),
(432,257,o),
(371,257,cs),
(344,257,o),
(315,247,o),
(297,247,cs),
(258,247,o),
(233,261,o),
(233,294,cs),
(233,329,o),
(255,348,o),
(299,348,cs),
(318,348,o),
(342,343,o),
(371,343,cs),
(450,343,o),
(493,386,o),
(493,456,cs),
(493,546,o),
(434,600,o),
(326,600,cs),
(130,600,o),
(15,459,o),
(15,261,cs),
(15,90,o),
(95,-11,o),
(271,-11,cs)
);
}
);
};
layerId = m01;
shapes = (
{
closed = 1;
nodes = (
(412,-11,o),
(477,44,o),
(477,89,cs),
(477,114,o),
(461,127,o),
(441,127,cs),
(400,127,o),
(365,97,o),
(297,97,cs),
(209,97,o),
(153,153,o),
(153,284,cs),
(153,423,o),
(208,498,o),
(319,498,cs),
(380,498,o),
(411,473,o),
(441,473,cs),
(475,473,o),
(493,489,o),
(493,516,cs),
(493,562,o),
(438,600,o),
(336,600,cs),
(153,600,o),
(45,459,o),
(45,261,cs),
(45,90,o),
(119,-11,o),
(281,-11,cs)
);
}
);
width = 498;
},
{
anchors = (
{
name = bottom;
pos = (249,0);
},
{
name = top;
pos = (249,620);
}
);
layerId = m003;
shapes = (
{
closed = 1;
nodes = (
(409,-11,o),
(477,51,o),
(477,149,cs),
(477,220,o),
(432,257,o),
(371,257,cs),
(344,257,o),
(315,247,o),
(297,247,cs),
(258,247,o),
(233,261,o),
(233,294,cs),
(233,329,o),
(255,348,o),
(299,348,cs),
(318,348,o),
(342,343,o),
(371,343,cs),
(450,343,o),
(493,386,o),
(493,456,cs),
(493,546,o),
(434,600,o),
(326,600,cs),
(130,600,o),
(15,459,o),
(15,261,cs),
(15,90,o),
(95,-11,o),
(271,-11,cs)
);
}
);
width = 498;
},
{
anchors = (
{
name = bottom;
pos = (209,0);
},
{
name = top;
pos = (209,620);
}
);
layerId = m004;
shapes = (
{
closed = 1;
nodes = (
(352,-11,o),
(407,43,o),
(407,128,cs),
(407,196,o),
(362,231,o),
(301,231,cs),
(285,231,o),
(268,227,o),
(257,227,cs),
(230,227,o),
(213,246,o),
(213,294,cs),
(213,342,o),
(228,368,o),
(259,368,cs),
(270,368,o),
(284,363,o),
(301,363,cs),
(380,363,o),
(423,406,o),
(423,476,cs),
(423,554,o),
(375,600,o),
(286,600,cs),
(115,600,o),
(15,459,o),
(15,261,cs),
(15,90,o),
(86,-11,o),
(241,-11,cs)
);
}
);
width = 428;
},
{
anchors = (
{
name = bottom;
pos = (204,0);
},
{
name = top;
pos = (204,620);
}
);
background = {
shapes = (
{
closed = 1;
nodes = (
(404,-11,o),
(472,51,o),
(472,149,cs),
(472,220,o),
(427,257,o),
(366,257,cs),
(339,257,o),
(310,247,o),
(292,247,cs),
(253,247,o),
(228,261,o),
(228,294,cs),
(228,329,o),
(250,348,o),
(294,348,cs),
(313,348,o),
(337,343,o),
(366,343,cs),
(445,343,o),
(488,386,o),
(488,456,cs),
(488,546,o),
(429,600,o),
(321,600,cs),
(125,600,o),
(10,459,o),
(10,261,cs),
(10,90,o),
(90,-11,o),
(266,-11,cs)
);
}
);
};
layerId = m005;
shapes = (
{
closed = 1;
nodes = (
(307,-11,o),
(352,39,o),
(352,79,cs),
(352,104,o),
(336,117,o),
(316,117,cs),
(292,117,o),
(272,97,o),
(232,97,cs),
(181,97,o),
(148,153,o),
(148,284,cs),
(148,423,o),
(183,498,o),
(254,498,cs),
(285,498,o),
(301,483,o),
(316,483,cs),
(350,483,o),
(368,499,o),
(368,526,cs),
(368,567,o),
(334,600,o),
(271,600,cs),
(126,600,o),
(40,459,o),
(40,261,cs),
(40,90,o),
(95,-11,o),
(216,-11,cs)
);
}
);
width = 373;
},
{
anchors = (
{
name = bottom;
pos = (272,0);
},
{
name = top;
pos = (272,620);
}
);
layerId = "20287304-65DA-4A3E-87C7-7BCC59C17C0B";
shapes = (
{
closed = 1;
nodes = (
(465,-11,o),
(540,47,o),
(540,94,cs),
(540,119,o),
(524,132,o),
(504,132,cs),
(454,132,o),
(412,97,o),
(330,97,cs),
(223,97,o),
(156,153,o),
(156,284,cs),
(156,423,o),
(221,498,o),
(352,498,cs),
(428,498,o),
(466,468,o),
(504,468,cs),
(538,468,o),
(556,484,o),
(556,511,cs),
(556,560,o),
(490,600,o),
(369,600,cs),
(167,600,o),
(48,459,o),
(48,261,cs),
(48,90,o),
(131,-11,o),
(314,-11,cs)
);
}
);
width = 560.5;
},
{
anchors = (
{
name = bottom;
pos = (269,0);
},
{
name = top;
pos = (269,620);
}
);
layerId = "4BA625B0-8927-4B2E-B2D8-0167ED5E0445";
shapes = (
{
closed = 1;
nodes = (
(438,-11,o),
(512,55,o),
(512,160,cs),
(512,232,o),
(467,270,o),
(406,270,cs),
(374,270,o),
(339,257,o),
(317,257,cs),
(272,257,o),
(243,269,o),
(243,294,cs),
(243,323,o),
(269,338,o),
(319,338,cs),
(342,338,o),
(371,333,o),
(406,333,cs),
(485,333,o),
(528,376,o),
(528,446,cs),
(528,542,o),
(464,600,o),
(346,600,cs),
(138,600,o),
(15,459,o),
(15,261,cs),
(15,90,o),
(100,-11,o),
(286,-11,cs)
);
}
);
width = 533;
}
);
metricLeft = o;
unicode = 99;
},
